RecursiveMonoVar-CasualLight.ufo
<glyph name="exclam" format="1">
  <advance width="600"/>
  <unicode hex="0021"/>
  <outline>
    <contour>
      <point x="325" y="243" type="line"/>
      <point x="333" y="320"/>
      <point x="337" y="397"/>
      <point x="337" y="473" type="curve"/>
      <point x="337" y="668" type="line" smooth="yes"/>
      <point x="337" y="700"/>
      <point x="323" y="710"/>
      <point x="278" y="710" type="curve" smooth="yes"/>
      <point x="268" y="710"/>
      <point x="261" y="709"/>
      <point x="254" y="707" type="curve"/>
      <point x="260" y="672"/>
      <point x="261" y="637"/>
      <point x="261" y="599" type="curve" smooth="yes"/>
      <point x="261" y="473" type="line"/>
      <point x="261" y="354"/>
      <point x="266" y="269"/>
      <point x="280" y="255" type="curve" smooth="yes"/>
      <point x="290" y="245"/>
      <point x="305" y="243"/>
      <point x="320" y="243" type="curve"/>
    </contour>
    <contour>
      <point x="364" y="8" type="curve"/>
      <point x="364" y="74" type="line" smooth="yes"/>
      <point x="364" y="109"/>
      <point x="339" y="129"/>
      <point x="288" y="129" type="curve" smooth="yes"/>
      <point x="266" y="129"/>
      <point x="249" y="125"/>
      <point x="236" y="116" type="curve"/>
      <point x="236" y="51" type="line" smooth="yes"/>
      <point x="236" y="15"/>
      <point x="261" y="-5"/>
      <point x="312" y="-5" type="curve" smooth="yes"/>
      <point x="334" y="-5"/>
      <point x="351" y="0"/>
    </contour>
  </outline>
</glyph>
<glyph name="dollar" format="1">
  <advance width="600"/>
  <unicode hex="0024"/>
  <outline>
    <contour>
      <point x="377" y="720" type="curve" smooth="yes"/>
      <point x="217" y="720"/>
      <point x="89" y="610"/>
      <point x="89" y="503" type="curve" smooth="yes"/>
      <point x="89" y="493" type="line" smooth="yes"/>
      <point x="89" y="466"/>
      <point x="126" y="449"/>
      <point x="147" y="444" type="curve"/>
      <point x="144" y="464"/>
      <point x="144" y="482"/>
      <point x="144" y="502" type="curve" smooth="yes"/>
      <point x="144" y="586"/>
      <point x="256" y="665"/>
      <point x="378" y="665" type="curve" smooth="yes"/>
      <point x="445" y="665"/>
      <point x="482" y="650"/>
      <point x="519" y="627" type="curve"/>
      <point x="523" y="627" type="line"/>
      <point x="526" y="635"/>
      <point x="527" y="642"/>
      <point x="527" y="653" type="curve" smooth="yes"/>
      <point x="527" y="665"/>
      <point x="525" y="678"/>
      <point x="519" y="684" type="curve" smooth="yes"/>
      <point x="496" y="708"/>
      <point x="450" y="720"/>
    </contour>
    <contour>
      <point x="369" y="339" type="curve" smooth="yes"/>
      <point x="284" y="371" type="line" smooth="yes"/>
      <point x="152" y="418"/>
      <point x="144" y="457"/>
      <point x="144" y="502" type="curve" smooth="yes"/>
      <point x="144" y="522"/>
      <point x="144" y="538"/>
      <point x="147" y="566" type="curve"/>
      <point x="120" y="557"/>
      <point x="89" y="536"/>
      <point x="89" y="493" type="curve" smooth="yes"/>
      <point x="89" y="418"/>
      <point x="133" y="368"/>
      <point x="270" y="318" type="curve" smooth="yes"/>
      <point x="356" y="285" type="line" smooth="yes"/>
      <point x="452" y="250"/>
      <point x="477" y="204"/>
      <point x="477" y="131" type="curve" smooth="yes"/>
      <point x="477" y="125"/>
      <point x="477" y="118"/>
      <point x="477" y="113" type="curve"/>
      <point x="496" y="118"/>
      <point x="526" y="152"/>
      <point x="526" y="171" type="curve"/>
      <point x="526" y="241"/>
      <point x="477" y="300"/>
    </contour>
    <contour>
      <point x="300" y="-12" type="curve" smooth="yes"/>
      <point x="435" y="-12"/>
      <point x="526" y="56"/>
      <point x="526" y="165" type="curve" smooth="yes"/>
      <point x="526" y="171" type="line" smooth="yes"/>
      <point x="526" y="201"/>
      <point x="501" y="216"/>
      <point x="483" y="218" type="curve"/>
      <point x="483" y="214"/>
      <point x="483" y="208"/>
      <point x="483" y="196" type="curve" smooth="yes"/>
      <point x="483" y="99"/>
      <point x="417" y="43"/>
      <point x="300" y="43" type="curve" smooth="yes"/>
      <point x="198" y="43"/>
      <point x="132" y="72"/>
      <point x="86" y="135" type="curve"/>
      <point x="82" y="135" type="line"/>
      <point x="78" y="121"/>
      <point x="76" y="110"/>
      <point x="76" y="96" type="curve" smooth="yes"/>
      <point x="76" y="78"/>
      <point x="78" y="66"/>
      <point x="92" y="52" type="curve" smooth="yes"/>
      <point x="134" y="10"/>
      <point x="208" y="-12"/>
    </contour>
    <contour>
      <point x="338" y="408" type="line"/>
      <point x="376" y="828" type="line" smooth="yes"/>
      <point x="380" y="868"/>
      <point x="370" y="885"/>
      <point x="337" y="885" type="curve" smooth="yes"/>
      <point x="327" y="885"/>
      <point x="316" y="883"/>
      <point x="310" y="881" type="curve"/>
      <point x="316" y="856"/>
      <point x="319" y="834"/>
      <point x="317" y="793" type="curve"/>
      <point x="300" y="437" type="line" smooth="yes"/>
      <point x="299" y="418"/>
      <point x="312" y="408"/>
      <point x="334" y="408" type="curve" smooth="yes"/>
    </contour>
    <contour>
      <point x="285" y="253" type="line"/>
      <point x="247" y="-138" type="line" smooth="yes"/>
      <point x="242" y="-178"/>
      <point x="253" y="-195"/>
      <point x="285" y="-195" type="curve" smooth="yes"/>
      <point x="296" y="-195"/>
      <point x="307" y="-193"/>
      <point x="313" y="-191" type="curve"/>
      <point x="307" y="-166"/>
      <point x="304" y="-144"/>
      <point x="306" y="-103" type="curve"/>
      <point x="322" y="224" type="line" smooth="yes"/>
      <point x="323" y="242"/>
      <point x="310" y="253"/>
      <point x="289" y="253" type="curve" smooth="yes"/>
    </contour>
  </outline>
</glyph>
<glyph name="percent" format="1">
  <advance width="600"/>
  <unicode hex="0025"/>
  <outline>
    <contour>
      <point x="148" y="670" type="curve"/>
      <point x="240" y="670"/>
      <point x="284" y="636"/>
      <point x="284" y="541" type="curve" smooth="yes"/>
      <point x="284" y="535" type="line" smooth="yes"/>
      <point x="284" y="459"/>
      <point x="246" y="413"/>
      <point x="169" y="413" type="curve" smooth="yes"/>
      <point x="134" y="413"/>
      <point x="114" y="422"/>
      <point x="88" y="449" type="curve"/>
      <point x="45" y="405"/>
      <point x="129" y="356"/>
      <point x="179" y="356" type="curve" smooth="yes"/>
      <point x="276" y="356"/>
      <point x="338" y="422"/>
      <point x="338" y="527" type="curve" smooth="yes"/>
      <point x="338" y="533" type="line" smooth="yes"/>
      <point x="338" y="639"/>
      <point x="277" y="710"/>
      <point x="186" y="710" type="curve" smooth="yes"/>
      <point x="164" y="710"/>
      <point x="148" y="692"/>
    </contour>
    <contour>
      <point x="209" y="397" type="curve"/>
      <point x="129" y="397"/>
      <point x="81" y="448"/>
      <point x="81" y="519" type="curve" smooth="yes"/>
      <point x="81" y="525" type="line" smooth="yes"/>
      <point x="81" y="605"/>
      <point x="125" y="659"/>
      <point x="191" y="659" type="curve" smooth="yes"/>
      <point x="224" y="659"/>
      <point x="245" y="655"/>
      <point x="273" y="630" type="curve"/>
      <point x="301" y="658"/>
      <point x="238" y="710"/>
      <point x="186" y="710" type="curve" smooth="yes"/>
      <point x="92" y="710"/>
      <point x="29" y="637"/>
      <point x="29" y="529" type="curve" smooth="yes"/>
      <point x="29" y="523" type="line" smooth="yes"/>
      <point x="29" y="420"/>
      <point x="86" y="356"/>
      <point x="179" y="356" type="curve" smooth="yes"/>
      <point x="195" y="356"/>
      <point x="209" y="378"/>
    </contour>
    <contour>
      <point x="381" y="304" type="curve"/>
      <point x="473" y="304"/>
      <point x="517" y="270"/>
      <point x="517" y="175" type="curve" smooth="yes"/>
      <point x="517" y="169" type="line" smooth="yes"/>
      <point x="517" y="93"/>
      <point x="479" y="47"/>
      <point x="402" y="47" type="curve" smooth="yes"/>
      <point x="367" y="47"/>
      <point x="347" y="56"/>
      <point x="322" y="83" type="curve"/>
      <point x="278" y="39"/>
      <point x="362" y="-10"/>
      <point x="412" y="-10" type="curve" smooth="yes"/>
      <point x="509" y="-10"/>
      <point x="571" y="56"/>
      <point x="571" y="161" type="curve" smooth="yes"/>
      <point x="571" y="167" type="line" smooth="yes"/>
      <point x="571" y="273"/>
      <point x="510" y="344"/>
      <point x="419" y="344" type="curve" smooth="yes"/>
      <point x="398" y="344"/>
      <point x="381" y="326"/>
    </contour>
    <contour>
      <point x="443" y="31" type="curve"/>
      <point x="363" y="31"/>
      <point x="314" y="82"/>
      <point x="314" y="153" type="curve" smooth="yes"/>
      <point x="314" y="159" type="line" smooth="yes"/>
      <point x="314" y="239"/>
      <point x="358" y="293"/>
      <point x="424" y="293" type="curve" smooth="yes"/>
      <point x="457" y="293"/>
      <point x="479" y="289"/>
      <point x="506" y="264" type="curve"/>
      <point x="534" y="292"/>
      <point x="472" y="344"/>
      <point x="419" y="344" type="curve" smooth="yes"/>
      <point x="325" y="344"/>
      <point x="262" y="271"/>
      <point x="262" y="163" type="curve" smooth="yes"/>
      <point x="262" y="157" type="line" smooth="yes"/>
      <point x="262" y="54"/>
      <point x="319" y="-10"/>
      <point x="412" y="-10" type="curve" smooth="yes"/>
      <point x="428" y="-10"/>
      <point x="443" y="12"/>
    </contour>
    <contour>
      <point x="368" y="417" type="curve"/>
      <point x="382" y="409"/>
      <point x="392" y="406"/>
      <point x="407" y="406" type="curve" smooth="yes"/>
      <point x="419" y="406"/>
      <point x="426" y="409"/>
      <point x="433" y="416" type="curve" smooth="yes"/>
      <point x="499" y="481"/>
      <point x="551" y="582"/>
      <point x="551" y="674" type="curve" smooth="yes"/>
      <point x="551" y="693"/>
      <point x="535" y="706"/>
      <point x="508" y="706" type="curve" smooth="yes"/>
      <point x="495" y="706"/>
      <point x="486" y="704"/>
      <point x="474" y="699" type="curve"/>
      <point x="467" y="585"/>
      <point x="442" y="511"/>
    </contour>
    <contour>
      <point x="232" y="282" type="curve"/>
      <point x="218" y="290"/>
      <point x="208" y="294"/>
      <point x="193" y="294" type="curve" smooth="yes"/>
      <point x="181" y="294"/>
      <point x="174" y="290"/>
      <point x="167" y="283" type="curve" smooth="yes"/>
      <point x="102" y="218"/>
      <point x="49" y="117"/>
      <point x="49" y="25" type="curve" smooth="yes"/>
      <point x="49" y="6"/>
      <point x="65" y="-7"/>
      <point x="92" y="-7" type="curve" smooth="yes"/>
      <point x="105" y="-7"/>
      <point x="114" y="-5"/>
      <point x="126" y="0" type="curve"/>
      <point x="134" y="114"/>
      <point x="158" y="188"/>
    </contour>
  </outline>
</glyph>
<glyph name="quotesingle" format="1">
  <advance width="600"/>
  <unicode hex="0027"/>
  <outline>
    <contour>
      <point x="332" y="438" type="curve"/>
      <point x="342" y="678" type="line" smooth="yes"/>
      <point x="344" y="732"/>
      <point x="324" y="754"/>
      <point x="274" y="754" type="curve" smooth="yes"/>
      <point x="263" y="754"/>
      <point x="253" y="752"/>
      <point x="246" y="750" type="curve"/>
      <point x="254" y="727"/>
      <point x="256" y="719"/>
      <point x="258" y="662" type="curve" smooth="yes"/>
      <point x="268" y="473" type="line" smooth="yes"/>
      <point x="269" y="448"/>
      <point x="283" y="438"/>
      <point x="320" y="438" type="curve" smooth="yes"/>
      <point x="324" y="438"/>
      <point x="328" y="438"/>
    </contour>
  </outline>
</glyph>
<glyph name="parenleft" format="1">
  <advance width="600"/>
  <unicode hex="0028"/>
  <outline>
    <contour>
      <point x="408" y="754" type="curve" smooth="yes"/>
      <point x="291" y="638"/>
      <point x="225" y="482"/>
      <point x="225" y="301" type="curve" smooth="yes"/>
      <point x="225" y="297" type="line" smooth="yes"/>
      <point x="225" y="116"/>
      <point x="291" y="-40"/>
      <point x="408" y="-156" type="curve" smooth="yes"/>
      <point x="419" y="-167"/>
      <point x="428" y="-172"/>
      <point x="441" y="-172" type="curve" smooth="yes"/>
      <point x="460" y="-172"/>
      <point x="473" y="-166"/>
      <point x="484" y="-160" type="curve"/>
      <point x="484" y="-156" type="line"/>
      <point x="348" y="-28"/>
      <point x="286" y="122"/>
      <point x="286" y="297" type="curve" smooth="yes"/>
      <point x="286" y="301" type="line" smooth="yes"/>
      <point x="286" y="475"/>
      <point x="348" y="626"/>
      <point x="484" y="754" type="curve"/>
      <point x="484" y="758" type="line"/>
      <point x="473" y="764"/>
      <point x="460" y="770"/>
      <point x="441" y="770" type="curve" smooth="yes"/>
      <point x="428" y="770"/>
      <point x="419" y="765"/>
    </contour>
  </outline>
</glyph>
<glyph name="parenright" format="1">
  <advance width="600"/>
  <unicode hex="0029"/>
  <outline>
    <contour>
      <point x="192" y="-156" type="curve" smooth="yes"/>
      <point x="309" y="-40"/>
      <point x="375" y="116"/>
      <point x="375" y="297" type="curve" smooth="yes"/>
      <point x="375" y="301" type="line" smooth="yes"/>
      <point x="375" y="482"/>
      <point x="309" y="638"/>
      <point x="192" y="754" type="curve" smooth="yes"/>
      <point x="181" y="765"/>
      <point x="172" y="770"/>
      <point x="159" y="770" type="curve" smooth="yes"/>
      <point x="140" y="770"/>
      <point x="127" y="764"/>
      <point x="116" y="758" type="curve"/>
      <point x="116" y="754" type="line"/>
      <point x="252" y="626"/>
      <point x="314" y="476"/>
      <point x="314" y="301" type="curve" smooth="yes"/>
      <point x="314" y="297" type="line" smooth="yes"/>
      <point x="314" y="123"/>
      <point x="252" y="-28"/>
      <point x="116" y="-156" type="curve"/>
      <point x="116" y="-160" type="line"/>
      <point x="127" y="-166"/>
      <point x="140" y="-172"/>
      <point x="159" y="-172" type="curve" smooth="yes"/>
      <point x="172" y="-172"/>
      <point x="181" y="-167"/>
    </contour>
  </outline>
</glyph>
<glyph name="asterisk" format="1">
  <advance width="600"/>
  <unicode hex="002A"/>
  <outline>
    <contour>
      <point x="263" y="571" type="curve"/>
      <point x="269" y="554"/>
      <point x="273" y="539"/>
      <point x="273" y="516" type="curve" smooth="yes"/>
      <point x="283" y="309" type="line"/>
      <point x="267" y="106" type="line" smooth="yes"/>
      <point x="263" y="65"/>
      <point x="273" y="44"/>
      <point x="313" y="44" type="curve"/>
      <point x="322" y="44"/>
      <point x="331" y="45"/>
      <point x="341" y="48" type="curve"/>
      <point x="335" y="65"/>
      <point x="332" y="80"/>
      <point x="330" y="102" type="curve" smooth="yes"/>
      <point x="320" y="309" type="line"/>
      <point x="337" y="512" type="line" smooth="yes"/>
      <point x="340" y="554"/>
      <point x="331" y="576"/>
      <point x="291" y="576" type="curve" smooth="yes"/>
      <point x="282" y="575"/>
      <point x="274" y="573"/>
    </contour>
    <contour>
      <point x="513" y="471" type="curve"/>
      <point x="290" y="326" type="line"/>
      <point x="83" y="224" type="line" smooth="yes"/>
      <point x="65" y="215"/>
      <point x="61" y="192"/>
      <point x="75" y="171" type="curve"/>
      <point x="80" y="161"/>
      <point x="86" y="156"/>
      <point x="92" y="150" type="curve"/>
      <point x="314" y="295" type="line"/>
      <point x="521" y="398" type="line" smooth="yes"/>
      <point x="539" y="407"/>
      <point x="541" y="426"/>
      <point x="529" y="449" type="curve" smooth="yes"/>
      <point x="526" y="457"/>
      <point x="521" y="464"/>
    </contour>
    <contour>
      <point x="546" y="210" type="curve"/>
      <point x="314" y="326" type="line"/>
      <point x="117" y="453" type="line" smooth="yes"/>
      <point x="99" y="466"/>
      <point x="80" y="460"/>
      <point x="67" y="437" type="curve"/>
      <point x="62" y="430"/>
      <point x="60" y="421"/>
      <point x="57" y="413" type="curve"/>
      <point x="289" y="294" type="line"/>
      <point x="486" y="165" type="line" smooth="yes"/>
      <point x="504" y="154"/>
      <point x="522" y="161"/>
      <point x="536" y="184" type="curve"/>
      <point x="541" y="194"/>
      <point x="543" y="201"/>
    </contour>
  </outline>
</glyph>
<glyph name="plus" format="1">
  <advance width="600"/>
  <unicode hex="002B"/>
  <outline>
    <contour>
      <point x="59" y="328" type="line"/>
      <point x="59" y="325"/>
      <point x="59" y="320"/>
      <point x="59" y="317" type="curve" smooth="yes"/>
      <point x="59" y="299"/>
      <point x="63" y="287"/>
      <point x="71" y="278" type="curve" smooth="yes"/>
      <point x="75" y="274"/>
      <point x="80" y="272"/>
      <point x="87" y="272" type="curve"/>
      <point x="541" y="272" type="line"/>
      <point x="541" y="276"/>
      <point x="541" y="281"/>
      <point x="541" y="285" type="curve" smooth="yes"/>
      <point x="541" y="310"/>
      <point x="535" y="328"/>
      <point x="515" y="328" type="curve"/>
    </contour>
    <contour>
      <point x="328" y="60" type="curve"/>
      <point x="328" y="465" type="line" smooth="yes"/>
      <point x="328" y="494"/>
      <point x="326" y="515"/>
      <point x="313" y="528" type="curve" smooth="yes"/>
      <point x="302" y="538"/>
      <point x="290" y="541"/>
      <point x="279" y="541" type="curve" smooth="yes"/>
      <point x="273" y="541"/>
      <point x="267" y="540"/>
      <point x="261" y="537" type="curve"/>
      <point x="270" y="510"/>
      <point x="272" y="496"/>
      <point x="272" y="449" type="curve" smooth="yes"/>
      <point x="272" y="85" type="line" smooth="yes"/>
      <point x="272" y="65"/>
      <point x="291" y="59"/>
      <point x="315" y="59" type="curve" smooth="yes"/>
      <point x="319" y="59"/>
      <point x="324" y="60"/>
    </contour>
  </outline>
</glyph>
<glyph name="period" format="1">
  <advance width="600"/>
  <unicode hex="002E"/>
  <outline>
    <contour>
      <point x="364" y="8" type="curve"/>
      <point x="364" y="74" type="line" smooth="yes"/>
      <point x="364" y="109"/>
      <point x="339" y="129"/>
      <point x="288" y="129" type="curve" smooth="yes"/>
      <point x="266" y="129"/>
      <point x="249" y="125"/>
      <point x="236" y="116" type="curve"/>
      <point x="236" y="51" type="line" smooth="yes"/>
      <point x="236" y="15"/>
      <point x="261" y="-5"/>
      <point x="312" y="-5" type="curve" smooth="yes"/>
      <point x="334" y="-5"/>
      <point x="351" y="0"/>
    </contour>
  </outline>
</glyph>
<glyph name="one" format="1">
  <advance width="600"/>
  <unicode hex="0031"/>
  <outline>
    <contour>
      <point x="363" y="28" type="curve"/>
      <point x="363" y="248"/>
      <point x="363" y="468"/>
      <point x="363" y="686" type="curve" smooth="yes"/>
      <point x="363" y="705"/>
      <point x="343" y="710"/>
      <point x="318" y="710" type="curve" smooth="yes"/>
      <point x="307" y="710" type="line"/>
      <point x="307" y="510"/>
      <point x="307" y="306"/>
      <point x="307" y="105" type="curve" smooth="yes"/>
      <point x="307" y="53"/>
      <point x="323" y="28"/>
    </contour>
    <contour>
      <point x="79" y="55" type="line"/>
      <point x="77" y="51"/>
      <point x="76" y="46"/>
      <point x="76" y="39" type="curve" smooth="yes"/>
      <point x="76" y="26"/>
      <point x="79" y="15"/>
      <point x="86" y="8" type="curve" smooth="yes"/>
      <point x="92" y="2"/>
      <point x="98" y="0"/>
      <point x="110" y="0" type="curve" smooth="yes"/>
      <point x="554" y="0" type="line"/>
      <point x="554" y="3"/>
      <point x="554" y="7"/>
      <point x="554" y="10" type="curve" smooth="yes"/>
      <point x="554" y="35"/>
      <point x="471" y="55"/>
      <point x="352" y="55" type="curve" smooth="yes"/>
    </contour>
    <contour>
      <point x="117" y="472" type="curve" smooth="yes"/>
      <point x="141" y="472"/>
      <point x="206" y="518"/>
      <point x="247" y="560" type="curve" smooth="yes"/>
      <point x="286" y="598"/>
      <point x="323" y="657"/>
      <point x="323" y="684" type="curve" smooth="yes"/>
      <point x="323" y="699"/>
      <point x="319" y="710"/>
      <point x="310" y="710" type="curve"/>
      <point x="294" y="710" type="line"/>
      <point x="273" y="675"/>
      <point x="252" y="644"/>
      <point x="219" y="611" type="curve"/>
      <point x="177" y="569"/>
      <point x="138" y="542"/>
      <point x="97" y="523" type="curve"/>
      <point x="97" y="517" type="line" smooth="yes"/>
      <point x="97" y="482"/>
      <point x="108" y="472"/>
    </contour>
  </outline>
</glyph>
<glyph name="two" format="1">
  <advance width="600"/>
  <unicode hex="0032"/>
  <outline>
    <contour>
      <point x="397" y="666" type="curve"/>
      <point x="431" y="625"/>
      <point x="455" y="591"/>
      <point x="455" y="535" type="curve" smooth="yes"/>
      <point x="455" y="448"/>
      <point x="406" y="371"/>
      <point x="286" y="298" type="curve" smooth="yes"/>
      <point x="176" y="230"/>
      <point x="74" y="149"/>
      <point x="74" y="44" type="curve" smooth="yes"/>
      <point x="74" y="33"/>
      <point x="85" y="29"/>
      <point x="127" y="29" type="curve"/>
      <point x="127" y="112"/>
      <point x="170" y="162"/>
      <point x="319" y="254" type="curve" smooth="yes"/>
      <point x="430" y="323"/>
      <point x="511" y="420"/>
      <point x="511" y="527" type="curve" smooth="yes"/>
      <point x="511" y="534" type="line" smooth="yes"/>
      <point x="511" y="601"/>
      <point x="451" y="683"/>
    </contour>
    <contour>
      <point x="526" y="0" type="line"/>
      <point x="526" y="4"/>
      <point x="526" y="9"/>
      <point x="526" y="13" type="curve" smooth="yes"/>
      <point x="526" y="37"/>
      <point x="521" y="55"/>
      <point x="501" y="55" type="curve" smooth="yes"/>
      <point x="130" y="55" type="line" smooth="yes"/>
      <point x="110" y="55"/>
      <point x="92" y="53"/>
      <point x="74" y="44" type="curve"/>
      <point x="74" y="42"/>
      <point x="74" y="41"/>
      <point x="74" y="40" type="curve" smooth="yes"/>
      <point x="74" y="24"/>
      <point x="84" y="0"/>
      <point x="99" y="0" type="curve" smooth="yes"/>
    </contour>
    <contour>
      <point x="305" y="720" type="curve" smooth="yes"/>
      <point x="233" y="720"/>
      <point x="181" y="696"/>
      <point x="144" y="660" type="curve" smooth="yes"/>
      <point x="112" y="629"/>
      <point x="92" y="588"/>
      <point x="92" y="550" type="curve" smooth="yes"/>
      <point x="92" y="531"/>
      <point x="105" y="514"/>
      <point x="120" y="505" type="curve"/>
      <point x="124" y="505" type="line"/>
      <point x="145" y="612"/>
      <point x="209" y="665"/>
      <point x="305" y="665" type="curve" smooth="yes"/>
      <point x="413" y="665"/>
      <point x="468" y="609"/>
      <point x="468" y="538" type="curve" smooth="yes"/>
      <point x="468" y="518"/>
      <point x="466" y="501"/>
      <point x="461" y="481" type="curve"/>
      <point x="485" y="481"/>
      <point x="511" y="511"/>
      <point x="511" y="534" type="curve" smooth="yes"/>
      <point x="511" y="643"/>
      <point x="426" y="720"/>
    </contour>
  </outline>
</glyph>
<glyph name="three" format="1">
  <advance width="600"/>
  <unicode hex="0033"/>
  <outline>
    <contour>
      <point x="299" y="664" type="curve" smooth="yes"/>
      <point x="419" y="664"/>
      <point x="471" y="599"/>
      <point x="471" y="510" type="curve" smooth="yes"/>
      <point x="471" y="500"/>
      <point x="470" y="490"/>
      <point x="467" y="477" type="curve"/>
      <point x="487" y="477"/>
      <point x="515" y="506"/>
      <point x="515" y="539" type="curve" smooth="yes"/>
      <point x="515" y="546" type="line" smooth="yes"/>
      <point x="515" y="649"/>
      <point x="431" y="719"/>
      <point x="300" y="719" type="curve" smooth="yes"/>
      <point x="213" y="719"/>
      <point x="147" y="688"/>
      <point x="114" y="655" type="curve" smooth="yes"/>
      <point x="92" y="634"/>
      <point x="86" y="621"/>
      <point x="86" y="600" type="curve" smooth="yes"/>
      <point x="86" y="586"/>
      <point x="87" y="575"/>
      <point x="92" y="562" type="curve"/>
      <point x="96" y="562" type="line"/>
      <point x="141" y="629"/>
      <point x="202" y="664"/>
    </contour>
    <contour>
      <point x="199" y="302" type="curve" smooth="yes"/>
      <point x="398" y="302"/>
      <point x="515" y="404"/>
      <point x="515" y="539" type="curve" smooth="yes"/>
      <point x="515" y="566"/>
      <point x="487" y="594"/>
      <point x="467" y="596" type="curve"/>
      <point x="470" y="581"/>
      <point x="470" y="569"/>
      <point x="470" y="548" type="curve" smooth="yes"/>
      <point x="470" y="420"/>
      <point x="347" y="344"/>
      <point x="176" y="344" type="curve"/>
      <point x="174" y="337"/>
      <point x="173" y="331"/>
      <point x="173" y="324" type="curve" smooth="yes"/>
      <point x="173" y="313"/>
      <point x="183" y="302"/>
    </contour>
    <contour>
      <point x="194" y="289" type="curve" smooth="yes"/>
      <point x="361" y="288"/>
      <point x="481" y="241"/>
      <point x="481" y="140" type="curve" smooth="yes"/>
      <point x="481" y="123"/>
      <point x="481" y="115"/>
      <point x="478" y="103" type="curve"/>
      <point x="501" y="108"/>
      <point x="525" y="134"/>
      <point x="525" y="160" type="curve" smooth="yes"/>
      <point x="525" y="266"/>
      <point x="415" y="334"/>
      <point x="175" y="334" type="curve"/>
      <point x="173" y="331"/>
      <point x="173" y="328"/>
      <point x="173" y="324" type="curve" smooth="yes"/>
      <point x="173" y="306"/>
      <point x="177" y="289"/>
    </contour>
    <contour>
      <point x="299" y="35" type="curve" smooth="yes"/>
      <point x="197" y="35"/>
      <point x="132" y="70"/>
      <point x="84" y="137" type="curve"/>
      <point x="80" y="137" type="line"/>
      <point x="77" y="126"/>
      <point x="76" y="114"/>
      <point x="76" y="99" type="curve" smooth="yes"/>
      <point x="76" y="80"/>
      <point x="79" y="64"/>
      <point x="96" y="46" type="curve" smooth="yes"/>
      <point x="138" y="5"/>
      <point x="208" y="-20"/>
      <point x="300" y="-20" type="curve" smooth="yes"/>
      <point x="437" y="-20"/>
      <point x="525" y="50"/>
      <point x="525" y="153" type="curve" smooth="yes"/>
      <point x="525" y="160" type="line" smooth="yes"/>
      <point x="525" y="193"/>
      <point x="501" y="212"/>
      <point x="484" y="214" type="curve"/>
      <point x="484" y="207"/>
      <point x="484" y="198"/>
      <point x="484" y="189" type="curve" smooth="yes"/>
      <point x="484" y="99"/>
      <point x="426" y="35"/>
    </contour>
  </outline>
</glyph>
<glyph name="four" format="1">
  <advance width="600"/>
  <unicode hex="0034"/>
  <outline>
    <contour>
      <point x="96" y="183" type="curve"/>
      <point x="140" y="349"/>
      <point x="327" y="601"/>
      <point x="469" y="696" type="curve"/>
      <point x="469" y="700" type="line"/>
      <point x="459" y="709"/>
      <point x="447" y="716"/>
      <point x="424" y="716" type="curve" smooth="yes"/>
      <point x="404" y="716"/>
      <point x="390" y="711"/>
      <point x="335" y="656" type="curve" smooth="yes"/>
      <point x="185" y="506"/>
      <point x="51" y="288"/>
      <point x="51" y="204" type="curve" smooth="yes"/>
      <point x="51" y="188"/>
      <point x="78" y="183"/>
    </contour>
    <contour>
      <point x="565" y="150" type="line"/>
      <point x="565" y="154"/>
      <point x="565" y="158"/>
      <point x="565" y="162" type="curve" smooth="yes"/>
      <point x="565" y="185"/>
      <point x="560" y="205"/>
      <point x="541" y="205" type="curve" smooth="yes"/>
      <point x="293" y="205" type="line"/>
      <point x="215" y="205"/>
      <point x="131" y="205"/>
      <point x="51" y="204" type="curve"/>
      <point x="51" y="199" type="line" smooth="yes"/>
      <point x="51" y="181"/>
      <point x="58" y="164"/>
      <point x="66" y="155" type="curve" smooth="yes"/>
      <point x="70" y="152"/>
      <point x="74" y="150"/>
      <point x="80" y="150" type="curve" smooth="yes"/>
    </contour>
    <contour>
      <point x="484" y="-6" type="curve"/>
      <point x="475" y="28"/>
      <point x="472" y="51"/>
      <point x="472" y="100" type="curve" smooth="yes"/>
      <point x="472" y="350" type="line" smooth="yes"/>
      <point x="472" y="359"/>
      <point x="459" y="376"/>
      <point x="429" y="376" type="curve" smooth="yes"/>
      <point x="419" y="376" type="line"/>
      <point x="417" y="313"/>
      <point x="416" y="249"/>
      <point x="416" y="186" type="curve"/>
      <point x="416" y="59" type="line" smooth="yes"/>
      <point x="416" y="1"/>
      <point x="436" y="-10"/>
      <point x="462" y="-10" type="curve" smooth="yes"/>
      <point x="470" y="-10"/>
      <point x="478" y="-9"/>
    </contour>
  </outline>
</glyph>
<glyph name="seven" format="1">
  <advance width="600"/>
  <unicode hex="0037"/>
  <outline>
    <contour>
      <point x="470" y="645" type="line" smooth="yes"/>
      <point x="493" y="645"/>
      <point x="509" y="645"/>
      <point x="523" y="645" type="curve"/>
      <point x="523" y="655" type="line"/>
      <point x="523" y="678"/>
      <point x="517" y="700"/>
      <point x="498" y="700" type="curve"/>
      <point x="100" y="700" type="line"/>
      <point x="100" y="691" type="line" smooth="yes"/>
      <point x="100" y="658"/>
      <point x="107" y="645"/>
      <point x="125" y="645" type="curve" smooth="yes"/>
    </contour>
    <contour>
      <point x="303" y="-10" type="line"/>
      <point x="303" y="213"/>
      <point x="523" y="480"/>
      <point x="523" y="645" type="curve" smooth="yes"/>
      <point x="523" y="663"/>
      <point x="499" y="663"/>
      <point x="467" y="662" type="curve"/>
      <point x="467" y="494"/>
      <point x="247" y="218"/>
      <point x="247" y="16" type="curve" smooth="yes"/>
      <point x="247" y="-3"/>
      <point x="268" y="-10"/>
      <point x="292" y="-10" type="curve" smooth="yes"/>
    </contour>
    <contour>
      <point x="131" y="478" type="curve"/>
      <point x="131" y="588"/>
      <point x="152" y="687"/>
      <point x="152" y="695" type="curve"/>
      <point x="152" y="714"/>
      <point x="132" y="720"/>
      <point x="109" y="720" type="curve" smooth="yes"/>
      <point x="99" y="720" type="line"/>
      <point x="83" y="649"/>
      <point x="75" y="574"/>
      <point x="75" y="503" type="curve"/>
      <point x="75" y="483"/>
      <point x="94" y="478"/>
      <point x="118" y="478" type="curve" smooth="yes"/>
      <point x="122" y="478"/>
      <point x="127" y="478"/>
    </contour>
  </outline>
</glyph>
<glyph name="nine" format="1">
  <advance width="600"/>
  <unicode hex="0039"/>
  <outline>
    <contour>
      <point x="455" y="586" type="curve"/>
      <point x="483" y="648"/>
      <point x="382" y="720"/>
      <point x="291" y="720" type="curve"/>
      <point x="160" y="720"/>
      <point x="72" y="623"/>
      <point x="72" y="464" type="curve" smooth="yes"/>
      <point x="72" y="459" type="line" smooth="yes"/>
      <point x="72" y="356"/>
      <point x="133" y="272"/>
      <point x="187" y="290" type="curve"/>
      <point x="139" y="340"/>
      <point x="127" y="388"/>
      <point x="127" y="456" type="curve" smooth="yes"/>
      <point x="127" y="462" type="line" smooth="yes"/>
      <point x="127" y="588"/>
      <point x="194" y="667"/>
      <point x="299" y="667" type="curve" smooth="yes"/>
      <point x="364" y="667"/>
      <point x="399" y="648"/>
    </contour>
    <contour>
      <point x="439" y="121" type="curve"/>
      <point x="389" y="61"/>
      <point x="336" y="35"/>
      <point x="258" y="35" type="curve" smooth="yes"/>
      <point x="188" y="35"/>
      <point x="143" y="52"/>
      <point x="107" y="87" type="curve"/>
      <point x="103" y="87" type="line"/>
      <point x="100" y="79"/>
      <point x="99" y="73"/>
      <point x="99" y="62" type="curve" smooth="yes"/>
      <point x="99" y="43"/>
      <point x="104" y="28"/>
      <point x="112" y="20" type="curve" smooth="yes"/>
      <point x="135" y="-4"/>
      <point x="187" y="-20"/>
      <point x="256" y="-20" type="curve" smooth="yes"/>
      <point x="349" y="-20"/>
      <point x="462" y="66"/>
    </contour>
    <contour>
      <point x="527" y="366" type="curve" smooth="yes"/>
      <point x="527" y="375" type="line" smooth="yes"/>
      <point x="527" y="611"/>
      <point x="451" y="720"/>
      <point x="291" y="720" type="curve" smooth="yes"/>
      <point x="278" y="720"/>
      <point x="262" y="705"/>
      <point x="262" y="688" type="curve"/>
      <point x="408" y="687"/>
      <point x="472" y="591"/>
      <point x="472" y="374" type="curve" smooth="yes"/>
      <point x="472" y="365" type="line" smooth="yes"/>
      <point x="472" y="133"/>
      <point x="392" y="14"/>
      <point x="235" y="10" type="curve"/>
      <point x="235" y="-5"/>
      <point x="245" y="-20"/>
      <point x="256" y="-20" type="curve" smooth="yes"/>
      <point x="435" y="-20"/>
      <point x="527" y="110"/>
    </contour>
    <contour>
      <point x="285" y="230" type="curve" smooth="yes"/>
      <point x="355" y="230"/>
      <point x="441" y="259"/>
      <point x="479" y="296" type="curve" smooth="yes"/>
      <point x="487" y="304"/>
      <point x="491" y="324"/>
      <point x="491" y="354" type="curve"/>
      <point x="436" y="308"/>
      <point x="365" y="284"/>
      <point x="287" y="284" type="curve" smooth="yes"/>
      <point x="173" y="284"/>
      <point x="105" y="354"/>
      <point x="105" y="474" type="curve" smooth="yes"/>
      <point x="105" y="497"/>
      <point x="107" y="513"/>
      <point x="113" y="531" type="curve"/>
      <point x="90" y="531"/>
      <point x="72" y="495"/>
      <point x="72" y="459" type="curve" smooth="yes"/>
      <point x="72" y="313"/>
      <point x="151" y="230"/>
    </contour>
  </outline>
</glyph>
<glyph name="colon" format="1">
  <advance width="600"/>
  <unicode hex="003A"/>
  <outline>
    <contour>
      <point x="364" y="412" type="curve"/>
      <point x="364" y="477" type="line" smooth="yes"/>
      <point x="364" y="513"/>
      <point x="339" y="533"/>
      <point x="288" y="533" type="curve" smooth="yes"/>
      <point x="266" y="533"/>
      <point x="249" y="528"/>
      <point x="236" y="520" type="curve"/>
      <point x="236" y="454" type="line" smooth="yes"/>
      <point x="236" y="419"/>
      <point x="261" y="398"/>
      <point x="312" y="398" type="curve" smooth="yes"/>
      <point x="334" y="398"/>
      <point x="351" y="403"/>
    </contour>
    <contour>
      <point x="364" y="8" type="curve"/>
      <point x="364" y="74" type="line" smooth="yes"/>
      <point x="364" y="109"/>
      <point x="339" y="129"/>
      <point x="288" y="129" type="curve" smooth="yes"/>
      <point x="266" y="129"/>
      <point x="249" y="125"/>
      <point x="236" y="116" type="curve"/>
      <point x="236" y="51" type="line" smooth="yes"/>
      <point x="236" y="15"/>
      <point x="261" y="-5"/>
      <point x="312" y="-5" type="curve" smooth="yes"/>
      <point x="334" y="-5"/>
      <point x="351" y="0"/>
    </contour>
  </outline>
</glyph>
<glyph name="semicolon" format="1">
  <advance width="600"/>
  <unicode hex="003B"/>
  <outline>
    <contour>
      <point x="364" y="411" type="curve"/>
      <point x="364" y="476" type="line" smooth="yes"/>
      <point x="364" y="512"/>
      <point x="339" y="532"/>
      <point x="288" y="532" type="curve" smooth="yes"/>
      <point x="266" y="532"/>
      <point x="249" y="527"/>
      <point x="236" y="518" type="curve"/>
      <point x="236" y="453" type="line" smooth="yes"/>
      <point x="236" y="418"/>
      <point x="261" y="397"/>
      <point x="312" y="397" type="curve" smooth="yes"/>
      <point x="334" y="397"/>
      <point x="351" y="402"/>
    </contour>
    <contour>
      <point x="243" y="-191" type="curve" smooth="yes"/>
      <point x="255" y="-191"/>
      <point x="260" y="-188"/>
      <point x="266" y="-182" type="curve"/>
      <point x="316" y="-133"/>
      <point x="364" y="-36"/>
      <point x="364" y="97" type="curve"/>
      <point x="364" y="126"/>
      <point x="339" y="134"/>
      <point x="315" y="134" type="curve" smooth="yes"/>
      <point x="299" y="134"/>
      <point x="288" y="132"/>
      <point x="278" y="127" type="curve"/>
      <point x="278" y="-23"/>
      <point x="261" y="-83"/>
      <point x="201" y="-178" type="curve"/>
      <point x="215" y="-187"/>
      <point x="225" y="-191"/>
    </contour>
  </outline>
</glyph>
<glyph name="greater" format="1">
  <advance width="600"/>
  <unicode hex="003E"/>
  <outline>
    <contour>
      <point x="77" y="92" type="curve"/>
      <point x="77" y="81" type="line"/>
      <point x="77" y="54"/>
      <point x="89" y="40"/>
      <point x="102" y="40" type="curve" smooth="yes"/>
      <point x="115" y="40"/>
      <point x="148" y="48"/>
      <point x="195" y="64" type="curve" smooth="yes"/>
      <point x="346" y="117"/>
      <point x="443" y="181"/>
      <point x="530" y="275" type="curve"/>
      <point x="530" y="305" type="line"/>
      <point x="530" y="316"/>
      <point x="513" y="326"/>
      <point x="493" y="312" type="curve"/>
      <point x="368" y="195"/>
      <point x="294" y="145"/>
    </contour>
    <contour>
      <point x="81" y="565" type="curve"/>
      <point x="79" y="558"/>
      <point x="78" y="552"/>
      <point x="78" y="544" type="curve" smooth="yes"/>
      <point x="78" y="525"/>
      <point x="84" y="508"/>
      <point x="98" y="504" type="curve" smooth="yes"/>
      <point x="293" y="450"/>
      <point x="358" y="408"/>
      <point x="485" y="296" type="curve" smooth="yes"/>
      <point x="492" y="289"/>
      <point x="495" y="283"/>
      <point x="495" y="277" type="curve" smooth="yes"/>
      <point x="495" y="274"/>
      <point x="495" y="267"/>
      <point x="495" y="258" type="curve"/>
      <point x="518" y="270"/>
      <point x="530" y="283"/>
      <point x="530" y="301" type="curve" smooth="yes"/>
      <point x="530" y="311" type="line" smooth="yes"/>
      <point x="530" y="330"/>
      <point x="521" y="341"/>
      <point x="499" y="358" type="curve" smooth="yes"/>
      <point x="389" y="449"/>
      <point x="301" y="515"/>
    </contour>
  </outline>
</glyph>
<glyph name="at" format="1">
  <advance width="600"/>
  <unicode hex="0040"/>
  <outline>
    <contour>
      <point x="489" y="512" type="curve" smooth="yes"/>
      <point x="474" y="527"/>
      <point x="444" y="537"/>
      <point x="395" y="537" type="curve" smooth="yes"/>
      <point x="363" y="537"/>
      <point x="333" y="526"/>
      <point x="309" y="503" type="curve" smooth="yes"/>
      <point x="296" y="489"/>
      <point x="295" y="462"/>
      <point x="306" y="450" type="curve"/>
      <point x="339" y="475"/>
      <point x="364" y="486"/>
      <point x="398" y="486" type="curve" smooth="yes"/>
      <point x="441" y="486"/>
      <point x="461" y="480"/>
      <point x="488" y="459" type="curve"/>
      <point x="500" y="489"/>
      <point x="496" y="505"/>
    </contour>
    <contour>
      <point x="495" y="149" type="curve"/>
      <point x="454" y="91"/>
      <point x="402" y="64"/>
      <point x="363" y="64" type="curve" smooth="yes"/>
      <point x="317" y="64"/>
      <point x="291" y="92"/>
      <point x="291" y="188" type="curve" smooth="yes"/>
      <point x="291" y="193" type="line" smooth="yes"/>
      <point x="291" y="368"/>
      <point x="302" y="421"/>
      <point x="362" y="502" type="curve"/>
      <point x="341" y="510"/>
      <point x="315" y="508"/>
      <point x="309" y="503" type="curve" smooth="yes"/>
      <point x="258" y="452"/>
      <point x="235" y="353"/>
      <point x="235" y="194" type="curve" smooth="yes"/>
      <point x="235" y="188" type="line" smooth="yes"/>
      <point x="235" y="71"/>
      <point x="277" y="10"/>
      <point x="359" y="10" type="curve" smooth="yes"/>
      <point x="396" y="10"/>
      <point x="434" y="22"/>
      <point x="489" y="77" type="curve" smooth="yes"/>
      <point x="501" y="90"/>
      <point x="504" y="119"/>
    </contour>
    <contour>
      <point x="539" y="17" type="line"/>
      <point x="529" y="47"/>
      <point x="528" y="59"/>
      <point x="528" y="105" type="curve"/>
      <point x="528" y="516" type="line" smooth="yes"/>
      <point x="528" y="687"/>
      <point x="470" y="760"/>
      <point x="346" y="760" type="curve" smooth="yes"/>
      <point x="325" y="760"/>
      <point x="326" y="741"/>
      <point x="326" y="726" type="curve"/>
      <point x="453" y="711"/>
      <point x="474" y="662"/>
      <point x="474" y="505" type="curve" smooth="yes"/>
      <point x="474" y="67" type="line" smooth="yes"/>
      <point x="474" y="32"/>
      <point x="498" y="17"/>
      <point x="532" y="17" type="curve" smooth="yes"/>
    </contour>
    <contour>
      <point x="61" y="195" type="curve" smooth="yes"/>
      <point x="61" y="189" type="line" smooth="yes"/>
      <point x="61" y="43"/>
      <point x="82" y="-68"/>
      <point x="144" y="-130" type="curve" smooth="yes"/>
      <point x="171" y="-157"/>
      <point x="192" y="-150"/>
      <point x="211" y="-132" type="curve"/>
      <point x="122" y="-35"/>
      <point x="114" y="25"/>
      <point x="114" y="183" type="curve" smooth="yes"/>
      <point x="114" y="192" type="line" smooth="yes"/>
      <point x="114" y="529"/>
      <point x="215" y="707"/>
      <point x="343" y="707" type="curve" smooth="yes"/>
      <point x="393" y="707"/>
      <point x="427" y="694"/>
      <point x="463" y="662" type="curve"/>
      <point x="472" y="670"/>
      <point x="474" y="677"/>
      <point x="474" y="686" type="curve" smooth="yes"/>
      <point x="474" y="717"/>
      <point x="406" y="760"/>
      <point x="346" y="760" type="curve" smooth="yes"/>
      <point x="161" y="760"/>
      <point x="61" y="538"/>
    </contour>
    <contour>
      <point x="326" y="-190" type="curve" smooth="yes"/>
      <point x="388" y="-190"/>
      <point x="447" y="-179"/>
      <point x="463" y="-163" type="curve" smooth="yes"/>
      <point x="473" y="-153"/>
      <point x="478" y="-136"/>
      <point x="478" y="-117" type="curve" smooth="yes"/>
      <point x="478" y="-109" type="line"/>
      <point x="474" y="-109" type="line"/>
      <point x="428" y="-131"/>
      <point x="386" y="-137"/>
      <point x="328" y="-137" type="curve" smooth="yes"/>
      <point x="248" y="-137"/>
      <point x="185" y="-116"/>
      <point x="133" y="-54" type="curve"/>
      <point x="124" y="-76"/>
      <point x="127" y="-113"/>
      <point x="144" y="-130" type="curve"/>
      <point x="186" y="-172"/>
      <point x="244" y="-190"/>
    </contour>
  </outline>
</glyph>
<glyph name="A" format="1">
  <advance width="600"/>
  <unicode hex="0041"/>
  <outline>
    <contour>
      <point x="125" y="-7" type="curve"/>
      <point x="126" y="280"/>
      <point x="190" y="501"/>
      <point x="305" y="662" type="curve"/>
      <point x="318" y="681"/>
      <point x="303" y="710"/>
      <point x="288" y="710" type="curve"/>
      <point x="268" y="710" type="line"/>
      <point x="135" y="520"/>
      <point x="69" y="296"/>
      <point x="69" y="15" type="curve"/>
      <point x="69" y="-4"/>
      <point x="89" y="-10"/>
      <point x="104" y="-10" type="curve" smooth="yes"/>
      <point x="115" y="-10"/>
      <point x="119" y="-9"/>
    </contour>
    <contour>
      <point x="531" y="-7" type="curve"/>
      <point x="531" y="260"/>
      <point x="453" y="506"/>
      <point x="376" y="638" type="curve"/>
      <point x="354" y="675"/>
      <point x="339" y="691"/>
      <point x="330" y="700" type="curve" smooth="yes"/>
      <point x="324" y="706"/>
      <point x="309" y="710"/>
      <point x="288" y="710" type="curve"/>
      <point x="276" y="710"/>
      <point x="265" y="691"/>
      <point x="265" y="677" type="curve"/>
      <point x="271" y="677"/>
      <point x="275" y="677"/>
      <point x="278" y="677" type="curve" smooth="yes"/>
      <point x="284" y="677"/>
      <point x="285" y="680"/>
      <point x="310" y="641" type="curve"/>
      <point x="409" y="487"/>
      <point x="474" y="221"/>
      <point x="475" y="18" type="curve"/>
      <point x="475" y="10"/>
      <point x="477" y="6"/>
      <point x="481" y="1" type="curve" smooth="yes"/>
      <point x="489" y="-7"/>
      <point x="502" y="-10"/>
      <point x="514" y="-10" type="curve" smooth="yes"/>
      <point x="520" y="-10"/>
      <point x="526" y="-9"/>
    </contour>
    <contour>
      <point x="49" y="271" type="line"/>
      <point x="49" y="260" type="line" smooth="yes"/>
      <point x="49" y="243"/>
      <point x="52" y="230"/>
      <point x="61" y="221" type="curve" smooth="yes"/>
      <point x="64" y="218"/>
      <point x="68" y="216"/>
      <point x="73" y="216" type="curve"/>
      <point x="468" y="216" type="line"/>
      <point x="468" y="256"/>
      <point x="442" y="271"/>
      <point x="391" y="271" type="curve" smooth="yes"/>
    </contour>
    <contour>
      <point x="300" y="710" type="move" name="top"/>
    </contour>
    <contour>
      <point x="532" y="-7" type="move" name="ogonek"/>
    </contour>
    <contour>
      <point x="298" y="701" type="move" name="ring"/>
    </contour>
    <contour>
      <point x="299" y="-1" type="move" name="bottom"/>
    </contour>
  </outline>
</glyph>
<glyph name="B" format="1">
  <advance width="600"/>
  <unicode hex="0042"/>
  <outline>
    <contour>
      <point x="155" y="17" type="curve"/>
      <point x="155" y="605" type="line" smooth="yes"/>
      <point x="155" y="658"/>
      <point x="138" y="680"/>
      <point x="99" y="680" type="curve"/>
      <point x="99" y="32" type="line"/>
      <point x="99" y="23"/>
      <point x="120" y="17"/>
    </contour>
    <contour>
      <point x="49" y="700" type="curve"/>
      <point x="48" y="696"/>
      <point x="48" y="692"/>
      <point x="48" y="687" type="curve" smooth="yes"/>
      <point x="48" y="669"/>
      <point x="52" y="658"/>
      <point x="60" y="650" type="curve" smooth="yes"/>
      <point x="64" y="646"/>
      <point x="70" y="645"/>
      <point x="74" y="645" type="curve" smooth="yes"/>
      <point x="82" y="645"/>
      <point x="91" y="646"/>
      <point x="103" y="648" type="curve" smooth="yes"/>
      <point x="156" y="657"/>
      <point x="235" y="665"/>
      <point x="290" y="665" type="curve" smooth="yes"/>
      <point x="376" y="665"/>
      <point x="422" y="652"/>
      <point x="472" y="605" type="curve"/>
      <point x="518" y="651"/>
      <point x="414" y="720"/>
      <point x="309" y="720" type="curve" smooth="yes"/>
      <point x="229" y="720"/>
      <point x="153" y="717"/>
    </contour>
    <contour>
      <point x="526" y="505" type="curve" smooth="yes"/>
      <point x="526" y="537" type="line" smooth="yes"/>
      <point x="526" y="641"/>
      <point x="453" y="720"/>
      <point x="309" y="720" type="curve" smooth="yes"/>
      <point x="303" y="720"/>
      <point x="296" y="709"/>
      <point x="296" y="695" type="curve"/>
      <point x="403" y="695"/>
      <point x="470" y="614"/>
      <point x="470" y="527" type="curve" smooth="yes"/>
      <point x="470" y="504" type="line" smooth="yes"/>
      <point x="470" y="398"/>
      <point x="371" y="338"/>
      <point x="204" y="338" type="curve" smooth="yes"/>
      <point x="175" y="338"/>
      <point x="159" y="341"/>
      <point x="141" y="350" type="curve"/>
      <point x="137" y="348"/>
      <point x="134" y="342"/>
      <point x="134" y="335" type="curve" smooth="yes"/>
      <point x="134" y="309"/>
      <point x="172" y="284"/>
      <point x="197" y="284" type="curve" smooth="yes"/>
      <point x="209" y="284" type="line" smooth="yes"/>
      <point x="381" y="284"/>
      <point x="526" y="355"/>
    </contour>
    <contour>
      <point x="524" y="181" type="curve" smooth="yes"/>
      <point x="524" y="215" type="line" smooth="yes"/>
      <point x="524" y="290"/>
      <point x="453" y="353"/>
      <point x="400" y="353" type="curve" smooth="yes"/>
      <point x="395" y="353" type="line" smooth="yes"/>
      <point x="377" y="353"/>
      <point x="352" y="338"/>
      <point x="352" y="328" type="curve"/>
      <point x="352" y="325" type="line"/>
      <point x="357" y="325" type="line"/>
      <point x="415" y="325"/>
      <point x="469" y="266"/>
      <point x="469" y="209" type="curve" smooth="yes"/>
      <point x="469" y="187" type="line" smooth="yes"/>
      <point x="469" y="93"/>
      <point x="372" y="45"/>
      <point x="275" y="45" type="curve" smooth="yes"/>
      <point x="170" y="45"/>
      <point x="143" y="55"/>
      <point x="115" y="76" type="curve"/>
      <point x="104" y="56"/>
      <point x="99" y="40"/>
      <point x="99" y="32" type="curve" smooth="yes"/>
      <point x="99" y="11"/>
      <point x="142" y="-10"/>
      <point x="274" y="-10" type="curve" smooth="yes"/>
      <point x="283" y="-10" type="line" smooth="yes"/>
      <point x="412" y="-10"/>
      <point x="524" y="61"/>
    </contour>
  </outline>
</glyph>
<glyph name="C" format="1">
  <advance width="600"/>
  <unicode hex="0043"/>
  <outline>
    <contour>
      <point x="379" y="665" type="curve" smooth="yes"/>
      <point x="448" y="665"/>
      <point x="495" y="627"/>
      <point x="496" y="555" type="curve"/>
      <point x="510" y="555"/>
      <point x="516" y="564"/>
      <point x="516" y="574" type="curve" smooth="yes"/>
      <point x="516" y="621"/>
      <point x="503" y="658"/>
      <point x="478" y="682" type="curve" smooth="yes"/>
      <point x="456" y="705"/>
      <point x="422" y="720"/>
      <point x="378" y="720" type="curve" smooth="yes"/>
      <point x="204" y="720"/>
      <point x="83" y="534"/>
      <point x="83" y="282" type="curve" smooth="yes"/>
      <point x="83" y="255" type="line" smooth="yes"/>
      <point x="83" y="212"/>
      <point x="121" y="145"/>
      <point x="146" y="148" type="curve"/>
      <point x="142" y="183"/>
      <point x="141" y="230"/>
      <point x="141" y="257" type="curve" smooth="yes"/>
      <point x="141" y="269" type="line" smooth="yes"/>
      <point x="141" y="499"/>
      <point x="248" y="665"/>
    </contour>
    <contour>
      <point x="327" y="-20" type="curve" smooth="yes"/>
      <point x="407" y="-20"/>
      <point x="466" y="2"/>
      <point x="506" y="42" type="curve" smooth="yes"/>
      <point x="525" y="61"/>
      <point x="531" y="77"/>
      <point x="531" y="104" type="curve" smooth="yes"/>
      <point x="531" y="115"/>
      <point x="529" y="128"/>
      <point x="526" y="139" type="curve"/>
      <point x="522" y="139" type="line"/>
      <point x="478" y="69"/>
      <point x="423" y="35"/>
      <point x="327" y="35" type="curve" smooth="yes"/>
      <point x="179" y="35"/>
      <point x="135" y="167"/>
      <point x="135" y="299" type="curve"/>
      <point x="102" y="299"/>
      <point x="83" y="286"/>
      <point x="83" y="255" type="curve" smooth="yes"/>
      <point x="83" y="107"/>
      <point x="169" y="-20"/>
    </contour>
    <contour>
      <point x="516" y="428" type="curve"/>
      <point x="516" y="574" type="line" smooth="yes"/>
      <point x="516" y="653"/>
      <point x="458" y="700"/>
      <point x="425" y="679" type="curve"/>
      <point x="455" y="640"/>
      <point x="460" y="610"/>
      <point x="460" y="574" type="curve" smooth="yes"/>
      <point x="460" y="453" type="line"/>
      <point x="460" y="445"/>
      <point x="462" y="440"/>
      <point x="468" y="434" type="curve" smooth="yes"/>
      <point x="474" y="428"/>
      <point x="486" y="425"/>
      <point x="499" y="425" type="curve"/>
      <point x="508" y="425"/>
      <point x="512" y="426"/>
    </contour>
    <contour>
      <point x="353" y="711" type="move" name="top"/>
    </contour>
    <contour>
      <point x="329" y="-10" type="move" name="bottom"/>
    </contour>
  </outline>
</glyph>
<glyph name="D" format="1">
  <advance width="600"/>
  <unicode hex="0044"/>
  <outline>
    <contour>
      <point x="155" y="20" type="curve"/>
      <point x="155" y="605" type="line" smooth="yes"/>
      <point x="155" y="658"/>
      <point x="138" y="680"/>
      <point x="99" y="680" type="curve"/>
      <point x="99" y="42" type="line" smooth="yes"/>
      <point x="99" y="31"/>
      <point x="120" y="20"/>
    </contour>
    <contour>
      <point x="49" y="700" type="curve"/>
      <point x="48" y="696"/>
      <point x="48" y="692"/>
      <point x="48" y="687" type="curve"/>
      <point x="48" y="669"/>
      <point x="52" y="658"/>
      <point x="60" y="650" type="curve" smooth="yes"/>
      <point x="64" y="646"/>
      <point x="70" y="645"/>
      <point x="74" y="645" type="curve" smooth="yes"/>
      <point x="82" y="645"/>
      <point x="91" y="646"/>
      <point x="103" y="648" type="curve" smooth="yes"/>
      <point x="153" y="657"/>
      <point x="226" y="665"/>
      <point x="278" y="665" type="curve" smooth="yes"/>
      <point x="361" y="665"/>
      <point x="404" y="644"/>
      <point x="458" y="593" type="curve"/>
      <point x="507" y="642"/>
      <point x="397" y="720"/>
      <point x="290" y="720" type="curve" smooth="yes"/>
      <point x="215" y="720"/>
      <point x="145" y="716"/>
    </contour>
    <contour>
      <point x="527" y="367" type="curve" smooth="yes"/>
      <point x="527" y="419" type="line" smooth="yes"/>
      <point x="527" y="605"/>
      <point x="463" y="720"/>
      <point x="290" y="720" type="curve"/>
      <point x="279" y="720"/>
      <point x="272" y="704"/>
      <point x="272" y="690" type="curve"/>
      <point x="427" y="687"/>
      <point x="471" y="596"/>
      <point x="471" y="408" type="curve" smooth="yes"/>
      <point x="471" y="376" type="line" smooth="yes"/>
      <point x="471" y="185"/>
      <point x="380" y="46"/>
      <point x="227" y="46" type="curve" smooth="yes"/>
      <point x="184" y="46"/>
      <point x="147" y="55"/>
      <point x="112" y="74" type="curve"/>
      <point x="103" y="66"/>
      <point x="99" y="57"/>
      <point x="99" y="42" type="curve" smooth="yes"/>
      <point x="99" y="13"/>
      <point x="145" y="-10"/>
      <point x="224" y="-10" type="curve" smooth="yes"/>
      <point x="229" y="-10" type="line" smooth="yes"/>
      <point x="407" y="-10"/>
      <point x="527" y="150"/>
    </contour>
    <contour>
      <point x="287" y="711" type="move" name="top"/>
    </contour>
  </outline>
</glyph>
<glyph name="E" format="1">
  <advance width="600"/>
  <unicode hex="0045"/>
  <outline>
    <contour>
      <point x="49" y="700" type="line"/>
      <point x="49" y="697"/>
      <point x="49" y="692"/>
      <point x="49" y="689" type="curve" smooth="yes"/>
      <point x="49" y="671"/>
      <point x="52" y="658"/>
      <point x="60" y="650" type="curve" smooth="yes"/>
      <point x="63" y="647"/>
      <point x="67" y="645"/>
      <point x="73" y="645" type="curve" smooth="yes"/>
      <point x="528" y="645" type="line"/>
      <point x="530" y="650"/>
      <point x="531" y="657"/>
      <point x="531" y="664" type="curve" smooth="yes"/>
      <point x="531" y="673"/>
      <point x="529" y="686"/>
      <point x="520" y="695" type="curve" smooth="yes"/>
      <point x="517" y="698"/>
      <point x="513" y="700"/>
      <point x="507" y="700" type="curve" smooth="yes"/>
    </contour>
    <contour>
      <point x="155" y="21" type="curve"/>
      <point x="155" y="595" type="line" smooth="yes"/>
      <point x="155" y="646"/>
      <point x="140" y="670"/>
      <point x="99" y="670" type="curve"/>
      <point x="99" y="46" type="line"/>
      <point x="99" y="27"/>
      <point x="120" y="21"/>
    </contour>
    <contour>
      <point x="99" y="55" type="line"/>
      <point x="99" y="45" type="line" smooth="yes"/>
      <point x="99" y="24"/>
      <point x="115" y="0"/>
      <point x="133" y="0" type="curve" smooth="yes"/>
      <point x="531" y="0" type="line"/>
      <point x="531" y="4"/>
      <point x="531" y="9"/>
      <point x="531" y="13" type="curve" smooth="yes"/>
      <point x="531" y="42"/>
      <point x="523" y="55"/>
      <point x="506" y="55" type="curve" smooth="yes"/>
    </contour>
    <contour>
      <point x="121" y="353" type="line"/>
      <point x="121" y="314"/>
      <point x="127" y="298"/>
      <point x="146" y="298" type="curve" smooth="yes"/>
      <point x="453" y="298" type="line"/>
      <point x="453" y="301"/>
      <point x="453" y="306"/>
      <point x="453" y="309" type="curve" smooth="yes"/>
      <point x="453" y="325"/>
      <point x="449" y="338"/>
      <point x="440" y="347" type="curve" smooth="yes"/>
      <point x="437" y="351"/>
      <point x="432" y="353"/>
      <point x="427" y="353" type="curve" smooth="yes"/>
    </contour>
    <contour>
      <point x="300" y="711" type="move" name="top"/>
    </contour>
    <contour>
      <point x="532" y="0" type="move" name="ogonek"/>
    </contour>
    <contour>
      <point x="325" y="-1" type="move" name="bottom"/>
    </contour>
  </outline>
</glyph>
<glyph name="F" format="1">
  <advance width="600"/>
  <unicode hex="0046"/>
  <outline>
    <contour>
      <point x="167" y="-7" type="curve"/>
      <point x="157" y="22"/>
      <point x="156" y="34"/>
      <point x="156" y="81" type="curve" smooth="yes"/>
      <point x="156" y="595" type="line"/>
      <point x="156" y="651"/>
      <point x="139" y="678"/>
      <point x="100" y="678" type="curve"/>
      <point x="100" y="41" type="line" smooth="yes"/>
      <point x="100" y="9"/>
      <point x="120" y="-7"/>
      <point x="160" y="-7" type="curve" smooth="yes"/>
      <point x="162" y="-7"/>
      <point x="164" y="-7"/>
    </contour>
    <contour>
      <point x="49" y="700" type="line"/>
      <point x="49" y="697"/>
      <point x="49" y="692"/>
      <point x="49" y="689" type="curve" smooth="yes"/>
      <point x="49" y="670"/>
      <point x="52" y="658"/>
      <point x="60" y="650" type="curve" smooth="yes"/>
      <point x="64" y="647"/>
      <point x="68" y="645"/>
      <point x="74" y="645" type="curve"/>
      <point x="528" y="645" type="line"/>
      <point x="530" y="650"/>
      <point x="531" y="657"/>
      <point x="531" y="664" type="curve" smooth="yes"/>
      <point x="531" y="674"/>
      <point x="529" y="686"/>
      <point x="520" y="695" type="curve" smooth="yes"/>
      <point x="517" y="698"/>
      <point x="513" y="700"/>
      <point x="507" y="700" type="curve"/>
    </contour>
    <contour>
      <point x="120" y="303" type="line"/>
      <point x="120" y="264"/>
      <point x="125" y="247"/>
      <point x="144" y="247" type="curve"/>
      <point x="490" y="247" type="line"/>
      <point x="490" y="251"/>
      <point x="491" y="255"/>
      <point x="491" y="258" type="curve"/>
      <point x="491" y="275"/>
      <point x="487" y="288"/>
      <point x="478" y="297" type="curve" smooth="yes"/>
      <point x="474" y="301"/>
      <point x="470" y="303"/>
      <point x="463" y="303" type="curve"/>
    </contour>
  </outline>
</glyph>
<glyph name="G" format="1">
  <advance width="600"/>
  <unicode hex="0047"/>
  <outline>
    <contour>
      <point x="371" y="665" type="curve" smooth="yes"/>
      <point x="451" y="665"/>
      <point x="483" y="623"/>
      <point x="483" y="566" type="curve"/>
      <point x="504" y="566"/>
      <point x="511" y="575"/>
      <point x="511" y="587" type="curve" smooth="yes"/>
      <point x="511" y="629"/>
      <point x="499" y="658"/>
      <point x="476" y="681" type="curve" smooth="yes"/>
      <point x="449" y="708"/>
      <point x="418" y="720"/>
      <point x="371" y="720" type="curve" smooth="yes"/>
      <point x="190" y="720"/>
      <point x="69" y="545"/>
      <point x="69" y="281" type="curve" smooth="yes"/>
      <point x="69" y="265" type="line" smooth="yes"/>
      <point x="69" y="213"/>
      <point x="106" y="138"/>
      <point x="144" y="121" type="curve"/>
      <point x="130" y="164"/>
      <point x="126" y="214"/>
      <point x="126" y="266" type="curve" smooth="yes"/>
      <point x="126" y="280" type="line" smooth="yes"/>
      <point x="126" y="509"/>
      <point x="228" y="665"/>
    </contour>
    <contour>
      <point x="307" y="35" type="curve" smooth="yes"/>
      <point x="183" y="35"/>
      <point x="117" y="137"/>
      <point x="117" y="304" type="curve"/>
      <point x="90" y="304"/>
      <point x="69" y="288"/>
      <point x="69" y="265" type="curve" smooth="yes"/>
      <point x="69" y="90"/>
      <point x="154" y="-20"/>
      <point x="307" y="-20" type="curve" smooth="yes"/>
      <point x="437" y="-20"/>
      <point x="528" y="64"/>
      <point x="528" y="186" type="curve" smooth="yes"/>
      <point x="528" y="193" type="line" smooth="yes"/>
      <point x="528" y="246"/>
      <point x="511" y="279"/>
      <point x="467" y="279" type="curve"/>
      <point x="473" y="257"/>
      <point x="476" y="231"/>
      <point x="476" y="198" type="curve" smooth="yes"/>
      <point x="476" y="101"/>
      <point x="407" y="35"/>
    </contour>
    <contour>
      <point x="289" y="303" type="line"/>
      <point x="287" y="300"/>
      <point x="286" y="294"/>
      <point x="286" y="288" type="curve" smooth="yes"/>
      <point x="286" y="274"/>
      <point x="289" y="264"/>
      <point x="297" y="256" type="curve" smooth="yes"/>
      <point x="302" y="251"/>
      <point x="309" y="249"/>
      <point x="318" y="249" type="curve"/>
      <point x="565" y="249" type="line"/>
      <point x="565" y="259" type="line" smooth="yes"/>
      <point x="565" y="289"/>
      <point x="556" y="303"/>
      <point x="539" y="303" type="curve" smooth="yes"/>
    </contour>
    <contour>
      <point x="511" y="478" type="curve"/>
      <point x="511" y="587" type="line" smooth="yes"/>
      <point x="511" y="645"/>
      <point x="470" y="690"/>
      <point x="429" y="676" type="curve"/>
      <point x="448" y="649"/>
      <point x="455" y="615"/>
      <point x="455" y="591" type="curve" smooth="yes"/>
      <point x="455" y="504" type="line" smooth="yes"/>
      <point x="455" y="484"/>
      <point x="466" y="476"/>
      <point x="494" y="476" type="curve" smooth="yes"/>
      <point x="500" y="476"/>
      <point x="506" y="477"/>
    </contour>
    <contour>
      <point x="317" y="711" type="move" name="top"/>
    </contour>
    <contour>
      <point x="317" y="-1" type="move" name="bottom"/>
    </contour>
  </outline>
</glyph>
<glyph name="H" format="1">
  <advance width="600"/>
  <unicode hex="0048"/>
  <outline>
    <contour>
      <point x="82" y="707" type="curve"/>
      <point x="88" y="672"/>
      <point x="89" y="637"/>
      <point x="89" y="599" type="curve" smooth="yes"/>
      <point x="89" y="15" type="line" smooth="yes"/>
      <point x="89" y="-4"/>
      <point x="108" y="-10"/>
      <point x="134" y="-10" type="curve" smooth="yes"/>
      <point x="138" y="-10"/>
      <point x="142" y="-10"/>
      <point x="145" y="-10" type="curve"/>
      <point x="145" y="649" type="line" smooth="yes"/>
      <point x="145" y="672"/>
      <point x="143" y="689"/>
      <point x="131" y="701" type="curve" smooth="yes"/>
      <point x="126" y="707"/>
      <point x="118" y="710"/>
      <point x="102" y="710" type="curve" smooth="yes"/>
      <point x="95" y="710"/>
      <point x="89" y="709"/>
    </contour>
    <contour>
      <point x="528" y="-7" type="curve"/>
      <point x="522" y="28"/>
      <point x="521" y="63"/>
      <point x="521" y="101" type="curve" smooth="yes"/>
      <point x="521" y="685" type="line" smooth="yes"/>
      <point x="521" y="704"/>
      <point x="501" y="710"/>
      <point x="475" y="710" type="curve" smooth="yes"/>
      <point x="472" y="710"/>
      <point x="468" y="710"/>
      <point x="465" y="710" type="curve"/>
      <point x="465" y="51" type="line" smooth="yes"/>
      <point x="465" y="28"/>
      <point x="467" y="11"/>
      <point x="479" y="-1" type="curve" smooth="yes"/>
      <point x="484" y="-7"/>
      <point x="492" y="-10"/>
      <point x="508" y="-10" type="curve" smooth="yes"/>
      <point x="515" y="-10"/>
      <point x="521" y="-9"/>
    </contour>
    <contour>
      <point x="49" y="305" type="line"/>
      <point x="49" y="295" type="line" smooth="yes"/>
      <point x="49" y="277"/>
      <point x="52" y="264"/>
      <point x="61" y="255" type="curve" smooth="yes"/>
      <point x="64" y="252"/>
      <point x="68" y="250"/>
      <point x="73" y="250" type="curve"/>
      <point x="495" y="250" type="line"/>
      <point x="495" y="291"/>
      <point x="466" y="305"/>
      <point x="415" y="305" type="curve" smooth="yes"/>
    </contour>
    <contour>
      <point x="288" y="711" type="move" name="top"/>
    </contour>
  </outline>
</glyph>
<glyph name="I" format="1">
  <advance width="600"/>
  <unicode hex="0049"/>
  <outline>
    <contour>
      <point x="328" y="28" type="curve"/>
      <point x="328" y="595" type="line" smooth="yes"/>
      <point x="328" y="646"/>
      <point x="313" y="670"/>
      <point x="272" y="670" type="curve"/>
      <point x="272" y="105" type="line" smooth="yes"/>
      <point x="272" y="54"/>
      <point x="286" y="28"/>
    </contour>
    <contour>
      <point x="72" y="700" type="line"/>
      <point x="69" y="696"/>
      <point x="68" y="689"/>
      <point x="68" y="683" type="curve"/>
      <point x="68" y="669"/>
      <point x="72" y="659"/>
      <point x="79" y="652" type="curve" smooth="yes"/>
      <point x="84" y="647"/>
      <point x="91" y="645"/>
      <point x="100" y="645" type="curve" smooth="yes"/>
      <point x="529" y="645" type="line"/>
      <point x="530" y="649"/>
      <point x="531" y="656"/>
      <point x="531" y="661" type="curve" smooth="yes"/>
      <point x="531" y="686"/>
      <point x="523" y="700"/>
      <point x="506" y="700" type="curve" smooth="yes"/>
    </contour>
    <contour>
      <point x="72" y="55" type="line"/>
      <point x="69" y="51"/>
      <point x="68" y="44"/>
      <point x="68" y="37" type="curve"/>
      <point x="68" y="24"/>
      <point x="71" y="14"/>
      <point x="79" y="7" type="curve" smooth="yes"/>
      <point x="84" y="2"/>
      <point x="89" y="0"/>
      <point x="97" y="0" type="curve" smooth="yes"/>
      <point x="531" y="0" type="line"/>
      <point x="531" y="4"/>
      <point x="531" y="9"/>
      <point x="531" y="13" type="curve" smooth="yes"/>
      <point x="531" y="41"/>
      <point x="523" y="55"/>
      <point x="506" y="55" type="curve" smooth="yes"/>
    </contour>
    <contour>
      <point x="300" y="711" type="move" name="top"/>
    </contour>
    <contour>
      <point x="532" y="0" type="move" name="ogonek"/>
    </contour>
    <contour>
      <point x="300" y="-1" type="move" name="bottom"/>
    </contour>
  </outline>
</glyph>
<glyph name="J" format="1">
  <advance width="600"/>
  <unicode hex="004A"/>
  <outline>
    <contour>
      <point x="149" y="700" type="line"/>
      <point x="149" y="697"/>
      <point x="148" y="692"/>
      <point x="148" y="689" type="curve" smooth="yes"/>
      <point x="148" y="671"/>
      <point x="152" y="659"/>
      <point x="160" y="651" type="curve" smooth="yes"/>
      <point x="164" y="647"/>
      <point x="170" y="645"/>
      <point x="179" y="645" type="curve" smooth="yes"/>
      <point x="469" y="645" type="line"/>
      <point x="469" y="685"/>
      <point x="463" y="700"/>
      <point x="444" y="700" type="curve"/>
    </contour>
    <contour>
      <point x="496" y="229" type="curve" smooth="yes"/>
      <point x="496" y="676" type="line" smooth="yes"/>
      <point x="496" y="691"/>
      <point x="482" y="700"/>
      <point x="451" y="700" type="curve" smooth="yes"/>
      <point x="440" y="700" type="line"/>
      <point x="440" y="230" type="line" smooth="yes"/>
      <point x="440" y="125"/>
      <point x="426" y="91"/>
      <point x="356" y="32" type="curve"/>
      <point x="410" y="13"/>
      <point x="496" y="87"/>
    </contour>
    <contour>
      <point x="280" y="35" type="curve" smooth="yes"/>
      <point x="203" y="35"/>
      <point x="160" y="56"/>
      <point x="104" y="88" type="curve"/>
      <point x="100" y="88" type="line"/>
      <point x="100" y="82"/>
      <point x="99" y="77"/>
      <point x="99" y="71" type="curve"/>
      <point x="99" y="52"/>
      <point x="103" y="33"/>
      <point x="112" y="25" type="curve" smooth="yes"/>
      <point x="146" y="-10"/>
      <point x="211" y="-20"/>
      <point x="269" y="-20" type="curve" smooth="yes"/>
      <point x="274" y="-20" type="line" smooth="yes"/>
      <point x="425" y="-20"/>
      <point x="496" y="69"/>
      <point x="496" y="229" type="curve"/>
      <point x="496" y="240"/>
      <point x="487" y="250"/>
      <point x="461" y="250" type="curve"/>
      <point x="459" y="104"/>
      <point x="394" y="35"/>
    </contour>
    <contour>
      <point x="297" y="711" type="move" name="top"/>
    </contour>
  </outline>
</glyph>
<glyph name="L" format="1">
  <advance width="600"/>
  <unicode hex="004C"/>
  <outline>
    <contour>
      <point x="154" y="23" type="curve"/>
      <point x="154" y="649" type="line" smooth="yes"/>
      <point x="154" y="672"/>
      <point x="152" y="689"/>
      <point x="140" y="701" type="curve" smooth="yes"/>
      <point x="134" y="707"/>
      <point x="126" y="710"/>
      <point x="110" y="710" type="curve" smooth="yes"/>
      <point x="103" y="710"/>
      <point x="98" y="709"/>
      <point x="91" y="707" type="curve"/>
      <point x="97" y="672"/>
      <point x="98" y="637"/>
      <point x="98" y="599" type="curve" smooth="yes"/>
      <point x="98" y="56" type="line" smooth="yes"/>
      <point x="98" y="35"/>
      <point x="125" y="23"/>
    </contour>
    <contour>
      <point x="98" y="56" type="line"/>
      <point x="98" y="45" type="line" smooth="yes"/>
      <point x="98" y="24"/>
      <point x="115" y="0"/>
      <point x="132" y="0" type="curve" smooth="yes"/>
      <point x="531" y="0" type="line"/>
      <point x="532" y="4"/>
      <point x="532" y="9"/>
      <point x="532" y="13" type="curve" smooth="yes"/>
      <point x="532" y="42"/>
      <point x="523" y="56"/>
      <point x="507" y="56" type="curve" smooth="yes"/>
    </contour>
    <contour>
      <point x="407" y="550" type="move" name="caronslovak"/>
    </contour>
    <contour>
      <point x="127" y="711" type="move" name="top"/>
    </contour>
    <contour>
      <point x="366" y="400" type="move" name="dot"/>
    </contour>
    <contour>
      <point x="311" y="-1" type="move" name="bottom"/>
    </contour>
  </outline>
</glyph>
<glyph name="M" format="1">
  <advance width="600"/>
  <unicode hex="004D"/>
  <outline>
    <contour>
      <point x="134" y="-10" type="curve"/>
      <point x="134" y="59"/>
      <point x="134" y="128"/>
      <point x="134" y="197" type="curve" smooth="yes"/>
      <point x="134" y="367"/>
      <point x="132" y="578"/>
      <point x="132" y="691" type="curve" smooth="yes"/>
      <point x="132" y="697"/>
      <point x="130" y="701"/>
      <point x="127" y="704" type="curve" smooth="yes"/>
      <point x="123" y="708"/>
      <point x="121" y="710"/>
      <point x="114" y="710" type="curve" smooth="yes"/>
      <point x="102" y="710"/>
      <point x="88" y="708"/>
      <point x="72" y="705" type="curve"/>
      <point x="77" y="670"/>
      <point x="79" y="636"/>
      <point x="79" y="600" type="curve" smooth="yes"/>
      <point x="79" y="15" type="line" smooth="yes"/>
      <point x="79" y="10"/>
      <point x="81" y="5"/>
      <point x="84" y="2" type="curve" smooth="yes"/>
      <point x="93" y="-7"/>
      <point x="105" y="-10"/>
      <point x="122" y="-10" type="curve" smooth="yes"/>
      <point x="126" y="-10"/>
      <point x="130" y="-10"/>
    </contour>
    <contour>
      <point x="530" y="-7" type="curve"/>
      <point x="524" y="28"/>
      <point x="521" y="63"/>
      <point x="521" y="100" type="curve" smooth="yes"/>
      <point x="521" y="685" type="line" smooth="yes"/>
      <point x="521" y="691"/>
      <point x="519" y="695"/>
      <point x="516" y="698" type="curve" smooth="yes"/>
      <point x="509" y="706"/>
      <point x="487" y="710"/>
      <point x="455" y="710" type="curve" smooth="yes"/>
      <point x="449" y="710" type="line"/>
      <point x="464" y="702"/>
      <point x="468" y="695"/>
      <point x="468" y="670" type="curve" smooth="yes"/>
      <point x="468" y="541"/>
      <point x="466" y="281"/>
      <point x="466" y="186" type="curve" smooth="yes"/>
      <point x="466" y="135"/>
      <point x="466" y="85"/>
      <point x="466" y="34" type="curve" smooth="yes"/>
      <point x="466" y="17"/>
      <point x="469" y="8"/>
      <point x="475" y="2" type="curve" smooth="yes"/>
      <point x="483" y="-7"/>
      <point x="493" y="-10"/>
      <point x="510" y="-10" type="curve"/>
      <point x="517" y="-10"/>
      <point x="524" y="-9"/>
    </contour>
    <contour>
      <point x="114" y="710" type="line"/>
      <point x="151" y="458"/>
      <point x="219" y="267"/>
      <point x="284" y="203" type="curve"/>
      <point x="288" y="199"/>
      <point x="297" y="196"/>
      <point x="302" y="196" type="curve"/>
      <point x="311" y="196"/>
      <point x="314" y="220"/>
      <point x="312" y="243" type="curve"/>
      <point x="255" y="330"/>
      <point x="191" y="521"/>
      <point x="167" y="684" type="curve"/>
      <point x="165" y="698"/>
      <point x="144" y="710"/>
      <point x="117" y="710" type="curve"/>
    </contour>
    <contour>
      <point x="449" y="710" type="curve" smooth="yes"/>
      <point x="442" y="710"/>
      <point x="438" y="709"/>
      <point x="433" y="707" type="curve"/>
      <point x="409" y="496"/>
      <point x="347" y="336"/>
      <point x="290" y="249" type="curve"/>
      <point x="286" y="244"/>
      <point x="295" y="196"/>
      <point x="302" y="196" type="curve"/>
      <point x="311" y="196" type="line"/>
      <point x="385" y="288"/>
      <point x="462" y="486"/>
      <point x="473" y="668" type="curve"/>
      <point x="475" y="701"/>
      <point x="472" y="710"/>
    </contour>
  </outline>
</glyph>
<glyph name="N" format="1">
  <advance width="600"/>
  <unicode hex="004E"/>
  <outline>
    <contour>
      <point x="135" y="-8" type="curve"/>
      <point x="135" y="457" type="line"/>
      <point x="135" y="565"/>
      <point x="127" y="698"/>
      <point x="119" y="706" type="curve" smooth="yes"/>
      <point x="117" y="709"/>
      <point x="116" y="710"/>
      <point x="113" y="710" type="curve"/>
      <point x="102" y="710"/>
      <point x="90" y="710"/>
      <point x="72" y="707" type="curve"/>
      <point x="79" y="672"/>
      <point x="80" y="623"/>
      <point x="80" y="599" type="curve" smooth="yes"/>
      <point x="80" y="15" type="line"/>
      <point x="80" y="-5"/>
      <point x="100" y="-10"/>
      <point x="118" y="-10" type="curve"/>
      <point x="124" y="-10"/>
      <point x="130" y="-9"/>
    </contour>
    <contour>
      <point x="521" y="-10" type="line"/>
      <point x="521" y="685" type="line"/>
      <point x="521" y="705"/>
      <point x="501" y="710"/>
      <point x="477" y="710" type="curve"/>
      <point x="466" y="710" type="line"/>
      <point x="466" y="85" type="line"/>
      <point x="466" y="57"/>
      <point x="477" y="5"/>
      <point x="484" y="-2" type="curve" smooth="yes"/>
      <point x="489" y="-8"/>
      <point x="493" y="-10"/>
      <point x="503" y="-10" type="curve"/>
    </contour>
    <contour>
      <point x="113" y="710" type="line"/>
      <point x="116" y="692"/>
      <point x="121" y="671"/>
      <point x="125" y="652" type="curve" smooth="yes"/>
      <point x="184" y="357"/>
      <point x="362" y="107"/>
      <point x="470" y="-1" type="curve"/>
      <point x="476" y="-7"/>
      <point x="486" y="-10"/>
      <point x="503" y="-10" type="curve" smooth="yes"/>
      <point x="507" y="-10"/>
      <point x="506" y="-10"/>
      <point x="510" y="-10" type="curve"/>
      <point x="512" y="-10"/>
      <point x="514" y="11"/>
      <point x="514" y="27" type="curve"/>
      <point x="328" y="243"/>
      <point x="231" y="424"/>
      <point x="171" y="684" type="curve"/>
      <point x="168" y="698"/>
      <point x="144" y="710"/>
      <point x="116" y="710" type="curve"/>
    </contour>
    <contour>
      <point x="300" y="711" type="move" name="top"/>
    </contour>
    <contour>
      <point x="296" y="-1" type="move" name="bottom"/>
    </contour>
  </outline>
</glyph>
<glyph name="O" format="1">
  <advance width="600"/>
  <unicode hex="004F"/>
  <outline>
    <contour>
      <point x="300" y="720" type="curve" smooth="yes"/>
      <point x="145" y="720"/>
      <point x="64" y="568"/>
      <point x="64" y="335" type="curve" smooth="yes"/>
      <point x="64" y="306" type="line" smooth="yes"/>
      <point x="64" y="105"/>
      <point x="138" y="-20"/>
      <point x="300" y="-20" type="curve" smooth="yes"/>
      <point x="313" y="-20"/>
      <point x="321" y="-6"/>
      <point x="321" y="15" type="curve"/>
      <point x="177" y="21"/>
      <point x="120" y="134"/>
      <point x="120" y="311" type="curve" smooth="yes"/>
      <point x="120" y="334" type="line" smooth="yes"/>
      <point x="120" y="536"/>
      <point x="181" y="665"/>
      <point x="309" y="665" type="curve" smooth="yes"/>
      <point x="346" y="665"/>
      <point x="384" y="655"/>
      <point x="426" y="635" type="curve"/>
      <point x="456" y="665"/>
      <point x="380" y="720"/>
    </contour>
    <contour>
      <point x="300" y="-20" type="curve" smooth="yes"/>
      <point x="455" y="-20"/>
      <point x="536" y="117"/>
      <point x="536" y="327" type="curve" smooth="yes"/>
      <point x="536" y="356" type="line" smooth="yes"/>
      <point x="536" y="580"/>
      <point x="462" y="720"/>
      <point x="300" y="720" type="curve" smooth="yes"/>
      <point x="287" y="720"/>
      <point x="279" y="706"/>
      <point x="279" y="685" type="curve"/>
      <point x="423" y="679"/>
      <point x="480" y="550"/>
      <point x="480" y="351" type="curve" smooth="yes"/>
      <point x="480" y="328" type="line" smooth="yes"/>
      <point x="480" y="149"/>
      <point x="419" y="35"/>
      <point x="291" y="35" type="curve" smooth="yes"/>
      <point x="254" y="35"/>
      <point x="216" y="45"/>
      <point x="174" y="65" type="curve"/>
      <point x="145" y="37"/>
      <point x="220" y="-20"/>
    </contour>
    <contour>
      <point x="300" y="711" type="move" name="top"/>
    </contour>
    <contour>
      <point x="392" y="10" type="move" name="ogonek"/>
    </contour>
    <contour>
      <point x="300" y="-1" type="move" name="bottom"/>
    </contour>
  </outline>
</glyph>
<glyph name="P" format="1">
  <advance width="600"/>
  <unicode hex="0050"/>
  <outline>
    <contour>
      <point x="162" y="-7" type="curve"/>
      <point x="156" y="28"/>
      <point x="155" y="63"/>
      <point x="155" y="101" type="curve" smooth="yes"/>
      <point x="155" y="605" type="line" smooth="yes"/>
      <point x="155" y="658"/>
      <point x="138" y="680"/>
      <point x="99" y="680" type="curve"/>
      <point x="99" y="51" type="line" smooth="yes"/>
      <point x="99" y="28"/>
      <point x="101" y="11"/>
      <point x="113" y="-1" type="curve" smooth="yes"/>
      <point x="118" y="-7"/>
      <point x="126" y="-10"/>
      <point x="142" y="-10" type="curve" smooth="yes"/>
      <point x="149" y="-10"/>
      <point x="155" y="-9"/>
    </contour>
    <contour>
      <point x="49" y="700" type="curve"/>
      <point x="48" y="696"/>
      <point x="48" y="692"/>
      <point x="48" y="687" type="curve"/>
      <point x="48" y="669"/>
      <point x="52" y="658"/>
      <point x="60" y="650" type="curve" smooth="yes"/>
      <point x="64" y="646"/>
      <point x="70" y="645"/>
      <point x="74" y="645" type="curve" smooth="yes"/>
      <point x="82" y="645"/>
      <point x="91" y="646"/>
      <point x="103" y="648" type="curve" smooth="yes"/>
      <point x="153" y="657"/>
      <point x="226" y="665"/>
      <point x="278" y="665" type="curve" smooth="yes"/>
      <point x="370" y="665"/>
      <point x="412" y="647"/>
      <point x="470" y="592" type="curve"/>
      <point x="519" y="641"/>
      <point x="398" y="720"/>
      <point x="290" y="720" type="curve" smooth="yes"/>
      <point x="215" y="720"/>
      <point x="145" y="716"/>
    </contour>
    <contour>
      <point x="526" y="462" type="curve" smooth="yes"/>
      <point x="526" y="527" type="line" smooth="yes"/>
      <point x="526" y="639"/>
      <point x="428" y="720"/>
      <point x="290" y="720" type="curve"/>
      <point x="268" y="720"/>
      <point x="261" y="708"/>
      <point x="261" y="693" type="curve"/>
      <point x="387" y="692"/>
      <point x="470" y="641"/>
      <point x="470" y="517" type="curve" smooth="yes"/>
      <point x="470" y="471" type="line" smooth="yes"/>
      <point x="470" y="341"/>
      <point x="341" y="239"/>
      <point x="194" y="239" type="curve" smooth="yes"/>
      <point x="159" y="239"/>
      <point x="150" y="239"/>
      <point x="142" y="239" type="curve"/>
      <point x="138" y="236"/>
      <point x="136" y="233"/>
      <point x="136" y="227" type="curve" smooth="yes"/>
      <point x="136" y="206"/>
      <point x="172" y="184"/>
      <point x="198" y="184" type="curve" smooth="yes"/>
      <point x="202" y="184" type="line" smooth="yes"/>
      <point x="373" y="184"/>
      <point x="526" y="308"/>
    </contour>
  </outline>
</glyph>
<glyph name="Q" format="1">
  <advance width="600"/>
  <unicode hex="0051"/>
  <outline>
    <contour>
      <point x="300" y="720" type="curve" smooth="yes"/>
      <point x="145" y="720"/>
      <point x="64" y="568"/>
      <point x="64" y="335" type="curve" smooth="yes"/>
      <point x="64" y="306" type="line" smooth="yes"/>
      <point x="64" y="105"/>
      <point x="138" y="-20"/>
      <point x="300" y="-20" type="curve" smooth="yes"/>
      <point x="313" y="-20"/>
      <point x="321" y="-6"/>
      <point x="321" y="15" type="curve"/>
      <point x="177" y="21"/>
      <point x="120" y="134"/>
      <point x="120" y="311" type="curve" smooth="yes"/>
      <point x="120" y="334" type="line" smooth="yes"/>
      <point x="120" y="536"/>
      <point x="181" y="665"/>
      <point x="309" y="665" type="curve" smooth="yes"/>
      <point x="346" y="665"/>
      <point x="384" y="655"/>
      <point x="426" y="635" type="curve"/>
      <point x="456" y="665"/>
      <point x="380" y="720"/>
    </contour>
    <contour>
      <point x="300" y="-20" type="curve" smooth="yes"/>
      <point x="455" y="-20"/>
      <point x="536" y="117"/>
      <point x="536" y="327" type="curve" smooth="yes"/>
      <point x="536" y="356" type="line" smooth="yes"/>
      <point x="536" y="580"/>
      <point x="462" y="720"/>
      <point x="300" y="720" type="curve" smooth="yes"/>
      <point x="287" y="720"/>
      <point x="279" y="706"/>
      <point x="279" y="685" type="curve"/>
      <point x="423" y="679"/>
      <point x="480" y="551"/>
      <point x="480" y="351" type="curve" smooth="yes"/>
      <point x="480" y="328" type="line" smooth="yes"/>
      <point x="480" y="149"/>
      <point x="419" y="35"/>
      <point x="291" y="35" type="curve" smooth="yes"/>
      <point x="254" y="35"/>
      <point x="216" y="45"/>
      <point x="174" y="65" type="curve"/>
      <point x="145" y="37"/>
      <point x="220" y="-20"/>
    </contour>
    <contour>
      <point x="394" y="41" type="line"/>
      <point x="368" y="23"/>
      <point x="354" y="4"/>
      <point x="360" y="-5" type="curve" smooth="yes"/>
      <point x="412" y="-78" type="line" smooth="yes"/>
      <point x="452" y="-134"/>
      <point x="484" y="-156"/>
      <point x="523" y="-156" type="curve" smooth="yes"/>
      <point x="526" y="-156" type="line" smooth="yes"/>
      <point x="564" y="-156"/>
      <point x="580" y="-136"/>
      <point x="580" y="-104" type="curve" smooth="yes"/>
      <point x="580" y="-92"/>
      <point x="579" y="-81"/>
      <point x="577" y="-72" type="curve"/>
      <point x="573" y="-72" type="line"/>
      <point x="563" y="-83"/>
      <point x="547" y="-89"/>
      <point x="531" y="-89" type="curve" smooth="yes"/>
      <point x="508" y="-89"/>
      <point x="484" y="-79"/>
      <point x="460" y="-47" type="curve" smooth="yes"/>
    </contour>
  </outline>
</glyph>
<glyph name="T" format="1">
  <advance width="600"/>
  <unicode hex="0054"/>
  <outline>
    <contour>
      <point x="52" y="700" type="line"/>
      <point x="50" y="696"/>
      <point x="49" y="689"/>
      <point x="49" y="683" type="curve" smooth="yes"/>
      <point x="49" y="670"/>
      <point x="52" y="659"/>
      <point x="60" y="652" type="curve" smooth="yes"/>
      <point x="65" y="647"/>
      <point x="71" y="645"/>
      <point x="82" y="645" type="curve" smooth="yes"/>
      <point x="549" y="645" type="line"/>
      <point x="550" y="649"/>
      <point x="551" y="655"/>
      <point x="551" y="661" type="curve" smooth="yes"/>
      <point x="551" y="686"/>
      <point x="543" y="700"/>
      <point x="526" y="700" type="curve" smooth="yes"/>
    </contour>
    <contour>
      <point x="335" y="-7" type="curve"/>
      <point x="329" y="28"/>
      <point x="328" y="63"/>
      <point x="328" y="101" type="curve" smooth="yes"/>
      <point x="328" y="600" type="line" smooth="yes"/>
      <point x="328" y="653"/>
      <point x="313" y="675"/>
      <point x="272" y="675" type="curve"/>
      <point x="272" y="51" type="line" smooth="yes"/>
      <point x="272" y="28"/>
      <point x="274" y="11"/>
      <point x="286" y="-1" type="curve" smooth="yes"/>
      <point x="292" y="-7"/>
      <point x="300" y="-10"/>
      <point x="316" y="-10" type="curve" smooth="yes"/>
      <point x="323" y="-10"/>
      <point x="328" y="-9"/>
    </contour>
    <contour>
      <point x="300" y="711" type="move" name="top"/>
    </contour>
    <contour>
      <point x="300" y="-1" type="move" name="bottom"/>
    </contour>
  </outline>
</glyph>
<glyph name="U" format="1">
  <advance width="600"/>
  <unicode hex="0055"/>
  <outline>
    <contour>
      <point x="60" y="706" type="curve"/>
      <point x="70" y="671"/>
      <point x="74" y="628"/>
      <point x="74" y="571" type="curve" smooth="yes"/>
      <point x="74" y="159" type="line"/>
      <point x="74" y="120"/>
      <point x="90" y="99"/>
      <point x="119" y="118" type="curve"/>
      <point x="129" y="282"/>
      <point x="135" y="388"/>
      <point x="135" y="543" type="curve" smooth="yes"/>
      <point x="135" y="547" type="line"/>
      <point x="135" y="672"/>
      <point x="113" y="710"/>
      <point x="83" y="710" type="curve"/>
      <point x="74" y="710"/>
      <point x="68" y="709"/>
    </contour>
    <contour>
      <point x="233" y="-19" type="curve" smooth="yes"/>
      <point x="329" y="-19"/>
      <point x="396" y="25"/>
      <point x="466" y="118" type="curve" smooth="yes"/>
      <point x="484" y="142"/>
      <point x="489" y="172"/>
      <point x="486" y="201" type="curve"/>
      <point x="374" y="69"/>
      <point x="325" y="37"/>
      <point x="242" y="37" type="curve" smooth="yes"/>
      <point x="165" y="37"/>
      <point x="126" y="83"/>
      <point x="117" y="195" type="curve"/>
      <point x="82" y="186"/>
      <point x="74" y="172"/>
      <point x="74" y="159" type="curve" smooth="yes"/>
      <point x="74" y="63"/>
      <point x="130" y="-19"/>
    </contour>
    <contour>
      <point x="528" y="-7" type="curve"/>
      <point x="522" y="28"/>
      <point x="521" y="63"/>
      <point x="521" y="100" type="curve" smooth="yes"/>
      <point x="521" y="685" type="line" smooth="yes"/>
      <point x="521" y="704"/>
      <point x="502" y="710"/>
      <point x="477" y="710" type="curve" smooth="yes"/>
      <point x="473" y="710"/>
      <point x="469" y="710"/>
      <point x="465" y="710" type="curve"/>
      <point x="465" y="71" type="line" smooth="yes"/>
      <point x="465" y="35"/>
      <point x="468" y="12"/>
      <point x="481" y="-1" type="curve" smooth="yes"/>
      <point x="487" y="-7"/>
      <point x="495" y="-10"/>
      <point x="510" y="-10" type="curve" smooth="yes"/>
      <point x="516" y="-10"/>
      <point x="522" y="-9"/>
    </contour>
    <contour>
      <point x="300" y="711" type="move" name="top"/>
    </contour>
    <contour>
      <point x="529" y="-7" type="move" name="ogonek"/>
    </contour>
    <contour>
      <point x="300" y="688" type="move" name="ring"/>
    </contour>
    <contour>
      <point x="294" y="-1" type="move" name="bottom"/>
    </contour>
  </outline>
</glyph>
<glyph name="W" format="1">
  <advance width="600"/>
  <unicode hex="0057"/>
  <outline>
    <contour>
      <point x="42" y="710" type="curve"/>
      <point x="42" y="234"/>
      <point x="62" y="100"/>
      <point x="157" y="5" type="curve"/>
      <point x="167" y="-5"/>
      <point x="178" y="-10"/>
      <point x="188" y="-10" type="curve"/>
      <point x="197" y="-10" type="line" smooth="yes"/>
      <point x="204" y="-10"/>
      <point x="204" y="19"/>
      <point x="204" y="26" type="curve"/>
      <point x="115" y="137"/>
      <point x="100" y="218"/>
      <point x="100" y="690" type="curve"/>
      <point x="100" y="694"/>
      <point x="100" y="694"/>
      <point x="93" y="702" type="curve" smooth="yes"/>
      <point x="90" y="705"/>
      <point x="70" y="710"/>
      <point x="53" y="710" type="curve"/>
      <point x="50" y="710"/>
      <point x="45" y="710"/>
    </contour>
    <contour>
      <point x="502" y="710" type="curve"/>
      <point x="502" y="205"/>
      <point x="477" y="158"/>
      <point x="404" y="34" type="curve"/>
      <point x="406" y="-3"/>
      <point x="408" y="-10"/>
      <point x="412" y="-10" type="curve"/>
      <point x="441" y="-10" type="line"/>
      <point x="531" y="157"/>
      <point x="556" y="270"/>
      <point x="556" y="686" type="curve"/>
      <point x="556" y="693"/>
      <point x="555" y="697"/>
      <point x="551" y="701" type="curve" smooth="yes"/>
      <point x="547" y="706"/>
      <point x="529" y="710"/>
      <point x="513" y="710" type="curve"/>
      <point x="510" y="710"/>
      <point x="505" y="710"/>
    </contour>
    <contour>
      <point x="286" y="596" type="curve"/>
      <point x="274" y="596" type="line"/>
      <point x="274" y="316"/>
      <point x="268" y="169"/>
      <point x="179" y="17" type="curve"/>
      <point x="179" y="8"/>
      <point x="180" y="-10"/>
      <point x="188" y="-10" type="curve"/>
      <point x="209" y="-10" type="line"/>
      <point x="312" y="135"/>
      <point x="319" y="349"/>
      <point x="319" y="563" type="curve"/>
      <point x="319" y="586"/>
      <point x="308" y="596"/>
    </contour>
    <contour>
      <point x="286" y="596" type="curve"/>
      <point x="281" y="596" type="line"/>
      <point x="281" y="292"/>
      <point x="309" y="88"/>
      <point x="379" y="-1" type="curve"/>
      <point x="384" y="-7"/>
      <point x="391" y="-10"/>
      <point x="399" y="-10" type="curve"/>
      <point x="422" y="-10" type="line"/>
      <point x="427" y="-10"/>
      <point x="431" y="5"/>
      <point x="431" y="24" type="curve"/>
      <point x="347" y="96"/>
      <point x="326" y="309"/>
      <point x="326" y="573" type="curve"/>
      <point x="326" y="585"/>
      <point x="316" y="596"/>
    </contour>
    <contour>
      <point x="299" y="711" type="move" name="top"/>
    </contour>
  </outline>
</glyph>
<glyph name="X" format="1">
  <advance width="600"/>
  <unicode hex="0058"/>
  <outline>
    <contour>
      <point x="534" y="-6" type="curve" smooth="yes"/>
      <point x="546" y="-6"/>
      <point x="558" y="-4"/>
      <point x="568" y="0" type="curve"/>
      <point x="483" y="73"/>
      <point x="389" y="191"/>
      <point x="307" y="315" type="curve" smooth="yes"/>
      <point x="301" y="325"/>
      <point x="295" y="332"/>
      <point x="290" y="341" type="curve" smooth="yes"/>
      <point x="206" y="470"/>
      <point x="141" y="603"/>
      <point x="106" y="691" type="curve" smooth="yes"/>
      <point x="101" y="703"/>
      <point x="82" y="706"/>
      <point x="47" y="706" type="curve" smooth="yes"/>
      <point x="34" y="706" type="line"/>
      <point x="83" y="584"/>
      <point x="160" y="435"/>
      <point x="245" y="303" type="curve" smooth="yes"/>
      <point x="250" y="296"/>
      <point x="255" y="289"/>
      <point x="260" y="282" type="curve" smooth="yes"/>
      <point x="337" y="167"/>
      <point x="418" y="66"/>
      <point x="478" y="11" type="curve" smooth="yes"/>
      <point x="490" y="-1"/>
      <point x="510" y="-6"/>
    </contour>
    <contour>
      <point x="508" y="706" type="curve"/>
      <point x="501" y="706" type="line"/>
      <point x="445" y="564"/>
      <point x="379" y="461"/>
      <point x="269" y="333" type="curve"/>
      <point x="251" y="312"/>
      <point x="277" y="295"/>
      <point x="305" y="300" type="curve"/>
      <point x="420" y="427"/>
      <point x="490" y="535"/>
      <point x="552" y="683" type="curve"/>
      <point x="554" y="688"/>
      <point x="554" y="692"/>
      <point x="552" y="695" type="curve" smooth="yes"/>
      <point x="542" y="704"/>
      <point x="526" y="706"/>
    </contour>
    <contour>
      <point x="83" y="-6" type="curve" smooth="yes"/>
      <point x="90" y="-6" type="line"/>
      <point x="134" y="102"/>
      <point x="211" y="213"/>
      <point x="291" y="294" type="curve"/>
      <point x="312" y="314"/>
      <point x="280" y="332"/>
      <point x="252" y="328" type="curve"/>
      <point x="161" y="234"/>
      <point x="87" y="127"/>
      <point x="37" y="21" type="curve"/>
      <point x="33" y="13"/>
      <point x="34" y="8"/>
      <point x="37" y="4" type="curve" smooth="yes"/>
      <point x="44" y="-3"/>
      <point x="57" y="-6"/>
    </contour>
  </outline>
</glyph>
<glyph name="Y" format="1">
  <advance width="600"/>
  <unicode hex="0059"/>
  <outline>
    <contour>
      <point x="41" y="710" type="line"/>
      <point x="87" y="445"/>
      <point x="146" y="358"/>
      <point x="271" y="232" type="curve"/>
      <point x="276" y="227"/>
      <point x="286" y="226"/>
      <point x="293" y="226" type="curve"/>
      <point x="305" y="226"/>
      <point x="314" y="242"/>
      <point x="315" y="264" type="curve"/>
      <point x="195" y="382"/>
      <point x="140" y="454"/>
      <point x="100" y="689" type="curve"/>
      <point x="98" y="703"/>
      <point x="80" y="710"/>
      <point x="52" y="710" type="curve" smooth="yes"/>
    </contour>
    <contour>
      <point x="501" y="710" type="line"/>
      <point x="470" y="483"/>
      <point x="412" y="386"/>
      <point x="286" y="264" type="curve"/>
      <point x="261" y="240"/>
      <point x="286" y="226"/>
      <point x="293" y="226" type="curve"/>
      <point x="324" y="226" type="line"/>
      <point x="451" y="352"/>
      <point x="525" y="462"/>
      <point x="555" y="680" type="curve"/>
      <point x="557" y="695"/>
      <point x="540" y="710"/>
      <point x="512" y="710" type="curve"/>
    </contour>
    <contour>
      <point x="335" y="-7" type="curve"/>
      <point x="329" y="28"/>
      <point x="328" y="63"/>
      <point x="328" y="101" type="curve" smooth="yes"/>
      <point x="328" y="243" type="line" smooth="yes"/>
      <point x="328" y="264"/>
      <point x="301" y="268"/>
      <point x="272" y="268" type="curve"/>
      <point x="272" y="51" type="line" smooth="yes"/>
      <point x="272" y="28"/>
      <point x="274" y="11"/>
      <point x="286" y="-1" type="curve" smooth="yes"/>
      <point x="292" y="-7"/>
      <point x="300" y="-10"/>
      <point x="316" y="-10" type="curve" smooth="yes"/>
      <point x="323" y="-10"/>
      <point x="328" y="-9"/>
    </contour>
    <contour>
      <point x="300" y="711" type="move" name="top"/>
    </contour>
  </outline>
</glyph>
<glyph name="Z" format="1">
  <advance width="600"/>
  <unicode hex="005A"/>
  <outline>
    <contour>
      <point x="112" y="700" type="line"/>
      <point x="111" y="697"/>
      <point x="109" y="691"/>
      <point x="109" y="685" type="curve" smooth="yes"/>
      <point x="109" y="669"/>
      <point x="112" y="659"/>
      <point x="121" y="650" type="curve" smooth="yes"/>
      <point x="124" y="647"/>
      <point x="128" y="645"/>
      <point x="134" y="645" type="curve" smooth="yes"/>
      <point x="442" y="645" type="line" smooth="yes"/>
      <point x="486" y="645"/>
      <point x="507" y="636"/>
      <point x="526" y="618" type="curve" smooth="yes"/>
      <point x="536" y="629"/>
      <point x="541" y="636"/>
      <point x="541" y="644" type="curve"/>
      <point x="541" y="647" type="line" smooth="yes"/>
      <point x="541" y="671"/>
      <point x="517" y="700"/>
      <point x="476" y="700" type="curve" smooth="yes"/>
    </contour>
    <contour>
      <point x="495" y="672" type="curve"/>
      <point x="442" y="435"/>
      <point x="279" y="236"/>
      <point x="59" y="55" type="curve"/>
      <point x="59" y="25"/>
      <point x="94" y="22"/>
      <point x="116" y="39" type="curve" smooth="yes"/>
      <point x="422" y="276"/>
      <point x="541" y="569"/>
      <point x="541" y="644" type="curve"/>
      <point x="541" y="661"/>
      <point x="521" y="669"/>
    </contour>
    <contour>
      <point x="540" y="0" type="line"/>
      <point x="540" y="3"/>
      <point x="541" y="8"/>
      <point x="541" y="11" type="curve" smooth="yes"/>
      <point x="541" y="30"/>
      <point x="537" y="41"/>
      <point x="528" y="50" type="curve" smooth="yes"/>
      <point x="525" y="53"/>
      <point x="520" y="55"/>
      <point x="514" y="55" type="curve" smooth="yes"/>
      <point x="243" y="55" type="line" smooth="yes"/>
      <point x="194" y="55"/>
      <point x="113" y="55"/>
      <point x="59" y="55" type="curve"/>
      <point x="59" y="45" type="line" smooth="yes"/>
      <point x="59" y="19"/>
      <point x="65" y="0"/>
      <point x="84" y="0" type="curve" smooth="yes"/>
    </contour>
    <contour>
      <point x="134" y="517" type="curve"/>
      <point x="134" y="607"/>
      <point x="152" y="688"/>
      <point x="152" y="695" type="curve"/>
      <point x="152" y="714"/>
      <point x="133" y="720"/>
      <point x="109" y="720" type="curve" smooth="yes"/>
      <point x="99" y="720" type="line"/>
      <point x="86" y="662"/>
      <point x="79" y="600"/>
      <point x="79" y="542" type="curve"/>
      <point x="79" y="522"/>
      <point x="97" y="516"/>
      <point x="122" y="516" type="curve" smooth="yes"/>
      <point x="126" y="516"/>
      <point x="131" y="516"/>
    </contour>
    <contour>
      <point x="300" y="711" type="move" name="top"/>
    </contour>
  </outline>
</glyph>
<glyph name="bracketleft" format="1">
  <advance width="600"/>
  <unicode hex="005B"/>
  <outline>
    <contour>
      <point x="204" y="649" type="curve" smooth="yes"/>
      <point x="204" y="-106" type="line" smooth="yes"/>
      <point x="204" y="-118"/>
      <point x="233" y="-120"/>
      <point x="260" y="-120" type="curve"/>
      <point x="260" y="718" type="line" smooth="yes"/>
      <point x="260" y="740"/>
      <point x="254" y="760"/>
      <point x="226" y="760" type="curve" smooth="yes"/>
      <point x="215" y="760"/>
      <point x="206" y="759"/>
      <point x="197" y="756" type="curve"/>
      <point x="203" y="721"/>
      <point x="204" y="687"/>
    </contour>
    <contour>
      <point x="507" y="705" type="line"/>
      <point x="509" y="710"/>
      <point x="511" y="717"/>
      <point x="511" y="724" type="curve" smooth="yes"/>
      <point x="511" y="733"/>
      <point x="508" y="746"/>
      <point x="500" y="755" type="curve" smooth="yes"/>
      <point x="496" y="758"/>
      <point x="492" y="760"/>
      <point x="487" y="760" type="curve" smooth="yes"/>
      <point x="226" y="760" type="line"/>
      <point x="226" y="731"/>
      <point x="234" y="705"/>
      <point x="295" y="705" type="curve"/>
    </contour>
    <contour>
      <point x="510" y="-161" type="line"/>
      <point x="510" y="-157"/>
      <point x="511" y="-152"/>
      <point x="511" y="-148" type="curve" smooth="yes"/>
      <point x="511" y="-119"/>
      <point x="502" y="-106"/>
      <point x="485" y="-106" type="curve" smooth="yes"/>
      <point x="204" y="-106" type="line"/>
      <point x="204" y="-116" type="line" smooth="yes"/>
      <point x="204" y="-137"/>
      <point x="221" y="-161"/>
      <point x="238" y="-161" type="curve" smooth="yes"/>
    </contour>
  </outline>
</glyph>
<glyph name="backslash" format="1">
  <advance width="600"/>
  <unicode hex="005C"/>
  <outline>
    <contour>
      <point x="93" y="750" type="curve"/>
      <point x="173" y="425"/>
      <point x="288" y="138"/>
      <point x="438" y="-111" type="curve" smooth="yes"/>
      <point x="451" y="-133"/>
      <point x="467" y="-139"/>
      <point x="490" y="-139" type="curve" smooth="yes"/>
      <point x="503" y="-139"/>
      <point x="513" y="-137"/>
      <point x="523" y="-132" type="curve"/>
      <point x="504" y="-112"/>
      <point x="490" y="-91"/>
      <point x="472" y="-60" type="curve"/>
      <point x="336" y="179"/>
      <point x="233" y="445"/>
      <point x="159" y="732" type="curve"/>
      <point x="154" y="753"/>
      <point x="136" y="757"/>
      <point x="120" y="757" type="curve" smooth="yes"/>
      <point x="109" y="757"/>
      <point x="101" y="754"/>
    </contour>
  </outline>
</glyph>
<glyph name="bracketright" format="1">
  <advance width="600"/>
  <unicode hex="005D"/>
  <outline>
    <contour>
      <point x="396" y="-50" type="curve" smooth="yes"/>
      <point x="396" y="705" type="line" smooth="yes"/>
      <point x="396" y="717"/>
      <point x="367" y="719"/>
      <point x="340" y="719" type="curve"/>
      <point x="340" y="-119" type="line" smooth="yes"/>
      <point x="340" y="-141"/>
      <point x="346" y="-161"/>
      <point x="374" y="-161" type="curve" smooth="yes"/>
      <point x="385" y="-161"/>
      <point x="394" y="-160"/>
      <point x="403" y="-157" type="curve"/>
      <point x="397" y="-122"/>
      <point x="396" y="-88"/>
    </contour>
    <contour>
      <point x="93" y="-106" type="line"/>
      <point x="91" y="-111"/>
      <point x="89" y="-118"/>
      <point x="89" y="-125" type="curve" smooth="yes"/>
      <point x="89" y="-134"/>
      <point x="92" y="-147"/>
      <point x="100" y="-156" type="curve" smooth="yes"/>
      <point x="104" y="-159"/>
      <point x="108" y="-161"/>
      <point x="113" y="-161" type="curve" smooth="yes"/>
      <point x="374" y="-161" type="line"/>
      <point x="374" y="-132"/>
      <point x="366" y="-106"/>
      <point x="305" y="-106" type="curve"/>
    </contour>
    <contour>
      <point x="90" y="760" type="line"/>
      <point x="90" y="756"/>
      <point x="89" y="751"/>
      <point x="89" y="747" type="curve" smooth="yes"/>
      <point x="89" y="718"/>
      <point x="98" y="705"/>
      <point x="115" y="705" type="curve" smooth="yes"/>
      <point x="396" y="705" type="line"/>
      <point x="396" y="715" type="line" smooth="yes"/>
      <point x="396" y="736"/>
      <point x="379" y="760"/>
      <point x="362" y="760" type="curve" smooth="yes"/>
    </contour>
  </outline>
</glyph>
<glyph name="asciicircum" format="1">
  <advance width="600"/>
  <unicode hex="005E"/>
  <outline>
    <contour>
      <point x="121" y="375" type="line"/>
      <point x="164" y="548"/>
      <point x="210" y="620"/>
      <point x="311" y="729" type="curve"/>
      <point x="320" y="741"/>
      <point x="313" y="752"/>
      <point x="298" y="760" type="curve"/>
      <point x="272" y="760" type="line"/>
      <point x="192" y="686"/>
      <point x="137" y="603"/>
      <point x="92" y="474" type="curve" smooth="yes"/>
      <point x="79" y="435"/>
      <point x="72" y="407"/>
      <point x="72" y="396" type="curve" smooth="yes"/>
      <point x="72" y="385"/>
      <point x="85" y="375"/>
      <point x="112" y="375" type="curve"/>
    </contour>
    <contour>
      <point x="520" y="377" type="curve"/>
      <point x="476" y="565"/>
      <point x="423" y="647"/>
      <point x="344" y="735" type="curve" smooth="yes"/>
      <point x="328" y="752"/>
      <point x="317" y="760"/>
      <point x="302" y="760" type="curve" smooth="yes"/>
      <point x="294" y="760" type="line" smooth="yes"/>
      <point x="279" y="760"/>
      <point x="267" y="747"/>
      <point x="258" y="729" type="curve"/>
      <point x="263" y="729"/>
      <point x="267" y="729"/>
      <point x="268" y="729" type="curve" smooth="yes"/>
      <point x="273" y="729"/>
      <point x="279" y="726"/>
      <point x="284" y="720" type="curve" smooth="yes"/>
      <point x="382" y="618"/>
      <point x="415" y="558"/>
      <point x="461" y="392" type="curve" smooth="yes"/>
      <point x="465" y="381"/>
      <point x="482" y="375"/>
      <point x="501" y="375" type="curve" smooth="yes"/>
      <point x="508" y="375"/>
      <point x="514" y="376"/>
    </contour>
  </outline>
</glyph>
<glyph name="underscore" format="1">
  <advance width="600"/>
  <unicode hex="005F"/>
  <outline>
    <contour>
      <point x="59" y="-97" type="line"/>
      <point x="59" y="-100"/>
      <point x="59" y="-105"/>
      <point x="59" y="-108" type="curve" smooth="yes"/>
      <point x="59" y="-126"/>
      <point x="63" y="-138"/>
      <point x="71" y="-147" type="curve" smooth="yes"/>
      <point x="75" y="-151"/>
      <point x="80" y="-153"/>
      <point x="87" y="-153" type="curve"/>
      <point x="541" y="-153" type="line"/>
      <point x="541" y="-149"/>
      <point x="541" y="-144"/>
      <point x="541" y="-140" type="curve" smooth="yes"/>
      <point x="541" y="-115"/>
      <point x="536" y="-97"/>
      <point x="515" y="-97" type="curve"/>
    </contour>
  </outline>
</glyph>
<glyph name="grave" format="1">
  <advance width="600"/>
  <unicode hex="0060"/>
  <outline>
    <contour>
      <point x="399" y="408" type="curve"/>
      <point x="340" y="503"/>
      <point x="303" y="588"/>
      <point x="283" y="712" type="curve"/>
      <point x="272" y="718"/>
      <point x="262" y="720"/>
      <point x="246" y="720" type="curve" smooth="yes"/>
      <point x="222" y="720"/>
      <point x="197" y="712"/>
      <point x="197" y="683" type="curve" smooth="yes"/>
      <point x="197" y="609"/>
      <point x="281" y="453"/>
      <point x="331" y="404" type="curve" smooth="yes"/>
      <point x="338" y="398"/>
      <point x="343" y="396"/>
      <point x="355" y="396" type="curve" smooth="yes"/>
      <point x="373" y="396"/>
      <point x="385" y="399"/>
    </contour>
  </outline>
</glyph>
<glyph name="a" format="1">
  <advance width="600"/>
  <unicode hex="0061"/>
  <outline>
    <contour>
      <point x="284" y="537" type="curve" smooth="yes"/>
      <point x="222" y="537"/>
      <point x="148" y="526"/>
      <point x="129" y="507" type="curve" smooth="yes"/>
      <point x="121" y="499"/>
      <point x="118" y="488"/>
      <point x="118" y="472" type="curve" smooth="yes"/>
      <point x="118" y="466"/>
      <point x="119" y="460"/>
      <point x="121" y="455" type="curve"/>
      <point x="125" y="455" type="line"/>
      <point x="162" y="471"/>
      <point x="218" y="482"/>
      <point x="274" y="482" type="curve" smooth="yes"/>
      <point x="403" y="482"/>
      <point x="442" y="432"/>
      <point x="453" y="326" type="curve"/>
      <point x="471" y="326"/>
      <point x="480" y="335"/>
      <point x="480" y="352" type="curve"/>
      <point x="480" y="467"/>
      <point x="410" y="537"/>
    </contour>
    <contour>
      <point x="377" y="482" type="curve"/>
      <point x="411" y="442"/>
      <point x="425" y="414"/>
      <point x="425" y="351" type="curve" smooth="yes"/>
      <point x="425" y="255"/>
      <point x="425" y="180"/>
      <point x="425" y="103" type="curve" smooth="yes"/>
      <point x="425" y="37"/>
      <point x="457" y="23"/>
      <point x="494" y="31" type="curve"/>
      <point x="482" y="55"/>
      <point x="480" y="71"/>
      <point x="480" y="101" type="curve" smooth="yes"/>
      <point x="480" y="194"/>
      <point x="480" y="231"/>
      <point x="480" y="352" type="curve" smooth="yes"/>
      <point x="480" y="430"/>
      <point x="428" y="491"/>
    </contour>
    <contour>
      <point x="559" y="55" type="line"/>
      <point x="555" y="55" type="line"/>
      <point x="543" y="49"/>
      <point x="528" y="45"/>
      <point x="512" y="45" type="curve" smooth="yes"/>
      <point x="490" y="45"/>
      <point x="471" y="51"/>
      <point x="469" y="129" type="curve"/>
      <point x="436" y="131"/>
      <point x="425" y="123"/>
      <point x="425" y="103" type="curve" smooth="yes"/>
      <point x="425" y="28"/>
      <point x="453" y="-10"/>
      <point x="511" y="-10" type="curve" smooth="yes"/>
      <point x="514" y="-10" type="line" smooth="yes"/>
      <point x="550" y="-10"/>
      <point x="559" y="15"/>
      <point x="559" y="47" type="curve"/>
    </contour>
    <contour>
      <point x="144" y="132" type="curve" smooth="yes"/>
      <point x="144" y="135" type="line" smooth="yes"/>
      <point x="144" y="190"/>
      <point x="172" y="219"/>
      <point x="194" y="238" type="curve"/>
      <point x="136" y="253"/>
      <point x="88" y="181"/>
      <point x="88" y="135" type="curve" smooth="yes"/>
      <point x="88" y="130" type="line" smooth="yes"/>
      <point x="88" y="41"/>
      <point x="143" y="-10"/>
      <point x="237" y="-10" type="curve" smooth="yes"/>
      <point x="328" y="-10"/>
      <point x="395" y="44"/>
      <point x="431" y="102" type="curve" smooth="yes"/>
      <point x="442" y="119"/>
      <point x="445" y="135"/>
      <point x="444" y="172" type="curve"/>
      <point x="377" y="80"/>
      <point x="305" y="46"/>
      <point x="242" y="46" type="curve" smooth="yes"/>
      <point x="239" y="46" type="line" smooth="yes"/>
      <point x="177" y="46"/>
      <point x="144" y="73"/>
    </contour>
    <contour>
      <point x="443" y="267" type="curve" smooth="yes"/>
      <point x="429" y="281"/>
      <point x="370" y="293"/>
      <point x="278" y="293" type="curve" smooth="yes"/>
      <point x="160" y="293"/>
      <point x="90" y="230"/>
      <point x="88" y="135" type="curve" smooth="yes"/>
      <point x="88" y="122"/>
      <point x="94" y="118"/>
      <point x="117" y="118" type="curve"/>
      <point x="138" y="200"/>
      <point x="180" y="241"/>
      <point x="284" y="241" type="curve" smooth="yes"/>
      <point x="341" y="241"/>
      <point x="397" y="237"/>
      <point x="453" y="224" type="curve"/>
      <point x="453" y="246"/>
      <point x="452" y="258"/>
    </contour>
    <contour>
      <point x="284" y="538" type="move" name="top"/>
    </contour>
    <contour>
      <point x="530" y="9" type="move" name="ogonek"/>
    </contour>
    <contour>
      <point x="324" y="-1" type="move" name="bottom"/>
    </contour>
  </outline>
</glyph>
<glyph name="d" format="1">
  <advance width="600"/>
  <unicode hex="0064"/>
  <outline>
    <contour>
      <point x="291" y="537" type="curve" smooth="yes"/>
      <point x="156" y="537"/>
      <point x="73" y="438"/>
      <point x="73" y="212" type="curve" smooth="yes"/>
      <point x="73" y="195" type="line" smooth="yes"/>
      <point x="73" y="141"/>
      <point x="107" y="58"/>
      <point x="138" y="58" type="curve" smooth="yes"/>
      <point x="148" y="58"/>
      <point x="154" y="60"/>
      <point x="156" y="67" type="curve"/>
      <point x="132" y="115"/>
      <point x="129" y="157"/>
      <point x="129" y="204" type="curve" smooth="yes"/>
      <point x="129" y="213" type="line" smooth="yes"/>
      <point x="129" y="391"/>
      <point x="180" y="482"/>
      <point x="288" y="482" type="curve" smooth="yes"/>
      <point x="357" y="482"/>
      <point x="393" y="454"/>
      <point x="445" y="396" type="curve"/>
      <point x="451" y="398"/>
      <point x="455" y="413"/>
      <point x="454" y="420" type="curve" smooth="yes"/>
      <point x="452" y="474"/>
      <point x="377" y="537"/>
    </contour>
    <contour>
      <point x="232" y="-10" type="curve" smooth="yes"/>
      <point x="321" y="-10"/>
      <point x="406" y="64"/>
      <point x="445" y="179" type="curve" smooth="yes"/>
      <point x="457" y="215"/>
      <point x="455" y="247"/>
      <point x="444" y="272" type="curve"/>
      <point x="375" y="103"/>
      <point x="305" y="46"/>
      <point x="228" y="46" type="curve" smooth="yes"/>
      <point x="169" y="46"/>
      <point x="125" y="109"/>
      <point x="114" y="209" type="curve"/>
      <point x="82" y="208"/>
      <point x="73" y="202"/>
      <point x="73" y="195" type="curve" smooth="yes"/>
      <point x="73" y="69"/>
      <point x="134" y="-10"/>
    </contour>
    <contour>
      <point x="426" y="755" type="curve"/>
      <point x="435" y="727"/>
      <point x="437" y="713"/>
      <point x="437" y="667" type="curve" smooth="yes"/>
      <point x="437" y="77" type="line"/>
      <point x="437" y="46"/>
      <point x="440" y="22"/>
      <point x="453" y="9" type="curve" smooth="yes"/>
      <point x="464" y="-2"/>
      <point x="476" y="-4"/>
      <point x="486" y="-4" type="curve" smooth="yes"/>
      <point x="492" y="-4"/>
      <point x="498" y="-3"/>
      <point x="504" y="-1" type="curve"/>
      <point x="495" y="27"/>
      <point x="492" y="41"/>
      <point x="492" y="87" type="curve" smooth="yes"/>
      <point x="492" y="685" type="line"/>
      <point x="492" y="712"/>
      <point x="490" y="733"/>
      <point x="478" y="745" type="curve" smooth="yes"/>
      <point x="468" y="756"/>
      <point x="456" y="758"/>
      <point x="445" y="758" type="curve" smooth="yes"/>
      <point x="439" y="758"/>
      <point x="432" y="757"/>
    </contour>
    <contour>
      <point x="561" y="683" type="move" name="caronslovak"/>
    </contour>
  </outline>
</glyph>
<glyph name="g" format="1">
  <advance width="600"/>
  <unicode hex="0067"/>
  <outline>
    <contour>
      <point x="300" y="483" type="curve" smooth="yes"/>
      <point x="364" y="483"/>
      <point x="405" y="470"/>
      <point x="455" y="431" type="curve"/>
      <point x="482" y="475"/>
      <point x="390" y="537"/>
      <point x="297" y="537" type="curve" smooth="yes"/>
      <point x="177" y="537"/>
      <point x="84" y="464"/>
      <point x="84" y="352" type="curve" smooth="yes"/>
      <point x="84" y="348" type="line" smooth="yes"/>
      <point x="84" y="229"/>
      <point x="168" y="158"/>
      <point x="297" y="160" type="curve" smooth="yes"/>
      <point x="323" y="160"/>
      <point x="326" y="175"/>
      <point x="326" y="193" type="curve"/>
      <point x="170" y="193"/>
      <point x="139" y="289"/>
      <point x="139" y="337" type="curve" smooth="yes"/>
      <point x="139" y="341" type="line" smooth="yes"/>
      <point x="139" y="437"/>
      <point x="203" y="483"/>
    </contour>
    <contour>
      <point x="295" y="214" type="curve" smooth="yes"/>
      <point x="233" y="214"/>
      <point x="193" y="228"/>
      <point x="142" y="266" type="curve"/>
      <point x="118" y="222"/>
      <point x="208" y="160"/>
      <point x="297" y="160" type="curve" smooth="yes"/>
      <point x="418" y="160"/>
      <point x="511" y="235"/>
      <point x="511" y="348" type="curve" smooth="yes"/>
      <point x="511" y="352" type="line" smooth="yes"/>
      <point x="511" y="469"/>
      <point x="426" y="539"/>
      <point x="297" y="537" type="curve" smooth="yes"/>
      <point x="271" y="537"/>
      <point x="268" y="522"/>
      <point x="268" y="504" type="curve"/>
      <point x="425" y="504"/>
      <point x="456" y="410"/>
      <point x="456" y="364" type="curve" smooth="yes"/>
      <point x="456" y="359" type="line" smooth="yes"/>
      <point x="456" y="262"/>
      <point x="391" y="214"/>
    </contour>
    <contour>
      <point x="198" y="81" type="curve" smooth="yes"/>
      <point x="198" y="76" type="line" smooth="yes"/>
      <point x="198" y="28"/>
      <point x="228" y="-6"/>
      <point x="294" y="-10" type="curve" smooth="yes"/>
      <point x="394" y="-15" type="line" smooth="yes"/>
      <point x="458" y="-19"/>
      <point x="487" y="-51"/>
      <point x="487" y="-104" type="curve" smooth="yes"/>
      <point x="487" y="-107" type="line" smooth="yes"/>
      <point x="487" y="-174"/>
      <point x="442" y="-212"/>
      <point x="261" y="-212" type="curve"/>
      <point x="261" y="-240"/>
      <point x="271" y="-250"/>
      <point x="288" y="-250" type="curve" smooth="yes"/>
      <point x="502" y="-250"/>
      <point x="542" y="-171"/>
      <point x="542" y="-89" type="curve" smooth="yes"/>
      <point x="542" y="-86" type="line" smooth="yes"/>
      <point x="542" y="-16"/>
      <point x="497" y="34"/>
      <point x="405" y="40" type="curve" smooth="yes"/>
      <point x="302" y="47" type="line" smooth="yes"/>
      <point x="265" y="49"/>
      <point x="253" y="61"/>
      <point x="253" y="84" type="curve" smooth="yes"/>
      <point x="253" y="88" type="line" smooth="yes"/>
      <point x="253" y="121"/>
      <point x="267" y="147"/>
      <point x="301" y="175" type="curve"/>
      <point x="300" y="189"/>
      <point x="292" y="193"/>
      <point x="269" y="193" type="curve" smooth="yes"/>
      <point x="242" y="193"/>
      <point x="198" y="134"/>
    </contour>
    <contour>
      <point x="502" y="-141" type="curve"/>
      <point x="441" y="-192"/>
      <point x="395" y="-197"/>
      <point x="303" y="-197" type="curve" smooth="yes"/>
      <point x="256" y="-197" type="line" smooth="yes"/>
      <point x="165" y="-197"/>
      <point x="114" y="-169"/>
      <point x="114" y="-114" type="curve" smooth="yes"/>
      <point x="114" y="-109" type="line" smooth="yes"/>
      <point x="114" y="-41"/>
      <point x="157" y="-3"/>
      <point x="244" y="9" type="curve"/>
      <point x="240" y="30"/>
      <point x="235" y="44"/>
      <point x="222" y="43" type="curve" smooth="yes"/>
      <point x="127" y="34"/>
      <point x="58" y="-25"/>
      <point x="58" y="-113" type="curve" smooth="yes"/>
      <point x="58" y="-118" type="line" smooth="yes"/>
      <point x="58" y="-190"/>
      <point x="126" y="-250"/>
      <point x="243" y="-250" type="curve" smooth="yes"/>
      <point x="288" y="-250" type="line" smooth="yes"/>
      <point x="449" y="-250"/>
      <point x="526" y="-205"/>
    </contour>
    <contour>
      <point x="451" y="473" type="curve" smooth="yes"/>
      <point x="493" y="515" type="line" smooth="yes"/>
      <point x="540" y="562"/>
      <point x="547" y="584"/>
      <point x="547" y="607" type="curve" smooth="yes"/>
      <point x="547" y="609" type="line" smooth="yes"/>
      <point x="547" y="635"/>
      <point x="524" y="643"/>
      <point x="500" y="643" type="curve" smooth="yes"/>
      <point x="492" y="643"/>
      <point x="487" y="642"/>
      <point x="482" y="640" type="curve"/>
      <point x="484" y="633"/>
      <point x="485" y="628"/>
      <point x="485" y="620" type="curve" smooth="yes"/>
      <point x="485" y="605"/>
      <point x="480" y="590"/>
      <point x="459" y="559" type="curve" smooth="yes"/>
      <point x="409" y="486" type="line"/>
      <point x="416" y="474"/>
      <point x="439" y="461"/>
    </contour>
  </outline>
</glyph>
<glyph name="h" format="1">
  <advance width="600"/>
  <unicode hex="0068"/>
  <outline>
    <contour>
      <point x="154" y="-5" type="curve"/>
      <point x="154" y="681" type="line" smooth="yes"/>
      <point x="154" y="710"/>
      <point x="152" y="732"/>
      <point x="139" y="745" type="curve" smooth="yes"/>
      <point x="129" y="756"/>
      <point x="117" y="758"/>
      <point x="104" y="758" type="curve" smooth="yes"/>
      <point x="99" y="758"/>
      <point x="93" y="757"/>
      <point x="87" y="755" type="curve"/>
      <point x="96" y="727"/>
      <point x="98" y="713"/>
      <point x="98" y="667" type="curve" smooth="yes"/>
      <point x="98" y="20" type="line" smooth="yes"/>
      <point x="98" y="0"/>
      <point x="118" y="-5"/>
      <point x="142" y="-5" type="curve" smooth="yes"/>
      <point x="146" y="-5"/>
      <point x="150" y="-5"/>
    </contour>
    <contour>
      <point x="377" y="538" type="curve" smooth="yes"/>
      <point x="288" y="538"/>
      <point x="204" y="447"/>
      <point x="146" y="330" type="curve" smooth="yes"/>
      <point x="131" y="297"/>
      <point x="129" y="262"/>
      <point x="145" y="221" type="curve"/>
      <point x="192" y="360"/>
      <point x="285" y="481"/>
      <point x="374" y="481" type="curve" smooth="yes"/>
      <point x="423" y="481"/>
      <point x="450" y="442"/>
      <point x="457" y="367" type="curve"/>
      <point x="497" y="369"/>
      <point x="502" y="383"/>
      <point x="502" y="396" type="curve" smooth="yes"/>
      <point x="502" y="471"/>
      <point x="455" y="538"/>
    </contour>
    <contour>
      <point x="513" y="0" type="curve"/>
      <point x="504" y="44"/>
      <point x="502" y="78"/>
      <point x="502" y="126" type="curve" smooth="yes"/>
      <point x="502" y="396" type="line"/>
      <point x="502" y="430"/>
      <point x="486" y="449"/>
      <point x="457" y="449" type="curve"/>
      <point x="447" y="292"/>
      <point x="443" y="238"/>
      <point x="443" y="135" type="curve" smooth="yes"/>
      <point x="443" y="130" type="line" smooth="yes"/>
      <point x="443" y="25"/>
      <point x="469" y="-2"/>
      <point x="499" y="-2" type="curve" smooth="yes"/>
      <point x="504" y="-2"/>
      <point x="509" y="-1"/>
    </contour>
    <contour>
      <point x="122" y="730" type="move" name="top"/>
    </contour>
  </outline>
</glyph>
<glyph name="i" format="1">
  <advance width="600"/>
  <unicode hex="0069"/>
  <outline>
    <contour>
      <point x="77" y="527" type="curve"/>
      <point x="75" y="521"/>
      <point x="74" y="514"/>
      <point x="74" y="507" type="curve" smooth="yes"/>
      <point x="74" y="485"/>
      <point x="82" y="471"/>
      <point x="98" y="471" type="curve" smooth="yes"/>
      <point x="119" y="471"/>
      <point x="189" y="481"/>
      <point x="311" y="483" type="curve"/>
      <point x="311" y="522"/>
      <point x="306" y="537"/>
      <point x="287" y="537" type="curve" smooth="yes"/>
      <point x="228" y="537"/>
      <point x="164" y="534"/>
    </contour>
    <contour>
      <point x="337" y="525" type="curve" smooth="yes"/>
      <point x="328" y="533"/>
      <point x="316" y="537"/>
      <point x="297" y="537" type="curve" smooth="yes"/>
      <point x="287" y="537" type="line"/>
      <point x="287" y="106" type="line" smooth="yes"/>
      <point x="287" y="54"/>
      <point x="302" y="28"/>
      <point x="343" y="28" type="curve"/>
      <point x="343" y="511" type="line" smooth="yes"/>
      <point x="343" y="517"/>
      <point x="341" y="521"/>
    </contour>
    <contour>
      <point x="62" y="55" type="line"/>
      <point x="60" y="51"/>
      <point x="59" y="46"/>
      <point x="59" y="39" type="curve" smooth="yes"/>
      <point x="59" y="26"/>
      <point x="62" y="15"/>
      <point x="69" y="8" type="curve" smooth="yes"/>
      <point x="75" y="2"/>
      <point x="81" y="0"/>
      <point x="93" y="0" type="curve"/>
      <point x="560" y="0" type="line"/>
      <point x="560" y="3"/>
      <point x="560" y="7"/>
      <point x="560" y="10" type="curve" smooth="yes"/>
      <point x="560" y="35"/>
      <point x="462" y="55"/>
      <point x="341" y="55" type="curve"/>
    </contour>
    <contour>
      <point x="353" y="664" type="curve"/>
      <point x="353" y="717" type="line" smooth="yes"/>
      <point x="353" y="741"/>
      <point x="333" y="754"/>
      <point x="300" y="754" type="curve" smooth="yes"/>
      <point x="287" y="754"/>
      <point x="276" y="753"/>
      <point x="267" y="751" type="curve"/>
      <point x="267" y="697" type="line" smooth="yes"/>
      <point x="267" y="673"/>
      <point x="288" y="661"/>
      <point x="320" y="661" type="curve" smooth="yes"/>
      <point x="333" y="661"/>
      <point x="344" y="662"/>
    </contour>
    <contour>
      <point x="561" y="0" type="move" name="ogonek"/>
    </contour>
    <contour>
      <point x="310" y="-1" type="move" name="bottom"/>
    </contour>
  </outline>
</glyph>
<glyph name="j" format="1">
  <advance width="600"/>
  <unicode hex="006A"/>
  <outline>
    <contour>
      <point x="77" y="527" type="curve"/>
      <point x="75" y="521"/>
      <point x="74" y="514"/>
      <point x="74" y="507" type="curve" smooth="yes"/>
      <point x="74" y="485"/>
      <point x="82" y="471"/>
      <point x="98" y="471" type="curve" smooth="yes"/>
      <point x="128" y="471"/>
      <point x="226" y="481"/>
      <point x="395" y="482" type="curve"/>
      <point x="395" y="521"/>
      <point x="390" y="537"/>
      <point x="371" y="537" type="curve" smooth="yes"/>
      <point x="289" y="537"/>
      <point x="198" y="537"/>
    </contour>
    <contour>
      <point x="426" y="0" type="curve" smooth="yes"/>
      <point x="426" y="511" type="line" smooth="yes"/>
      <point x="426" y="517"/>
      <point x="424" y="521"/>
      <point x="421" y="525" type="curve" smooth="yes"/>
      <point x="412" y="533"/>
      <point x="394" y="537"/>
      <point x="376" y="537" type="curve" smooth="yes"/>
      <point x="371" y="537" type="line"/>
      <point x="371" y="0" type="line" smooth="yes"/>
      <point x="371" y="-116"/>
      <point x="353" y="-146"/>
      <point x="292" y="-198" type="curve"/>
      <point x="331" y="-234"/>
      <point x="426" y="-129"/>
    </contour>
    <contour>
      <point x="209" y="-195" type="curve" smooth="yes"/>
      <point x="141" y="-195"/>
      <point x="105" y="-186"/>
      <point x="54" y="-154" type="curve"/>
      <point x="50" y="-154" type="line"/>
      <point x="49" y="-160"/>
      <point x="48" y="-169"/>
      <point x="48" y="-176" type="curve" smooth="yes"/>
      <point x="48" y="-192"/>
      <point x="52" y="-205"/>
      <point x="60" y="-212" type="curve" smooth="yes"/>
      <point x="80" y="-233"/>
      <point x="135" y="-250"/>
      <point x="200" y="-250" type="curve" smooth="yes"/>
      <point x="361" y="-250"/>
      <point x="426" y="-172"/>
      <point x="426" y="0" type="curve" smooth="yes"/>
      <point x="426" y="6"/>
      <point x="408" y="18"/>
      <point x="405" y="18" type="curve"/>
      <point x="385" y="-171"/>
      <point x="292" y="-195"/>
    </contour>
    <contour>
      <point x="436" y="664" type="curve"/>
      <point x="436" y="717" type="line" smooth="yes"/>
      <point x="436" y="741"/>
      <point x="417" y="754"/>
      <point x="383" y="754" type="curve" smooth="yes"/>
      <point x="371" y="754"/>
      <point x="359" y="753"/>
      <point x="351" y="751" type="curve"/>
      <point x="351" y="697" type="line" smooth="yes"/>
      <point x="351" y="673"/>
      <point x="371" y="661"/>
      <point x="404" y="661" type="curve" smooth="yes"/>
      <point x="416" y="661"/>
      <point x="428" y="662"/>
    </contour>
  </outline>
</glyph>
<glyph name="k" format="1">
  <advance width="600"/>
  <unicode hex="006B"/>
  <outline>
    <contour>
      <point x="154" y="-6" type="curve"/>
      <point x="154" y="684" type="line" smooth="yes"/>
      <point x="154" y="713"/>
      <point x="152" y="734"/>
      <point x="140" y="747" type="curve" smooth="yes"/>
      <point x="129" y="757"/>
      <point x="116" y="760"/>
      <point x="105" y="760" type="curve" smooth="yes"/>
      <point x="99" y="760"/>
      <point x="93" y="759"/>
      <point x="87" y="757" type="curve"/>
      <point x="96" y="729"/>
      <point x="98" y="715"/>
      <point x="98" y="669" type="curve" smooth="yes"/>
      <point x="98" y="19" type="line" smooth="yes"/>
      <point x="98" y="-1"/>
      <point x="118" y="-6"/>
      <point x="142" y="-6" type="curve" smooth="yes"/>
      <point x="146" y="-6"/>
      <point x="151" y="-6"/>
    </contour>
    <contour>
      <point x="454" y="533" type="line"/>
      <point x="368" y="350"/>
      <point x="266" y="258"/>
      <point x="125" y="221" type="curve"/>
      <point x="124" y="186"/>
      <point x="131" y="171"/>
      <point x="145" y="174" type="curve" smooth="yes"/>
      <point x="291" y="209"/>
      <point x="408" y="311"/>
      <point x="496" y="487" type="curve" smooth="yes"/>
      <point x="502" y="498"/>
      <point x="505" y="506"/>
      <point x="505" y="510" type="curve" smooth="yes"/>
      <point x="505" y="520"/>
      <point x="497" y="533"/>
      <point x="465" y="533" type="curve"/>
    </contour>
    <contour>
      <point x="527" y="-10" type="curve" smooth="yes"/>
      <point x="536" y="-10"/>
      <point x="544" y="-9"/>
      <point x="550" y="-6" type="curve"/>
      <point x="459" y="78"/>
      <point x="376" y="179"/>
      <point x="310" y="285" type="curve"/>
      <point x="279" y="278"/>
      <point x="259" y="265"/>
      <point x="273" y="242" type="curve" smooth="yes"/>
      <point x="322" y="163"/>
      <point x="396" y="70"/>
      <point x="450" y="17" type="curve" smooth="yes"/>
      <point x="470" y="-4"/>
      <point x="492" y="-10"/>
    </contour>
    <contour>
      <point x="318" y="-1" type="move" name="bottom"/>
    </contour>
  </outline>
</glyph>
<glyph name="l" format="1">
  <advance width="600"/>
  <unicode hex="006C"/>
  <outline>
    <contour>
      <point x="77" y="750" type="curve"/>
      <point x="75" y="744"/>
      <point x="74" y="738"/>
      <point x="74" y="730" type="curve" smooth="yes"/>
      <point x="74" y="709"/>
      <point x="82" y="695"/>
      <point x="98" y="695" type="curve" smooth="yes"/>
      <point x="119" y="695"/>
      <point x="189" y="704"/>
      <point x="311" y="707" type="curve"/>
      <point x="311" y="745"/>
      <point x="306" y="760"/>
      <point x="287" y="760" type="curve" smooth="yes"/>
      <point x="228" y="760"/>
      <point x="164" y="757"/>
    </contour>
    <contour>
      <point x="337" y="748" type="curve" smooth="yes"/>
      <point x="328" y="757"/>
      <point x="316" y="760"/>
      <point x="297" y="760" type="curve" smooth="yes"/>
      <point x="287" y="760" type="line"/>
      <point x="287" y="106" type="line" smooth="yes"/>
      <point x="287" y="54"/>
      <point x="302" y="28"/>
      <point x="343" y="28" type="curve"/>
      <point x="343" y="734" type="line" smooth="yes"/>
      <point x="343" y="740"/>
      <point x="341" y="744"/>
    </contour>
    <contour>
      <point x="62" y="55" type="line"/>
      <point x="60" y="51"/>
      <point x="59" y="46"/>
      <point x="59" y="39" type="curve" smooth="yes"/>
      <point x="59" y="26"/>
      <point x="62" y="15"/>
      <point x="69" y="8" type="curve" smooth="yes"/>
      <point x="75" y="2"/>
      <point x="81" y="0"/>
      <point x="93" y="0" type="curve"/>
      <point x="560" y="0" type="line"/>
      <point x="560" y="3"/>
      <point x="560" y="7"/>
      <point x="560" y="10" type="curve" smooth="yes"/>
      <point x="560" y="35"/>
      <point x="462" y="55"/>
      <point x="341" y="55" type="curve"/>
    </contour>
    <contour>
      <point x="510" y="658" type="move" name="caronslovak"/>
    </contour>
    <contour>
      <point x="311" y="732" type="move" name="top"/>
    </contour>
    <contour>
      <point x="463" y="400" type="move" name="dot"/>
    </contour>
    <contour>
      <point x="310" y="-1" type="move" name="bottom"/>
    </contour>
  </outline>
</glyph>
<glyph name="m" format="1">
  <advance width="600"/>
  <unicode hex="006D"/>
  <outline>
    <contour>
      <point x="104" y="-6" type="curve"/>
      <point x="104" y="455" type="line" smooth="yes"/>
      <point x="104" y="485"/>
      <point x="102" y="507"/>
      <point x="90" y="519" type="curve" smooth="yes"/>
      <point x="79" y="530"/>
      <point x="67" y="532"/>
      <point x="56" y="532" type="curve" smooth="yes"/>
      <point x="50" y="532"/>
      <point x="44" y="531"/>
      <point x="38" y="529" type="curve"/>
      <point x="47" y="501"/>
      <point x="49" y="487"/>
      <point x="49" y="441" type="curve" smooth="yes"/>
      <point x="49" y="19" type="line" smooth="yes"/>
      <point x="49" y="-1"/>
      <point x="68" y="-6"/>
      <point x="92" y="-6" type="curve" smooth="yes"/>
      <point x="96" y="-6"/>
      <point x="101" y="-6"/>
    </contour>
    <contour>
      <point x="234" y="537" type="curve" smooth="yes"/>
      <point x="176" y="537"/>
      <point x="125" y="498"/>
      <point x="85" y="386" type="curve" smooth="yes"/>
      <point x="74" y="357"/>
      <point x="80" y="337"/>
      <point x="90" y="313" type="curve"/>
      <point x="142" y="448"/>
      <point x="182" y="481"/>
      <point x="228" y="481" type="curve" smooth="yes"/>
      <point x="264" y="481"/>
      <point x="279" y="462"/>
      <point x="287" y="414" type="curve"/>
      <point x="324" y="415"/>
      <point x="327" y="415"/>
      <point x="327" y="432" type="curve" smooth="yes"/>
      <point x="327" y="477"/>
      <point x="298" y="537"/>
    </contour>
    <contour>
      <point x="327" y="0" type="curve"/>
      <point x="327" y="432" type="line" smooth="yes"/>
      <point x="327" y="464"/>
      <point x="312" y="480"/>
      <point x="286" y="480" type="curve"/>
      <point x="276" y="320"/>
      <point x="273" y="226"/>
      <point x="273" y="124" type="curve" smooth="yes"/>
      <point x="273" y="119" type="line" smooth="yes"/>
      <point x="273" y="16"/>
      <point x="291" y="-3"/>
      <point x="313" y="-3" type="curve" smooth="yes"/>
      <point x="319" y="-3"/>
      <point x="323" y="-2"/>
    </contour>
    <contour>
      <point x="461" y="537" type="curve" smooth="yes"/>
      <point x="400" y="537"/>
      <point x="336" y="474"/>
      <point x="302" y="389" type="curve" smooth="yes"/>
      <point x="289" y="357"/>
      <point x="293" y="335"/>
      <point x="309" y="324" type="curve"/>
      <point x="349" y="416"/>
      <point x="404" y="481"/>
      <point x="453" y="481" type="curve" smooth="yes"/>
      <point x="489" y="481"/>
      <point x="501" y="456"/>
      <point x="509" y="405" type="curve"/>
      <point x="548" y="406"/>
      <point x="551" y="414"/>
      <point x="551" y="432" type="curve" smooth="yes"/>
      <point x="551" y="488"/>
      <point x="520" y="537"/>
    </contour>
    <contour>
      <point x="562" y="0" type="curve"/>
      <point x="553" y="44"/>
      <point x="551" y="78"/>
      <point x="551" y="126" type="curve" smooth="yes"/>
      <point x="551" y="432" type="line" smooth="yes"/>
      <point x="551" y="465"/>
      <point x="534" y="483"/>
      <point x="506" y="483" type="curve"/>
      <point x="497" y="325"/>
      <point x="493" y="229"/>
      <point x="493" y="125" type="curve" smooth="yes"/>
      <point x="493" y="120" type="line" smooth="yes"/>
      <point x="493" y="15"/>
      <point x="518" y="-2"/>
      <point x="544" y="-2" type="curve" smooth="yes"/>
      <point x="553" y="-2"/>
      <point x="558" y="-1"/>
    </contour>
  </outline>
</glyph>
<glyph name="n" format="1">
  <advance width="600"/>
  <unicode hex="006E"/>
  <outline>
    <contour>
      <point x="154" y="-5" type="curve"/>
      <point x="154" y="454" type="line" smooth="yes"/>
      <point x="154" y="484"/>
      <point x="151" y="507"/>
      <point x="138" y="520" type="curve" smooth="yes"/>
      <point x="127" y="530"/>
      <point x="115" y="533"/>
      <point x="104" y="533" type="curve" smooth="yes"/>
      <point x="99" y="533"/>
      <point x="92" y="532"/>
      <point x="87" y="530" type="curve"/>
      <point x="96" y="502"/>
      <point x="98" y="488"/>
      <point x="98" y="442" type="curve" smooth="yes"/>
      <point x="98" y="20" type="line" smooth="yes"/>
      <point x="98" y="0"/>
      <point x="117" y="-5"/>
      <point x="141" y="-5" type="curve" smooth="yes"/>
      <point x="145" y="-5"/>
      <point x="150" y="-5"/>
    </contour>
    <contour>
      <point x="377" y="538" type="curve" smooth="yes"/>
      <point x="288" y="538"/>
      <point x="203" y="448"/>
      <point x="145" y="331" type="curve" smooth="yes"/>
      <point x="130" y="297"/>
      <point x="128" y="263"/>
      <point x="145" y="222" type="curve"/>
      <point x="192" y="359"/>
      <point x="285" y="481"/>
      <point x="374" y="481" type="curve" smooth="yes"/>
      <point x="423" y="481"/>
      <point x="450" y="442"/>
      <point x="457" y="367" type="curve"/>
      <point x="497" y="369"/>
      <point x="502" y="383"/>
      <point x="502" y="396" type="curve" smooth="yes"/>
      <point x="502" y="471"/>
      <point x="455" y="538"/>
    </contour>
    <contour>
      <point x="513" y="0" type="curve"/>
      <point x="504" y="44"/>
      <point x="502" y="78"/>
      <point x="502" y="126" type="curve" smooth="yes"/>
      <point x="502" y="396" type="line"/>
      <point x="502" y="430"/>
      <point x="486" y="449"/>
      <point x="457" y="449" type="curve"/>
      <point x="447" y="292"/>
      <point x="443" y="238"/>
      <point x="443" y="135" type="curve" smooth="yes"/>
      <point x="443" y="130" type="line" smooth="yes"/>
      <point x="443" y="25"/>
      <point x="469" y="-2"/>
      <point x="499" y="-2" type="curve" smooth="yes"/>
      <point x="504" y="-2"/>
      <point x="509" y="-1"/>
    </contour>
    <contour>
      <point x="72" y="711" type="move" name="caronslovak"/>
    </contour>
    <contour>
      <point x="300" y="538" type="move" name="top"/>
    </contour>
    <contour>
      <point x="300" y="-1" type="move" name="bottom"/>
    </contour>
  </outline>
</glyph>
<glyph name="o" format="1">
  <advance width="600"/>
  <unicode hex="006F"/>
  <outline>
    <contour>
      <point x="300" y="537" type="curve" smooth="yes"/>
      <point x="172" y="537"/>
      <point x="74" y="422"/>
      <point x="74" y="232" type="curve" smooth="yes"/>
      <point x="74" y="224" type="line" smooth="yes"/>
      <point x="74" y="75"/>
      <point x="162" y="-10"/>
      <point x="300" y="-10" type="curve" smooth="yes"/>
      <point x="320" y="-10"/>
      <point x="325" y="8"/>
      <point x="325" y="22" type="curve"/>
      <point x="169" y="41"/>
      <point x="129" y="136"/>
      <point x="129" y="226" type="curve" smooth="yes"/>
      <point x="129" y="232" type="line" smooth="yes"/>
      <point x="129" y="367"/>
      <point x="185" y="482"/>
      <point x="304" y="482" type="curve" smooth="yes"/>
      <point x="348" y="482"/>
      <point x="386" y="470"/>
      <point x="422" y="453" type="curve"/>
      <point x="441" y="470"/>
      <point x="392" y="537"/>
    </contour>
    <contour>
      <point x="300" y="-10" type="curve" smooth="yes"/>
      <point x="437" y="-10"/>
      <point x="526" y="76"/>
      <point x="526" y="227" type="curve" smooth="yes"/>
      <point x="526" y="235" type="line" smooth="yes"/>
      <point x="526" y="416"/>
      <point x="429" y="537"/>
      <point x="300" y="537" type="curve" smooth="yes"/>
      <point x="280" y="537"/>
      <point x="274" y="518"/>
      <point x="274" y="499" type="curve"/>
      <point x="409" y="488"/>
      <point x="471" y="376"/>
      <point x="471" y="234" type="curve" smooth="yes"/>
      <point x="471" y="228" type="line" smooth="yes"/>
      <point x="471" y="122"/>
      <point x="417" y="45"/>
      <point x="296" y="45" type="curve" smooth="yes"/>
      <point x="252" y="45"/>
      <point x="214" y="57"/>
      <point x="178" y="74" type="curve"/>
      <point x="158" y="54"/>
      <point x="207" y="-10"/>
    </contour>
    <contour>
      <point x="300" y="538" type="move" name="top"/>
    </contour>
    <contour>
      <point x="385" y="16" type="move" name="ogonek"/>
    </contour>
    <contour>
      <point x="300" y="-1" type="move" name="bottom"/>
    </contour>
  </outline>
</glyph>
<glyph name="p" format="1">
  <advance width="600"/>
  <unicode hex="0070"/>
  <outline>
    <contour>
      <point x="163" y="-219" type="curve"/>
      <point x="163" y="451" type="line" smooth="yes"/>
      <point x="163" y="483"/>
      <point x="160" y="505"/>
      <point x="147" y="519" type="curve" smooth="yes"/>
      <point x="137" y="529"/>
      <point x="125" y="532"/>
      <point x="114" y="532" type="curve"/>
      <point x="108" y="532"/>
      <point x="102" y="531"/>
      <point x="96" y="529" type="curve"/>
      <point x="105" y="501"/>
      <point x="108" y="487"/>
      <point x="108" y="441" type="curve" smooth="yes"/>
      <point x="108" y="-196" type="line" smooth="yes"/>
      <point x="108" y="-216"/>
      <point x="125" y="-221"/>
      <point x="147" y="-221" type="curve"/>
      <point x="153" y="-221"/>
      <point x="158" y="-220"/>
    </contour>
    <contour>
      <point x="368" y="537" type="curve" smooth="yes"/>
      <point x="279" y="537"/>
      <point x="194" y="463"/>
      <point x="155" y="348" type="curve" smooth="yes"/>
      <point x="143" y="312"/>
      <point x="145" y="280"/>
      <point x="156" y="255" type="curve"/>
      <point x="225" y="423"/>
      <point x="295" y="481"/>
      <point x="372" y="481" type="curve" smooth="yes"/>
      <point x="431" y="481"/>
      <point x="475" y="418"/>
      <point x="486" y="318" type="curve"/>
      <point x="518" y="318"/>
      <point x="527" y="325"/>
      <point x="527" y="332" type="curve" smooth="yes"/>
      <point x="527" y="458"/>
      <point x="466" y="537"/>
    </contour>
    <contour>
      <point x="309" y="-10" type="curve" smooth="yes"/>
      <point x="444" y="-10"/>
      <point x="527" y="89"/>
      <point x="527" y="314" type="curve" smooth="yes"/>
      <point x="527" y="332" type="line" smooth="yes"/>
      <point x="527" y="386"/>
      <point x="493" y="468"/>
      <point x="462" y="468" type="curve" smooth="yes"/>
      <point x="452" y="468"/>
      <point x="446" y="467"/>
      <point x="444" y="460" type="curve"/>
      <point x="468" y="412"/>
      <point x="471" y="369"/>
      <point x="471" y="323" type="curve" smooth="yes"/>
      <point x="471" y="314" type="line" smooth="yes"/>
      <point x="471" y="136"/>
      <point x="420" y="45"/>
      <point x="312" y="45" type="curve" smooth="yes"/>
      <point x="243" y="45"/>
      <point x="207" y="73"/>
      <point x="155" y="130" type="curve"/>
      <point x="149" y="129"/>
      <point x="145" y="114"/>
      <point x="146" y="106" type="curve" smooth="yes"/>
      <point x="148" y="52"/>
      <point x="223" y="-10"/>
    </contour>
  </outline>
</glyph>
<glyph name="r" format="1">
  <advance width="600"/>
  <unicode hex="0072"/>
  <outline>
    <contour>
      <point x="67" y="527" type="curve"/>
      <point x="65" y="520"/>
      <point x="64" y="514"/>
      <point x="64" y="506" type="curve" smooth="yes"/>
      <point x="64" y="484"/>
      <point x="73" y="471"/>
      <point x="88" y="471" type="curve" smooth="yes"/>
      <point x="107" y="471"/>
      <point x="138" y="482"/>
      <point x="248" y="482" type="curve"/>
      <point x="248" y="523"/>
      <point x="242" y="537"/>
      <point x="226" y="537" type="curve" smooth="yes"/>
      <point x="165" y="537"/>
      <point x="130" y="534"/>
    </contour>
    <contour>
      <point x="268" y="28" type="curve"/>
      <point x="268" y="461" type="line" smooth="yes"/>
      <point x="268" y="507"/>
      <point x="252" y="537"/>
      <point x="226" y="537" type="curve" smooth="yes"/>
      <point x="222" y="537"/>
      <point x="217" y="537"/>
      <point x="213" y="533" type="curve"/>
      <point x="213" y="105" type="line" smooth="yes"/>
      <point x="213" y="54"/>
      <point x="227" y="28"/>
    </contour>
    <contour>
      <point x="62" y="55" type="line"/>
      <point x="60" y="51"/>
      <point x="59" y="46"/>
      <point x="59" y="39" type="curve" smooth="yes"/>
      <point x="59" y="26"/>
      <point x="62" y="15"/>
      <point x="69" y="8" type="curve" smooth="yes"/>
      <point x="75" y="2"/>
      <point x="81" y="0"/>
      <point x="93" y="0" type="curve"/>
      <point x="481" y="0" type="line"/>
      <point x="481" y="3"/>
      <point x="481" y="7"/>
      <point x="481" y="10" type="curve" smooth="yes"/>
      <point x="481" y="35"/>
      <point x="390" y="55"/>
      <point x="273" y="55" type="curve"/>
    </contour>
    <contour>
      <point x="261" y="234" type="curve"/>
      <point x="309" y="402"/>
      <point x="396" y="482"/>
      <point x="476" y="482" type="curve" smooth="yes"/>
      <point x="507" y="482"/>
      <point x="524" y="477"/>
      <point x="539" y="469" type="curve"/>
      <point x="543" y="469" type="line"/>
      <point x="547" y="479"/>
      <point x="549" y="491"/>
      <point x="549" y="504" type="curve"/>
      <point x="549" y="530"/>
      <point x="531" y="541"/>
      <point x="485" y="541" type="curve" smooth="yes"/>
      <point x="482" y="541" type="line" smooth="yes"/>
      <point x="380" y="541"/>
      <point x="293" y="461"/>
      <point x="257" y="337" type="curve" smooth="yes"/>
      <point x="245" y="299"/>
      <point x="249" y="263"/>
    </contour>
    <contour>
      <point x="304" y="538" type="move" name="top"/>
    </contour>
    <contour>
      <point x="304" y="-1" type="move" name="bottom"/>
    </contour>
  </outline>
</glyph>
<glyph name="s" format="1">
  <advance width="600"/>
  <unicode hex="0073"/>
  <outline>
    <contour>
      <point x="361" y="540" type="curve" smooth="yes"/>
      <point x="355" y="540" type="line" smooth="yes"/>
      <point x="219" y="540"/>
      <point x="108" y="458"/>
      <point x="108" y="363" type="curve" smooth="yes"/>
      <point x="108" y="327"/>
      <point x="156" y="323"/>
      <point x="171" y="323" type="curve"/>
      <point x="165" y="342"/>
      <point x="164" y="356"/>
      <point x="164" y="368" type="curve" smooth="yes"/>
      <point x="164" y="430"/>
      <point x="256" y="484"/>
      <point x="355" y="484" type="curve" smooth="yes"/>
      <point x="415" y="484"/>
      <point x="450" y="477"/>
      <point x="475" y="462" type="curve"/>
      <point x="479" y="462" type="line"/>
      <point x="481" y="467"/>
      <point x="482" y="473"/>
      <point x="482" y="479" type="curve"/>
      <point x="482" y="495"/>
      <point x="483" y="505"/>
      <point x="469" y="519" type="curve" smooth="yes"/>
      <point x="455" y="532"/>
      <point x="414" y="540"/>
    </contour>
    <contour>
      <point x="366" y="272" type="curve" smooth="yes"/>
      <point x="274" y="289" type="line" smooth="yes"/>
      <point x="175" y="307"/>
      <point x="164" y="340"/>
      <point x="164" y="368" type="curve" smooth="yes"/>
      <point x="164" y="377"/>
      <point x="164" y="394"/>
      <point x="170" y="414" type="curve"/>
      <point x="131" y="401"/>
      <point x="108" y="387"/>
      <point x="108" y="363" type="curve"/>
      <point x="108" y="303"/>
      <point x="145" y="263"/>
      <point x="250" y="242" type="curve" smooth="yes"/>
      <point x="344" y="224" type="line" smooth="yes"/>
      <point x="440" y="205"/>
      <point x="461" y="171"/>
      <point x="461" y="113" type="curve" smooth="yes"/>
      <point x="461" y="106"/>
      <point x="460" y="99"/>
      <point x="460" y="93" type="curve"/>
      <point x="485" y="99"/>
      <point x="507" y="128"/>
      <point x="507" y="143" type="curve" smooth="yes"/>
      <point x="507" y="201"/>
      <point x="466" y="253"/>
    </contour>
    <contour>
      <point x="300" y="45" type="curve" smooth="yes"/>
      <point x="200" y="45"/>
      <point x="153" y="57"/>
      <point x="91" y="105" type="curve"/>
      <point x="87" y="105" type="line"/>
      <point x="86" y="101"/>
      <point x="85" y="96"/>
      <point x="85" y="87" type="curve" smooth="yes"/>
      <point x="85" y="69"/>
      <point x="88" y="49"/>
      <point x="100" y="37" type="curve" smooth="yes"/>
      <point x="127" y="9"/>
      <point x="202" y="-10"/>
      <point x="294" y="-10" type="curve" smooth="yes"/>
      <point x="299" y="-10" type="line" smooth="yes"/>
      <point x="428" y="-10"/>
      <point x="507" y="43"/>
      <point x="507" y="143" type="curve" smooth="yes"/>
      <point x="507" y="160"/>
      <point x="487" y="171"/>
      <point x="464" y="171" type="curve"/>
      <point x="464" y="165"/>
      <point x="464" y="160"/>
      <point x="464" y="157" type="curve" smooth="yes"/>
      <point x="464" y="99"/>
      <point x="417" y="45"/>
    </contour>
    <contour>
      <point x="314" y="538" type="move" name="top"/>
    </contour>
    <contour>
      <point x="319" y="-1" type="move" name="bottom"/>
    </contour>
  </outline>
</glyph>
<glyph name="t" format="1">
  <advance width="600"/>
  <unicode hex="0074"/>
  <outline>
    <contour>
      <point x="199" y="700" type="curve"/>
      <point x="199" y="145" type="line" smooth="yes"/>
      <point x="199" y="67"/>
      <point x="259" y="6"/>
      <point x="305" y="22" type="curve"/>
      <point x="271" y="51"/>
      <point x="254" y="92"/>
      <point x="254" y="163" type="curve" smooth="yes"/>
      <point x="254" y="678" type="line" smooth="yes"/>
      <point x="254" y="696"/>
      <point x="235" y="703"/>
      <point x="216" y="703" type="curve" smooth="yes"/>
      <point x="210" y="703"/>
      <point x="204" y="702"/>
    </contour>
    <contour>
      <point x="524" y="104" type="curve"/>
      <point x="520" y="104" type="line"/>
      <point x="463" y="52"/>
      <point x="425" y="36"/>
      <point x="357" y="36" type="curve" smooth="yes"/>
      <point x="292" y="36"/>
      <point x="252" y="67"/>
      <point x="223" y="166" type="curve"/>
      <point x="208" y="166"/>
      <point x="199" y="157"/>
      <point x="199" y="145" type="curve" smooth="yes"/>
      <point x="199" y="50"/>
      <point x="257" y="-20"/>
      <point x="353" y="-20" type="curve" smooth="yes"/>
      <point x="359" y="-20" type="line" smooth="yes"/>
      <point x="419" y="-20"/>
      <point x="472" y="-3"/>
      <point x="503" y="28" type="curve" smooth="yes"/>
      <point x="520" y="45"/>
      <point x="524" y="64"/>
      <point x="524" y="86" type="curve" smooth="yes"/>
      <point x="524" y="92"/>
      <point x="524" y="98"/>
    </contour>
    <contour>
      <point x="73" y="527" type="line"/>
      <point x="73" y="524"/>
      <point x="73" y="519"/>
      <point x="73" y="516" type="curve" smooth="yes"/>
      <point x="73" y="498"/>
      <point x="76" y="486"/>
      <point x="85" y="478" type="curve" smooth="yes"/>
      <point x="89" y="474"/>
      <point x="95" y="471"/>
      <point x="105" y="471" type="curve" smooth="yes"/>
      <point x="526" y="471" type="line"/>
      <point x="526" y="475"/>
      <point x="526" y="480"/>
      <point x="526" y="484" type="curve" smooth="yes"/>
      <point x="526" y="509"/>
      <point x="521" y="527"/>
      <point x="501" y="527" type="curve" smooth="yes"/>
    </contour>
    <contour>
      <point x="437" y="700" type="move" name="caronslovak"/>
    </contour>
    <contour>
      <point x="357" y="-1" type="move" name="bottom"/>
    </contour>
  </outline>
</glyph>
<glyph name="u" format="1">
  <advance width="600"/>
  <unicode hex="0075"/>
  <outline>
    <contour>
      <point x="446" y="532" type="curve"/>
      <point x="446" y="73" type="line" smooth="yes"/>
      <point x="446" y="43"/>
      <point x="449" y="20"/>
      <point x="462" y="7" type="curve" smooth="yes"/>
      <point x="473" y="-4"/>
      <point x="484" y="-6"/>
      <point x="496" y="-6" type="curve" smooth="yes"/>
      <point x="501" y="-6"/>
      <point x="507" y="-5"/>
      <point x="513" y="-3" type="curve"/>
      <point x="504" y="25"/>
      <point x="502" y="39"/>
      <point x="502" y="85" type="curve" smooth="yes"/>
      <point x="502" y="507" type="line" smooth="yes"/>
      <point x="502" y="527"/>
      <point x="482" y="532"/>
      <point x="459" y="532" type="curve" smooth="yes"/>
      <point x="455" y="532"/>
      <point x="450" y="532"/>
    </contour>
    <contour>
      <point x="222" y="-11" type="curve" smooth="yes"/>
      <point x="312" y="-11"/>
      <point x="396" y="79"/>
      <point x="454" y="196" type="curve" smooth="yes"/>
      <point x="470" y="230"/>
      <point x="471" y="264"/>
      <point x="455" y="305" type="curve"/>
      <point x="408" y="167"/>
      <point x="315" y="45"/>
      <point x="225" y="45" type="curve" smooth="yes"/>
      <point x="177" y="45"/>
      <point x="150" y="84"/>
      <point x="142" y="160" type="curve"/>
      <point x="103" y="158"/>
      <point x="98" y="144"/>
      <point x="98" y="131" type="curve" smooth="yes"/>
      <point x="98" y="55"/>
      <point x="144" y="-11"/>
    </contour>
    <contour>
      <point x="87" y="527" type="curve"/>
      <point x="96" y="483"/>
      <point x="98" y="449"/>
      <point x="98" y="401" type="curve" smooth="yes"/>
      <point x="98" y="131" type="line"/>
      <point x="98" y="97"/>
      <point x="114" y="78"/>
      <point x="143" y="78" type="curve"/>
      <point x="153" y="235"/>
      <point x="156" y="289"/>
      <point x="156" y="392" type="curve" smooth="yes"/>
      <point x="156" y="397" type="line" smooth="yes"/>
      <point x="156" y="502"/>
      <point x="130" y="529"/>
      <point x="101" y="529" type="curve" smooth="yes"/>
      <point x="95" y="529"/>
      <point x="91" y="528"/>
    </contour>
    <contour>
      <point x="300" y="538" type="move" name="top"/>
    </contour>
    <contour>
      <point x="514" y="-3" type="move" name="ogonek"/>
    </contour>
    <contour>
      <point x="300" y="-1" type="move" name="bottom"/>
    </contour>
  </outline>
</glyph>
<glyph name="v" format="1">
  <advance width="600"/>
  <unicode hex="0076"/>
  <outline>
    <contour>
      <point x="479" y="531" type="curve" smooth="yes"/>
      <point x="469" y="531" type="line"/>
      <point x="445" y="245"/>
      <point x="405" y="125"/>
      <point x="285" y="21" type="curve"/>
      <point x="270" y="8"/>
      <point x="283" y="-10"/>
      <point x="299" y="-10" type="curve"/>
      <point x="328" y="-10" type="line"/>
      <point x="450" y="86"/>
      <point x="501" y="238"/>
      <point x="522" y="502" type="curve"/>
      <point x="524" y="516"/>
      <point x="508" y="531"/>
    </contour>
    <contour>
      <point x="85" y="531" type="curve" smooth="yes"/>
      <point x="74" y="531" type="line"/>
      <point x="97" y="257"/>
      <point x="143" y="117"/>
      <point x="244" y="15" type="curve"/>
      <point x="262" y="-2"/>
      <point x="277" y="-10"/>
      <point x="296" y="-10" type="curve" smooth="yes"/>
      <point x="302" y="-10" type="line" smooth="yes"/>
      <point x="322" y="-10"/>
      <point x="332" y="0"/>
      <point x="344" y="21" type="curve"/>
      <point x="334" y="21"/>
      <point x="327" y="21"/>
      <point x="324" y="21" type="curve" smooth="yes"/>
      <point x="319" y="21"/>
      <point x="312" y="23"/>
      <point x="309" y="26" type="curve"/>
      <point x="194" y="132"/>
      <point x="151" y="260"/>
      <point x="133" y="505" type="curve"/>
      <point x="132" y="524"/>
      <point x="113" y="531"/>
    </contour>
  </outline>
</glyph>
<glyph name="w" format="1">
  <advance width="600"/>
  <unicode hex="0077"/>
  <outline>
    <contour>
      <point x="63" y="537" type="curve"/>
      <point x="63" y="198"/>
      <point x="88" y="78"/>
      <point x="160" y="5" type="curve" smooth="yes"/>
      <point x="170" y="-5"/>
      <point x="181" y="-10"/>
      <point x="191" y="-10" type="curve" smooth="yes"/>
      <point x="200" y="-10" type="line" smooth="yes"/>
      <point x="207" y="-10"/>
      <point x="207" y="17"/>
      <point x="207" y="25" type="curve" smooth="yes"/>
      <point x="139" y="101"/>
      <point x="119" y="187"/>
      <point x="119" y="517" type="curve"/>
      <point x="119" y="521"/>
      <point x="118" y="524"/>
      <point x="115" y="528" type="curve" smooth="yes"/>
      <point x="110" y="532"/>
      <point x="92" y="537"/>
      <point x="73" y="537" type="curve"/>
      <point x="70" y="537"/>
      <point x="66" y="537"/>
    </contour>
    <contour>
      <point x="290" y="449" type="curve" smooth="yes"/>
      <point x="277" y="449" type="line"/>
      <point x="277" y="272"/>
      <point x="248" y="125"/>
      <point x="174" y="17" type="curve"/>
      <point x="182" y="8"/>
      <point x="183" y="-10"/>
      <point x="191" y="-10" type="curve"/>
      <point x="212" y="-10" type="line"/>
      <point x="278" y="84"/>
      <point x="318" y="248"/>
      <point x="318" y="416" type="curve" smooth="yes"/>
      <point x="318" y="439"/>
      <point x="313" y="449"/>
    </contour>
    <contour>
      <point x="290" y="449" type="curve" smooth="yes"/>
      <point x="285" y="449" type="line"/>
      <point x="285" y="265"/>
      <point x="308" y="101"/>
      <point x="387" y="-1" type="curve" smooth="yes"/>
      <point x="392" y="-7"/>
      <point x="399" y="-10"/>
      <point x="407" y="-10" type="curve" smooth="yes"/>
      <point x="423" y="-10" type="line" smooth="yes"/>
      <point x="429" y="-10"/>
      <point x="432" y="5"/>
      <point x="432" y="24" type="curve" smooth="yes"/>
      <point x="364" y="93"/>
      <point x="326" y="256"/>
      <point x="326" y="426" type="curve" smooth="yes"/>
      <point x="326" y="438"/>
      <point x="320" y="449"/>
    </contour>
    <contour>
      <point x="485" y="537" type="curve"/>
      <point x="485" y="181"/>
      <point x="459" y="122"/>
      <point x="406" y="32" type="curve"/>
      <point x="408" y="-4"/>
      <point x="409" y="-10"/>
      <point x="413" y="-10" type="curve"/>
      <point x="442" y="-10" type="line"/>
      <point x="510" y="111"/>
      <point x="537" y="217"/>
      <point x="537" y="514" type="curve"/>
      <point x="537" y="520"/>
      <point x="536" y="524"/>
      <point x="533" y="527" type="curve" smooth="yes"/>
      <point x="528" y="532"/>
      <point x="509" y="537"/>
      <point x="495" y="537" type="curve"/>
      <point x="492" y="537"/>
      <point x="488" y="537"/>
    </contour>
    <contour>
      <point x="300" y="538" type="move" name="top"/>
    </contour>
  </outline>
</glyph>
<glyph name="x" format="1">
  <advance width="600"/>
  <unicode hex="0078"/>
  <outline>
    <contour>
      <point x="492" y="-10" type="curve" smooth="yes"/>
      <point x="512" y="-10"/>
      <point x="522" y="-8"/>
      <point x="536" y="1" type="curve"/>
      <point x="457" y="68"/>
      <point x="386" y="140"/>
      <point x="324" y="214" type="curve" smooth="yes"/>
      <point x="319" y="220"/>
      <point x="313" y="227"/>
      <point x="308" y="234" type="curve" smooth="yes"/>
      <point x="240" y="319"/>
      <point x="182" y="411"/>
      <point x="135" y="514" type="curve" smooth="yes"/>
      <point x="131" y="525"/>
      <point x="121" y="530"/>
      <point x="102" y="530" type="curve" smooth="yes"/>
      <point x="87" y="530"/>
      <point x="77" y="529"/>
      <point x="64" y="527" type="curve"/>
      <point x="119" y="403"/>
      <point x="192" y="290"/>
      <point x="271" y="192" type="curve" smooth="yes"/>
      <point x="278" y="184"/>
      <point x="284" y="176"/>
      <point x="290" y="169" type="curve" smooth="yes"/>
      <point x="340" y="110"/>
      <point x="395" y="53"/>
      <point x="449" y="5" type="curve" smooth="yes"/>
      <point x="460" y="-5"/>
      <point x="473" y="-10"/>
    </contour>
    <contour>
      <point x="484" y="531" type="curve" smooth="yes"/>
      <point x="475" y="531" type="line"/>
      <point x="423" y="411"/>
      <point x="360" y="317"/>
      <point x="292" y="235" type="curve" smooth="yes"/>
      <point x="285" y="227"/>
      <point x="277" y="219"/>
      <point x="270" y="210" type="curve" smooth="yes"/>
      <point x="214" y="148"/>
      <point x="156" y="90"/>
      <point x="88" y="31" type="curve" smooth="yes"/>
      <point x="78" y="22"/>
      <point x="76" y="18"/>
      <point x="76" y="13" type="curve" smooth="yes"/>
      <point x="76" y="1"/>
      <point x="96" y="-10"/>
      <point x="119" y="-10" type="curve" smooth="yes"/>
      <point x="122" y="-10" type="line"/>
      <point x="184" y="44"/>
      <point x="244" y="104"/>
      <point x="303" y="169" type="curve" smooth="yes"/>
      <point x="310" y="177"/>
      <point x="318" y="186"/>
      <point x="324" y="193" type="curve" smooth="yes"/>
      <point x="400" y="281"/>
      <point x="469" y="379"/>
      <point x="522" y="499" type="curve" smooth="yes"/>
      <point x="526" y="506"/>
      <point x="527" y="509"/>
      <point x="527" y="516" type="curve" smooth="yes"/>
      <point x="527" y="526"/>
      <point x="514" y="531"/>
    </contour>
  </outline>
</glyph>
<glyph name="y" format="1">
  <advance width="600"/>
  <unicode hex="0079"/>
  <outline>
    <contour>
      <point x="493" y="530" type="curve" smooth="yes"/>
      <point x="487" y="530"/>
      <point x="481" y="529"/>
      <point x="477" y="527" type="curve"/>
      <point x="440" y="146"/>
      <point x="368" y="-24"/>
      <point x="268" y="-123" type="curve" smooth="yes"/>
      <point x="220" y="-172"/>
      <point x="165" y="-199"/>
      <point x="107" y="-199" type="curve" smooth="yes"/>
      <point x="91" y="-199" type="line"/>
      <point x="91" y="-202" type="line" smooth="yes"/>
      <point x="91" y="-232"/>
      <point x="101" y="-250"/>
      <point x="120" y="-250" type="curve" smooth="yes"/>
      <point x="125" y="-250" type="line" smooth="yes"/>
      <point x="190" y="-250"/>
      <point x="252" y="-219"/>
      <point x="307" y="-164" type="curve" smooth="yes"/>
      <point x="413" y="-58"/>
      <point x="493" y="137"/>
      <point x="530" y="496" type="curve" smooth="yes"/>
      <point x="532" y="520"/>
      <point x="521" y="530"/>
    </contour>
    <contour>
      <point x="85" y="530" type="curve" smooth="yes"/>
      <point x="79" y="530"/>
      <point x="73" y="529"/>
      <point x="67" y="527" type="curve"/>
      <point x="102" y="219"/>
      <point x="152" y="139"/>
      <point x="210" y="72" type="curve" smooth="yes"/>
      <point x="247" y="31"/>
      <point x="309" y="1"/>
      <point x="372" y="1" type="curve" smooth="yes"/>
      <point x="379" y="1" type="line" smooth="yes"/>
      <point x="392" y="1"/>
      <point x="410" y="15"/>
      <point x="410" y="45" type="curve"/>
      <point x="394" y="46" type="line"/>
      <point x="326" y="47"/>
      <point x="275" y="78"/>
      <point x="250" y="107" type="curve" smooth="yes"/>
      <point x="184" y="182"/>
      <point x="148" y="315"/>
      <point x="132" y="484" type="curve" smooth="yes"/>
      <point x="128" y="525"/>
      <point x="112" y="530"/>
    </contour>
    <contour>
      <point x="300" y="538" type="move" name="top"/>
    </contour>
  </outline>
</glyph>
<glyph name="braceleft" format="1">
  <advance width="600"/>
  <unicode hex="007B"/>
  <outline>
    <contour>
      <point x="447" y="715" type="curve" smooth="yes"/>
      <point x="470" y="715"/>
      <point x="484" y="714"/>
      <point x="504" y="707" type="curve"/>
      <point x="508" y="707" type="line"/>
      <point x="510" y="713"/>
      <point x="511" y="718"/>
      <point x="511" y="726" type="curve"/>
      <point x="511" y="750"/>
      <point x="497" y="770"/>
      <point x="459" y="770" type="curve" smooth="yes"/>
      <point x="454" y="770" type="line" smooth="yes"/>
      <point x="331" y="770"/>
      <point x="240" y="733"/>
      <point x="240" y="657" type="curve" smooth="yes"/>
      <point x="240" y="654" type="line" smooth="yes"/>
      <point x="240" y="642"/>
      <point x="258" y="628"/>
      <point x="276" y="628" type="curve"/>
      <point x="290" y="694"/>
      <point x="355" y="715"/>
    </contour>
    <contour>
      <point x="353" y="471" type="curve" smooth="yes"/>
      <point x="353" y="555"/>
      <point x="294" y="619"/>
      <point x="294" y="656" type="curve" smooth="yes"/>
      <point x="294" y="674"/>
      <point x="299" y="685"/>
      <point x="309" y="703" type="curve"/>
      <point x="277" y="704"/>
      <point x="240" y="698"/>
      <point x="240" y="657" type="curve" smooth="yes"/>
      <point x="240" y="653" type="line" smooth="yes"/>
      <point x="240" y="592"/>
      <point x="298" y="548"/>
      <point x="298" y="467" type="curve" smooth="yes"/>
      <point x="298" y="390"/>
      <point x="245" y="326"/>
      <point x="122" y="326" type="curve" smooth="yes"/>
      <point x="117" y="326" type="line"/>
      <point x="117" y="316" type="line" smooth="yes"/>
      <point x="117" y="296"/>
      <point x="123" y="285"/>
      <point x="131" y="285" type="curve" smooth="yes"/>
      <point x="138" y="285" type="line" smooth="yes"/>
      <point x="260" y="285"/>
      <point x="353" y="347"/>
    </contour>
    <contour>
      <point x="353" y="127" type="curve" smooth="yes"/>
      <point x="353" y="251"/>
      <point x="261" y="316"/>
      <point x="138" y="316" type="curve" smooth="yes"/>
      <point x="129" y="316"/>
      <point x="123" y="317"/>
      <point x="117" y="319" type="curve"/>
      <point x="117" y="311" type="line" smooth="yes"/>
      <point x="117" y="290"/>
      <point x="123" y="272"/>
      <point x="140" y="272" type="curve" smooth="yes"/>
      <point x="142" y="272" type="line" smooth="yes"/>
      <point x="244" y="272"/>
      <point x="298" y="207"/>
      <point x="298" y="132" type="curve" smooth="yes"/>
      <point x="298" y="50"/>
      <point x="240" y="1"/>
      <point x="240" y="-60" type="curve" smooth="yes"/>
      <point x="240" y="-62" type="line" smooth="yes"/>
      <point x="240" y="-111"/>
      <point x="283" y="-114"/>
      <point x="313" y="-114" type="curve"/>
      <point x="297" y="-95"/>
      <point x="294" y="-80"/>
      <point x="294" y="-59" type="curve" smooth="yes"/>
      <point x="294" y="-22"/>
      <point x="353" y="43"/>
    </contour>
    <contour>
      <point x="451" y="-116" type="curve" smooth="yes"/>
      <point x="333" y="-116"/>
      <point x="286" y="-98"/>
      <point x="269" y="-22" type="curve"/>
      <point x="252" y="-25"/>
      <point x="240" y="-43"/>
      <point x="240" y="-60" type="curve" smooth="yes"/>
      <point x="240" y="-62" type="line" smooth="yes"/>
      <point x="240" y="-148"/>
      <point x="333" y="-172"/>
      <point x="463" y="-172" type="curve" smooth="yes"/>
      <point x="469" y="-172" type="line" smooth="yes"/>
      <point x="498" y="-172"/>
      <point x="511" y="-150"/>
      <point x="511" y="-116" type="curve"/>
      <point x="511" y="-108" type="line"/>
      <point x="507" y="-108" type="line"/>
      <point x="490" y="-113"/>
      <point x="474" y="-116"/>
    </contour>
  </outline>
</glyph>
<glyph name="bar" format="1">
  <advance width="600"/>
  <unicode hex="007C"/>
  <outline>
    <contour>
      <point x="265" y="760" type="curve"/>
      <point x="271" y="725"/>
      <point x="272" y="690"/>
      <point x="272" y="653" type="curve" smooth="yes"/>
      <point x="272" y="-135" type="line" smooth="yes"/>
      <point x="272" y="-154"/>
      <point x="291" y="-160"/>
      <point x="317" y="-160" type="curve" smooth="yes"/>
      <point x="320" y="-160"/>
      <point x="325" y="-160"/>
      <point x="328" y="-160" type="curve"/>
      <point x="328" y="703" type="line" smooth="yes"/>
      <point x="328" y="725"/>
      <point x="326" y="742"/>
      <point x="314" y="754" type="curve" smooth="yes"/>
      <point x="308" y="760"/>
      <point x="300" y="763"/>
      <point x="284" y="763" type="curve" smooth="yes"/>
      <point x="277" y="763"/>
      <point x="272" y="762"/>
    </contour>
  </outline>
</glyph>
<glyph name="braceright" format="1">
  <advance width="600"/>
  <unicode hex="007D"/>
  <outline>
    <contour>
      <point x="153" y="-117" type="curve" smooth="yes"/>
      <point x="130" y="-117"/>
      <point x="116" y="-116"/>
      <point x="96" y="-109" type="curve"/>
      <point x="92" y="-109" type="line"/>
      <point x="90" y="-115"/>
      <point x="89" y="-120"/>
      <point x="89" y="-128" type="curve"/>
      <point x="89" y="-152"/>
      <point x="103" y="-172"/>
      <point x="141" y="-172" type="curve" smooth="yes"/>
      <point x="146" y="-172" type="line" smooth="yes"/>
      <point x="269" y="-172"/>
      <point x="360" y="-135"/>
      <point x="360" y="-59" type="curve" smooth="yes"/>
      <point x="360" y="-56" type="line" smooth="yes"/>
      <point x="360" y="-44"/>
      <point x="342" y="-30"/>
      <point x="324" y="-30" type="curve"/>
      <point x="310" y="-96"/>
      <point x="245" y="-117"/>
    </contour>
    <contour>
      <point x="247" y="127" type="curve" smooth="yes"/>
      <point x="247" y="43"/>
      <point x="306" y="-21"/>
      <point x="306" y="-58" type="curve" smooth="yes"/>
      <point x="306" y="-76"/>
      <point x="301" y="-87"/>
      <point x="291" y="-105" type="curve"/>
      <point x="323" y="-106"/>
      <point x="360" y="-100"/>
      <point x="360" y="-59" type="curve" smooth="yes"/>
      <point x="360" y="-55" type="line" smooth="yes"/>
      <point x="360" y="6"/>
      <point x="302" y="50"/>
      <point x="302" y="131" type="curve" smooth="yes"/>
      <point x="302" y="208"/>
      <point x="355" y="272"/>
      <point x="478" y="272" type="curve" smooth="yes"/>
      <point x="483" y="272" type="line"/>
      <point x="483" y="282" type="line" smooth="yes"/>
      <point x="483" y="302"/>
      <point x="477" y="313"/>
      <point x="469" y="313" type="curve" smooth="yes"/>
      <point x="462" y="313" type="line" smooth="yes"/>
      <point x="340" y="313"/>
      <point x="247" y="251"/>
    </contour>
    <contour>
      <point x="247" y="471" type="curve" smooth="yes"/>
      <point x="247" y="347"/>
      <point x="339" y="282"/>
      <point x="462" y="282" type="curve" smooth="yes"/>
      <point x="471" y="282"/>
      <point x="477" y="281"/>
      <point x="483" y="279" type="curve"/>
      <point x="483" y="287" type="line" smooth="yes"/>
      <point x="483" y="308"/>
      <point x="477" y="326"/>
      <point x="460" y="326" type="curve" smooth="yes"/>
      <point x="458" y="326" type="line" smooth="yes"/>
      <point x="356" y="326"/>
      <point x="302" y="391"/>
      <point x="302" y="466" type="curve" smooth="yes"/>
      <point x="302" y="548"/>
      <point x="360" y="597"/>
      <point x="360" y="658" type="curve" smooth="yes"/>
      <point x="360" y="660" type="line" smooth="yes"/>
      <point x="360" y="709"/>
      <point x="317" y="712"/>
      <point x="287" y="712" type="curve"/>
      <point x="303" y="693"/>
      <point x="306" y="678"/>
      <point x="306" y="657" type="curve" smooth="yes"/>
      <point x="306" y="620"/>
      <point x="247" y="555"/>
    </contour>
    <contour>
      <point x="149" y="714" type="curve" smooth="yes"/>
      <point x="267" y="714"/>
      <point x="314" y="696"/>
      <point x="331" y="620" type="curve"/>
      <point x="348" y="623"/>
      <point x="360" y="641"/>
      <point x="360" y="658" type="curve" smooth="yes"/>
      <point x="360" y="660" type="line" smooth="yes"/>
      <point x="360" y="746"/>
      <point x="267" y="770"/>
      <point x="137" y="770" type="curve" smooth="yes"/>
      <point x="131" y="770" type="line" smooth="yes"/>
      <point x="102" y="770"/>
      <point x="89" y="748"/>
      <point x="89" y="714" type="curve"/>
      <point x="89" y="706" type="line"/>
      <point x="93" y="706" type="line"/>
      <point x="110" y="711"/>
      <point x="126" y="714"/>
    </contour>
  </outline>
</glyph>
<glyph name="asciitilde" format="1">
  <advance width="600"/>
  <unicode hex="007E"/>
  <outline>
    <contour>
      <point x="428" y="278" type="curve" smooth="yes"/>
      <point x="338" y="278"/>
      <point x="261" y="379"/>
      <point x="169" y="379" type="curve" smooth="yes"/>
      <point x="116" y="379"/>
      <point x="81" y="357"/>
      <point x="65" y="330" type="curve" smooth="yes"/>
      <point x="59" y="319"/>
      <point x="56" y="310"/>
      <point x="56" y="295" type="curve" smooth="yes"/>
      <point x="56" y="285"/>
      <point x="58" y="275"/>
      <point x="63" y="268" type="curve"/>
      <point x="67" y="268" type="line"/>
      <point x="99" y="304"/>
      <point x="130" y="322"/>
      <point x="172" y="322" type="curve" smooth="yes"/>
      <point x="262" y="322"/>
      <point x="339" y="221"/>
      <point x="431" y="221" type="curve" smooth="yes"/>
      <point x="484" y="221"/>
      <point x="519" y="243"/>
      <point x="535" y="270" type="curve" smooth="yes"/>
      <point x="541" y="281"/>
      <point x="544" y="290"/>
      <point x="544" y="305" type="curve" smooth="yes"/>
      <point x="544" y="315"/>
      <point x="542" y="325"/>
      <point x="537" y="332" type="curve"/>
      <point x="533" y="332" type="line"/>
      <point x="501" y="296"/>
      <point x="470" y="278"/>
    </contour>
  </outline>
</glyph>
<glyph name="exclamdown" format="1">
  <advance width="600"/>
  <unicode hex="00A1"/>
  <outline>
    <contour>
      <point x="275" y="292" type="line"/>
      <point x="267" y="215"/>
      <point x="263" y="138"/>
      <point x="263" y="62" type="curve"/>
      <point x="263" y="-133" type="line" smooth="yes"/>
      <point x="263" y="-165"/>
      <point x="277" y="-175"/>
      <point x="322" y="-175" type="curve" smooth="yes"/>
      <point x="332" y="-175"/>
      <point x="339" y="-174"/>
      <point x="346" y="-172" type="curve"/>
      <point x="340" y="-137"/>
      <point x="339" y="-102"/>
      <point x="339" y="-64" type="curve" smooth="yes"/>
      <point x="339" y="62" type="line"/>
      <point x="339" y="181"/>
      <point x="334" y="266"/>
      <point x="320" y="280" type="curve" smooth="yes"/>
      <point x="310" y="290"/>
      <point x="295" y="292"/>
      <point x="280" y="292" type="curve"/>
    </contour>
    <contour>
      <point x="236" y="527" type="curve"/>
      <point x="236" y="461" type="line" smooth="yes"/>
      <point x="236" y="426"/>
      <point x="261" y="406"/>
      <point x="312" y="406" type="curve" smooth="yes"/>
      <point x="334" y="406"/>
      <point x="351" y="410"/>
      <point x="364" y="419" type="curve"/>
      <point x="364" y="484" type="line" smooth="yes"/>
      <point x="364" y="520"/>
      <point x="339" y="540"/>
      <point x="288" y="540" type="curve" smooth="yes"/>
      <point x="266" y="540"/>
      <point x="249" y="535"/>
    </contour>
  </outline>
</glyph>
<glyph name="cent" format="1">
  <advance width="600"/>
  <unicode hex="00A2"/>
  <outline>
    <contour>
      <point x="345" y="424" type="line"/>
      <point x="367" y="710" type="line" smooth="yes"/>
      <point x="371" y="751"/>
      <point x="360" y="767"/>
      <point x="328" y="767" type="curve" smooth="yes"/>
      <point x="318" y="767"/>
      <point x="307" y="765"/>
      <point x="300" y="763" type="curve"/>
      <point x="306" y="739"/>
      <point x="308" y="716"/>
      <point x="308" y="675" type="curve"/>
      <point x="308" y="453" type="line" smooth="yes"/>
      <point x="308" y="434"/>
      <point x="320" y="424"/>
      <point x="341" y="424" type="curve" smooth="yes"/>
    </contour>
    <contour>
      <point x="303" y="270" type="line"/>
      <point x="281" y="-16" type="line" smooth="yes"/>
      <point x="277" y="-57"/>
      <point x="288" y="-73"/>
      <point x="320" y="-73" type="curve" smooth="yes"/>
      <point x="330" y="-73"/>
      <point x="341" y="-71"/>
      <point x="348" y="-69" type="curve"/>
      <point x="341" y="-45"/>
      <point x="340" y="-22"/>
      <point x="340" y="19" type="curve"/>
      <point x="340" y="241" type="line" smooth="yes"/>
      <point x="340" y="260"/>
      <point x="328" y="270"/>
      <point x="307" y="270" type="curve" smooth="yes"/>
    </contour>
    <contour>
      <point x="339" y="623" type="curve" smooth="yes"/>
      <point x="189" y="623"/>
      <point x="74" y="515"/>
      <point x="74" y="313" type="curve" smooth="yes"/>
      <point x="74" y="299" type="line" smooth="yes"/>
      <point x="74" y="162"/>
      <point x="161" y="77"/>
      <point x="322" y="77" type="curve" smooth="yes"/>
      <point x="332" y="77"/>
      <point x="343" y="89"/>
      <point x="343" y="116" type="curve"/>
      <point x="195" y="119"/>
      <point x="129" y="194"/>
      <point x="129" y="298" type="curve" smooth="yes"/>
      <point x="129" y="313" type="line" smooth="yes"/>
      <point x="129" y="460"/>
      <point x="203" y="568"/>
      <point x="331" y="568" type="curve" smooth="yes"/>
      <point x="410" y="568"/>
      <point x="446" y="546"/>
      <point x="491" y="501" type="curve"/>
      <point x="495" y="501" type="line"/>
      <point x="497" y="507"/>
      <point x="498" y="513"/>
      <point x="498" y="522" type="curve" smooth="yes"/>
      <point x="498" y="541"/>
      <point x="495" y="566"/>
      <point x="483" y="578" type="curve" smooth="yes"/>
      <point x="452" y="609"/>
      <point x="404" y="623"/>
    </contour>
    <contour>
      <point x="140" y="205" type="curve"/>
      <point x="111" y="152"/>
      <point x="211" y="77"/>
      <point x="322" y="77" type="curve" smooth="yes"/>
      <point x="395" y="77"/>
      <point x="458" y="101"/>
      <point x="486" y="129" type="curve" smooth="yes"/>
      <point x="498" y="142"/>
      <point x="501" y="169"/>
      <point x="501" y="182" type="curve"/>
      <point x="501" y="191"/>
      <point x="500" y="196"/>
      <point x="499" y="201" type="curve"/>
      <point x="495" y="201" type="line"/>
      <point x="449" y="154"/>
      <point x="399" y="132"/>
      <point x="322" y="132" type="curve" smooth="yes"/>
      <point x="238" y="132"/>
      <point x="187" y="155"/>
    </contour>
  </outline>
</glyph>
<glyph name="sterling" format="1">
  <advance width="600"/>
  <unicode hex="00A3"/>
  <outline>
    <contour>
      <point x="303" y="664" type="curve" smooth="yes"/>
      <point x="400" y="664"/>
      <point x="461" y="630"/>
      <point x="506" y="563" type="curve"/>
      <point x="510" y="563" type="line"/>
      <point x="515" y="576"/>
      <point x="516" y="587"/>
      <point x="516" y="602" type="curve" smooth="yes"/>
      <point x="516" y="623"/>
      <point x="513" y="637"/>
      <point x="493" y="657" type="curve" smooth="yes"/>
      <point x="460" y="689"/>
      <point x="393" y="719"/>
      <point x="303" y="719" type="curve" smooth="yes"/>
      <point x="171" y="719"/>
      <point x="87" y="649"/>
      <point x="87" y="546" type="curve" smooth="yes"/>
      <point x="87" y="539" type="line" smooth="yes"/>
      <point x="87" y="503"/>
      <point x="109" y="496"/>
      <point x="131" y="496" type="curve"/>
      <point x="131" y="601"/>
      <point x="182" y="664"/>
    </contour>
    <contour>
      <point x="87" y="539" type="curve" smooth="yes"/>
      <point x="87" y="401"/>
      <point x="200" y="292"/>
      <point x="200" y="152" type="curve" smooth="yes"/>
      <point x="200" y="77"/>
      <point x="166" y="43"/>
      <point x="105" y="43" type="curve" smooth="yes"/>
      <point x="83" y="43"/>
      <point x="69" y="45"/>
      <point x="55" y="56" type="curve"/>
      <point x="51" y="56" type="line"/>
      <point x="48" y="48"/>
      <point x="47" y="43"/>
      <point x="47" y="35" type="curve" smooth="yes"/>
      <point x="47" y="4"/>
      <point x="64" y="-12"/>
      <point x="107" y="-12" type="curve" smooth="yes"/>
      <point x="112" y="-12" type="line" smooth="yes"/>
      <point x="211" y="-12"/>
      <point x="253" y="57"/>
      <point x="253" y="150" type="curve" smooth="yes"/>
      <point x="253" y="299"/>
      <point x="139" y="411"/>
      <point x="139" y="555" type="curve" smooth="yes"/>
      <point x="139" y="577"/>
      <point x="141" y="598"/>
      <point x="150" y="620" type="curve"/>
      <point x="97" y="620"/>
      <point x="87" y="581"/>
    </contour>
    <contour>
      <point x="203" y="78" type="curve"/>
      <point x="291" y="20"/>
      <point x="364" y="-12"/>
      <point x="443" y="-12" type="curve" smooth="yes"/>
      <point x="453" y="-12" type="line" smooth="yes"/>
      <point x="521" y="-12"/>
      <point x="553" y="24"/>
      <point x="553" y="62" type="curve"/>
      <point x="553" y="80"/>
      <point x="547" y="94"/>
      <point x="540" y="105" type="curve"/>
      <point x="536" y="105" type="line"/>
      <point x="520" y="60"/>
      <point x="497" y="44"/>
      <point x="446" y="44" type="curve" smooth="yes"/>
      <point x="374" y="44"/>
      <point x="304" y="72"/>
      <point x="224" y="123" type="curve"/>
      <point x="214" y="125"/>
      <point x="202" y="104"/>
    </contour>
    <contour>
      <point x="50" y="353" type="line"/>
      <point x="50" y="350"/>
      <point x="50" y="345"/>
      <point x="50" y="342" type="curve" smooth="yes"/>
      <point x="50" y="324"/>
      <point x="53" y="312"/>
      <point x="62" y="303" type="curve" smooth="yes"/>
      <point x="65" y="299"/>
      <point x="70" y="297"/>
      <point x="78" y="297" type="curve" smooth="yes"/>
      <point x="441" y="297" type="line"/>
      <point x="442" y="301"/>
      <point x="442" y="306"/>
      <point x="442" y="310" type="curve" smooth="yes"/>
      <point x="442" y="335"/>
      <point x="436" y="353"/>
      <point x="416" y="353" type="curve" smooth="yes"/>
    </contour>
  </outline>
</glyph>
<glyph name="yen" format="1">
  <advance width="600"/>
  <unicode hex="00A5"/>
  <outline>
    <contour>
      <point x="38" y="383" type="line"/>
      <point x="38" y="380"/>
      <point x="38" y="375"/>
      <point x="38" y="372" type="curve" smooth="yes"/>
      <point x="38" y="354"/>
      <point x="41" y="343"/>
      <point x="50" y="334" type="curve" smooth="yes"/>
      <point x="54" y="331"/>
      <point x="58" y="328"/>
      <point x="66" y="328" type="curve"/>
      <point x="200" y="328" type="line"/>
      <point x="200" y="332"/>
      <point x="200" y="337"/>
      <point x="200" y="341" type="curve" smooth="yes"/>
      <point x="200" y="365"/>
      <point x="194" y="383"/>
      <point x="174" y="383" type="curve"/>
    </contour>
    <contour>
      <point x="398" y="383" type="line"/>
      <point x="392" y="374"/>
      <point x="388" y="366"/>
      <point x="388" y="354" type="curve" smooth="yes"/>
      <point x="388" y="342"/>
      <point x="392" y="328"/>
      <point x="410" y="328" type="curve"/>
      <point x="562" y="328" type="line"/>
      <point x="562" y="332"/>
      <point x="562" y="337"/>
      <point x="562" y="341" type="curve" smooth="yes"/>
      <point x="562" y="365"/>
      <point x="556" y="383"/>
      <point x="536" y="383" type="curve"/>
    </contour>
    <contour>
      <point x="561" y="128" type="line"/>
      <point x="561" y="131"/>
      <point x="561" y="136"/>
      <point x="561" y="139" type="curve" smooth="yes"/>
      <point x="561" y="157"/>
      <point x="558" y="168"/>
      <point x="550" y="177" type="curve" smooth="yes"/>
      <point x="546" y="180"/>
      <point x="541" y="182"/>
      <point x="534" y="182" type="curve"/>
      <point x="39" y="182" type="line"/>
      <point x="39" y="178"/>
      <point x="39" y="173"/>
      <point x="39" y="170" type="curve" smooth="yes"/>
      <point x="39" y="146"/>
      <point x="44" y="128"/>
      <point x="64" y="128" type="curve"/>
    </contour>
    <contour>
      <point x="41" y="710" type="line"/>
      <point x="87" y="445"/>
      <point x="146" y="358"/>
      <point x="271" y="232" type="curve"/>
      <point x="276" y="227"/>
      <point x="286" y="226"/>
      <point x="293" y="226" type="curve"/>
      <point x="305" y="226"/>
      <point x="314" y="242"/>
      <point x="315" y="264" type="curve"/>
      <point x="195" y="382"/>
      <point x="140" y="454"/>
      <point x="100" y="689" type="curve"/>
      <point x="98" y="703"/>
      <point x="80" y="710"/>
      <point x="52" y="710" type="curve" smooth="yes"/>
    </contour>
    <contour>
      <point x="501" y="710" type="line"/>
      <point x="470" y="483"/>
      <point x="412" y="386"/>
      <point x="286" y="264" type="curve"/>
      <point x="261" y="240"/>
      <point x="286" y="226"/>
      <point x="293" y="226" type="curve"/>
      <point x="324" y="226" type="line"/>
      <point x="451" y="352"/>
      <point x="525" y="462"/>
      <point x="555" y="680" type="curve"/>
      <point x="557" y="695"/>
      <point x="540" y="710"/>
      <point x="512" y="710" type="curve"/>
    </contour>
    <contour>
      <point x="335" y="-7" type="curve"/>
      <point x="329" y="28"/>
      <point x="328" y="63"/>
      <point x="328" y="101" type="curve" smooth="yes"/>
      <point x="328" y="243" type="line" smooth="yes"/>
      <point x="328" y="264"/>
      <point x="301" y="268"/>
      <point x="272" y="268" type="curve"/>
      <point x="272" y="51" type="line" smooth="yes"/>
      <point x="272" y="28"/>
      <point x="274" y="11"/>
      <point x="286" y="-1" type="curve" smooth="yes"/>
      <point x="292" y="-7"/>
      <point x="300" y="-10"/>
      <point x="316" y="-10" type="curve" smooth="yes"/>
      <point x="323" y="-10"/>
      <point x="328" y="-9"/>
    </contour>
  </outline>
</glyph>
<glyph name="brokenbar" format="1">
  <advance width="600"/>
  <unicode hex="00A6"/>
  <outline>
    <contour>
      <point x="265" y="760" type="curve"/>
      <point x="271" y="725"/>
      <point x="272" y="690"/>
      <point x="272" y="653" type="curve" smooth="yes"/>
      <point x="272" y="395" type="line" smooth="yes"/>
      <point x="272" y="376"/>
      <point x="291" y="370"/>
      <point x="317" y="370" type="curve" smooth="yes"/>
      <point x="320" y="370"/>
      <point x="325" y="370"/>
      <point x="328" y="370" type="curve"/>
      <point x="328" y="703" type="line" smooth="yes"/>
      <point x="328" y="725"/>
      <point x="326" y="742"/>
      <point x="314" y="754" type="curve" smooth="yes"/>
      <point x="308" y="760"/>
      <point x="300" y="763"/>
      <point x="284" y="763" type="curve" smooth="yes"/>
      <point x="277" y="763"/>
      <point x="272" y="762"/>
    </contour>
    <contour>
      <point x="272" y="230" type="curve"/>
      <point x="272" y="-135" type="line"/>
      <point x="272" y="-154"/>
      <point x="291" y="-160"/>
      <point x="317" y="-160" type="curve" smooth="yes"/>
      <point x="320" y="-160"/>
      <point x="325" y="-160"/>
      <point x="328" y="-160" type="curve"/>
      <point x="328" y="194" type="line" smooth="yes"/>
      <point x="328" y="219"/>
      <point x="321" y="233"/>
      <point x="288" y="233" type="curve" smooth="yes"/>
      <point x="282" y="233"/>
      <point x="276" y="232"/>
    </contour>
  </outline>
</glyph>
<glyph name="section" format="1">
  <advance width="600"/>
  <unicode hex="00A7"/>
  <outline>
    <contour>
      <point x="378" y="720" type="curve" smooth="yes"/>
      <point x="235" y="720"/>
      <point x="89" y="564"/>
      <point x="89" y="438" type="curve" smooth="yes"/>
      <point x="89" y="428" type="line" smooth="yes"/>
      <point x="89" y="399"/>
      <point x="126" y="381"/>
      <point x="148" y="375" type="curve"/>
      <point x="144" y="397"/>
      <point x="144" y="415"/>
      <point x="144" y="437" type="curve" smooth="yes"/>
      <point x="144" y="539"/>
      <point x="270" y="665"/>
      <point x="378" y="665" type="curve" smooth="yes"/>
      <point x="447" y="665"/>
      <point x="474" y="636"/>
      <point x="474" y="569" type="curve"/>
      <point x="492" y="569"/>
      <point x="501" y="584"/>
      <point x="501" y="593" type="curve" smooth="yes"/>
      <point x="501" y="627"/>
      <point x="495" y="663"/>
      <point x="471" y="687" type="curve" smooth="yes"/>
      <point x="451" y="707"/>
      <point x="425" y="720"/>
    </contour>
    <contour>
      <point x="369" y="290" type="curve" smooth="yes"/>
      <point x="284" y="322" type="line" smooth="yes"/>
      <point x="155" y="368"/>
      <point x="144" y="398"/>
      <point x="144" y="437" type="curve" smooth="yes"/>
      <point x="144" y="456"/>
      <point x="145" y="471"/>
      <point x="148" y="497" type="curve"/>
      <point x="120" y="489"/>
      <point x="89" y="470"/>
      <point x="89" y="428" type="curve" smooth="yes"/>
      <point x="89" y="361"/>
      <point x="135" y="319"/>
      <point x="270" y="269" type="curve" smooth="yes"/>
      <point x="356" y="237" type="line" smooth="yes"/>
      <point x="449" y="202"/>
      <point x="471" y="170"/>
      <point x="471" y="114" type="curve" smooth="yes"/>
      <point x="471" y="110" type="line" smooth="yes"/>
      <point x="471" y="76"/>
      <point x="461" y="45"/>
      <point x="427" y="9" type="curve"/>
      <point x="433" y="3"/>
      <point x="442" y="-2"/>
      <point x="456" y="-2" type="curve" smooth="yes"/>
      <point x="480" y="-2"/>
      <point x="525" y="43"/>
      <point x="525" y="114" type="curve" smooth="yes"/>
      <point x="525" y="124" type="line" smooth="yes"/>
      <point x="525" y="202"/>
      <point x="475" y="252"/>
    </contour>
    <contour>
      <point x="369" y="53" type="curve" smooth="yes"/>
      <point x="284" y="84" type="line" smooth="yes"/>
      <point x="155" y="131"/>
      <point x="144" y="177"/>
      <point x="144" y="216" type="curve" smooth="yes"/>
      <point x="144" y="224" type="line" smooth="yes"/>
      <point x="144" y="260"/>
      <point x="160" y="294"/>
      <point x="195" y="323" type="curve"/>
      <point x="192" y="327"/>
      <point x="180" y="335"/>
      <point x="171" y="335" type="curve" smooth="yes"/>
      <point x="134" y="335"/>
      <point x="89" y="283"/>
      <point x="89" y="220" type="curve" smooth="yes"/>
      <point x="89" y="213" type="line" smooth="yes"/>
      <point x="89" y="145"/>
      <point x="135" y="81"/>
      <point x="270" y="31" type="curve" smooth="yes"/>
      <point x="356" y="-1" type="line" smooth="yes"/>
      <point x="450" y="-36"/>
      <point x="478" y="-69"/>
      <point x="478" y="-131" type="curve" smooth="yes"/>
      <point x="478" y="-135"/>
      <point x="478" y="-143"/>
      <point x="478" y="-148" type="curve"/>
      <point x="497" y="-143"/>
      <point x="525" y="-110"/>
      <point x="525" y="-92" type="curve"/>
      <point x="525" y="-31"/>
      <point x="475" y="14"/>
    </contour>
    <contour>
      <point x="300" y="-250" type="curve" smooth="yes"/>
      <point x="435" y="-250"/>
      <point x="525" y="-192"/>
      <point x="525" y="-97" type="curve" smooth="yes"/>
      <point x="525" y="-92" type="line" smooth="yes"/>
      <point x="525" y="-62"/>
      <point x="501" y="-47"/>
      <point x="483" y="-45" type="curve"/>
      <point x="483" y="-49"/>
      <point x="483" y="-54"/>
      <point x="483" y="-66" type="curve" smooth="yes"/>
      <point x="483" y="-148"/>
      <point x="417" y="-194"/>
      <point x="300" y="-194" type="curve" smooth="yes"/>
      <point x="198" y="-194"/>
      <point x="132" y="-168"/>
      <point x="86" y="-107" type="curve"/>
      <point x="82" y="-107" type="line"/>
      <point x="78" y="-120"/>
      <point x="76" y="-130"/>
      <point x="76" y="-146" type="curve" smooth="yes"/>
      <point x="76" y="-164"/>
      <point x="78" y="-177"/>
      <point x="92" y="-190" type="curve" smooth="yes"/>
      <point x="132" y="-231"/>
      <point x="208" y="-250"/>
    </contour>
    <contour>
      <point x="501" y="452" type="curve"/>
      <point x="501" y="593" type="line" smooth="yes"/>
      <point x="501" y="680"/>
      <point x="447" y="691"/>
      <point x="425" y="673" type="curve"/>
      <point x="442" y="648"/>
      <point x="446" y="629"/>
      <point x="446" y="589" type="curve" smooth="yes"/>
      <point x="446" y="494" type="line" smooth="yes"/>
      <point x="446" y="478"/>
      <point x="449" y="467"/>
      <point x="457" y="459" type="curve" smooth="yes"/>
      <point x="463" y="452"/>
      <point x="473" y="449"/>
      <point x="485" y="449" type="curve" smooth="yes"/>
      <point x="492" y="449"/>
      <point x="497" y="450"/>
    </contour>
  </outline>
</glyph>
<glyph name="dieresis" format="1">
  <advance width="600"/>
  <unicode hex="00A8"/>
  <outline>
    <contour>
      <point x="242" y="665" type="curve"/>
      <point x="242" y="720" type="line" smooth="yes"/>
      <point x="242" y="743"/>
      <point x="222" y="756"/>
      <point x="189" y="756" type="curve" smooth="yes"/>
      <point x="177" y="756"/>
      <point x="166" y="755"/>
      <point x="157" y="753" type="curve"/>
      <point x="157" y="698" type="line" smooth="yes"/>
      <point x="157" y="675"/>
      <point x="178" y="662"/>
      <point x="210" y="662" type="curve" smooth="yes"/>
      <point x="222" y="662"/>
      <point x="233" y="663"/>
    </contour>
    <contour>
      <point x="443" y="665" type="curve"/>
      <point x="443" y="720" type="line" smooth="yes"/>
      <point x="443" y="743"/>
      <point x="423" y="756"/>
      <point x="390" y="756" type="curve" smooth="yes"/>
      <point x="378" y="756"/>
      <point x="367" y="755"/>
      <point x="358" y="753" type="curve"/>
      <point x="358" y="698" type="line" smooth="yes"/>
      <point x="358" y="675"/>
      <point x="379" y="662"/>
      <point x="411" y="662" type="curve" smooth="yes"/>
      <point x="423" y="662"/>
      <point x="434" y="663"/>
    </contour>
  </outline>
</glyph>
